<svg xmlns="http://www.w3.org/2000/svg" width="110.067" height="16.542" viewBox="0 0 110.067 16.542"><defs><style>.a{fill:#005df9;}.b{fill:#01efae;}</style></defs><path class="a" d="M4.179,16.542h-.04A3.785,3.785,0,0,1,1.105,15.13,5.454,5.454,0,0,1,0,11.679,6.209,6.209,0,0,1,1.634,7.2a5.532,5.532,0,0,1,4.05-1.584,8.6,8.6,0,0,1,1.654.191V0h3.478V16.181H7.425v-1.1a4.344,4.344,0,0,1-3.246,1.456ZM6.211,8.577H6.16A2.683,2.683,0,0,0,4.182,9.3a2.73,2.73,0,0,0-.69,1.956,2.562,2.562,0,0,0,.525,1.691,1.748,1.748,0,0,0,1.377.6,2.857,2.857,0,0,0,1.945-.9V8.7A5.079,5.079,0,0,0,6.211,8.577Z" transform="translate(0 0)"/><path class="a" d="M7.635,3.445V.133A4.128,4.128,0,0,0,6.52,0a5.006,5.006,0,0,0-3.1,1.368V.241H0V10.816H3.473V4.238a4.773,4.773,0,0,1,2.855-.946A5.548,5.548,0,0,1,7.635,3.445Z" transform="translate(12.725 5.09)"/><path class="b" d="M1.909,4.454A2.086,2.086,0,0,0,3.817,2.227,2.086,2.086,0,0,0,1.909,0,2.086,2.086,0,0,0,0,2.227,2.086,2.086,0,0,0,1.909,4.454Z" transform="translate(19.723 11.452)"/><path class="a" d="M3.334,0H0V12.55c0,2.444.947,3.983,3.238,3.983a5.461,5.461,0,0,0,2.488-.452V13.32a3.433,3.433,0,0,1-1.186.212c-1.01,0-1.206-.727-1.206-1.582Z" transform="translate(83.982)"/><path class="a" d="M0,7.353V9.889a9.781,9.781,0,0,0,4.23.926c3.154,0,4.677-1.226,4.677-3.359,0-2.049-1.128-3.107-3.78-3.4-1.428-.167-1.8-.292-1.8-.822,0-.592.828-.634,1.719-.634a9.665,9.665,0,0,1,3.248.655V.781A8.222,8.222,0,0,0,4.691,0C2.217,0,.115,1.123.115,3.338c0,1.986.952,3.068,3.766,3.3C5.4,6.781,5.7,6.948,5.7,7.478c0,.592-.755.676-1.863.676A9.539,9.539,0,0,1,0,7.353Z" transform="translate(59.805 5.726)"/><path class="a" d="M5.385,0A5.211,5.211,0,0,0,0,5.57c0,3.112,1.737,5.248,4.824,5.24a6.693,6.693,0,0,0,3.447-.8V7.237a5.419,5.419,0,0,1-2.339.51A2.152,2.152,0,0,1,3.488,5.459a2.251,2.251,0,0,1,2.54-2.415,4.975,4.975,0,0,1,2.16.467V.657A5.858,5.858,0,0,0,5.385,0Z" transform="translate(25.449 5.726)"/><path class="a" d="M5.4,10.816A5.371,5.371,0,0,1,1.444,9.294,5.452,5.452,0,0,1,0,5.393,5.426,5.426,0,0,1,1.5,1.545,5.4,5.4,0,0,1,5.4,0,5.409,5.409,0,0,1,9.378,1.5a5.416,5.416,0,0,1,1.438,3.895A5.475,5.475,0,0,1,9.331,9.248,5.328,5.328,0,0,1,5.4,10.816ZM5.4,2.958c-1.245,0-2.049.956-2.049,2.435a2.737,2.737,0,0,0,.533,1.8A1.881,1.881,0,0,0,5.4,7.829a1.886,1.886,0,0,0,1.5-.655,2.724,2.724,0,0,0,.553-1.781C7.445,3.8,6.736,2.958,5.4,2.958Z" transform="translate(34.992 5.726)"/><path class="a" d="M10.816,5.054v5.761H7.227V5.646C7.227,4,6.715,3.394,5.5,3.394a3.168,3.168,0,0,0-1.912.744v6.678H0V.325H3.51v1.1A5.66,5.66,0,0,1,7,0C9.606-.007,10.816,1.661,10.816,5.054Z" transform="translate(47.081 5.09)"/><path class="a" d="M10.816,0V10.449H7.3V9.356a5.439,5.439,0,0,1-3.449,1.46C1.221,10.816,0,9.132,0,5.753V0H3.617V5.214c0,1.64.448,2.2,1.669,2.2a3.154,3.154,0,0,0,1.9-.741V0Z" transform="translate(70.621 5.726)"/><path class="a" d="M7.635,9.9v2.838a6.445,6.445,0,0,1-2.879.624C1.082,13.36,0,11.1,0,8.024V0H3.522V2.689h4V5.463h-4v2.71c0,1.377.358,2.15,2.106,2.15A4.448,4.448,0,0,0,7.635,9.9Z" transform="translate(90.98 3.181)"/><path class="a" d="M4.1,10.816H4.077a3.715,3.715,0,0,1-2.966-1.4A5.41,5.41,0,0,1,0,5.987,5.634,5.634,0,0,1,1.832,1.573,7.46,7.46,0,0,1,6.8,0a13.566,13.566,0,0,1,4,.7V6.573h.008v3.886H7.392V9.378A4.38,4.38,0,0,1,5.9,10.445,4.481,4.481,0,0,1,4.1,10.816Zm2.317-7.9c-1.811,0-2.85.964-2.85,2.644a2.645,2.645,0,0,0,.483,1.676,1.652,1.652,0,0,0,1.337.592,2.766,2.766,0,0,0,1.9-.865H7.282V2.96C7.023,2.94,6.721,2.918,6.419,2.918Z" transform="translate(99.251 5.726)"/></svg>