<svg width="12" height="10" viewBox="0 0 12 10" fill="none" xmlns="http://www.w3.org/2000/svg">
<path fill-rule="evenodd" clip-rule="evenodd" d="M1.33317 5.66659H9.24317L6.82117 8.57325C6.58517 8.85592 6.62384 9.27659 6.9065 9.51192C7.18984 9.74792 7.60984 9.70925 7.84584 9.42659L11.1792 5.42659C11.2052 5.39525 11.2178 5.35859 11.2372 5.32392C11.2532 5.29592 11.2725 5.27192 11.2845 5.24125C11.3145 5.16459 11.3325 5.08392 11.3325 5.00259C11.3325 5.00192 11.3332 5.00059 11.3332 4.99992C11.3332 4.99925 11.3325 4.99792 11.3325 4.99725C11.3325 4.91592 11.3145 4.83525 11.2845 4.75859C11.2725 4.72792 11.2532 4.70392 11.2372 4.67592C11.2178 4.64125 11.2052 4.60459 11.1792 4.57325L7.84584 0.573252C7.71317 0.415252 7.52384 0.333252 7.33317 0.333252C7.1825 0.333252 7.03117 0.383919 6.9065 0.487919C6.62384 0.723252 6.58517 1.14392 6.82117 1.42659L9.24317 4.33325H1.33317C0.965171 4.33325 0.666504 4.63192 0.666504 4.99992C0.666504 5.36792 0.965171 5.66659 1.33317 5.66659Z" fill="#9E9E9E"/>
</svg>
