<svg width="218" height="32" viewBox="0 0 218 32" fill="none" xmlns="http://www.w3.org/2000/svg">
<g clip-path="url(#clip0)">
<path fill-rule="evenodd" clip-rule="evenodd" d="M20.9749 31.2875V0H14.2304V11.2306C13.1761 11.0046 12.1022 10.8811 11.0238 10.862C4.77569 10.862 0 15.1248 0 22.5841C0 27.8446 3.04153 31.9845 8.02674 31.9857C9.22998 31.9959 10.4214 31.7498 11.5207 31.2641C12.62 30.7784 13.6016 30.0642 14.3993 29.1699V31.2875H20.9749ZM14.231 24.4567C13.247 25.497 11.8954 26.1187 10.4597 26.1915C8.25817 26.1915 6.76899 24.5789 6.77158 21.7631C6.77158 18.5799 8.61531 16.5851 11.9463 16.5851C12.715 16.5775 13.4818 16.66 14.231 16.8309V24.4567Z" fill="white"/>
<path d="M40.7795 17.4485V11.2307C40.0737 11.0527 39.3472 10.969 38.6192 10.9817C36.4582 10.9817 34.3663 12.1023 32.6045 13.5506V11.4329H25.9844V31.2889H32.7147V18.9377C34.3235 17.7803 36.2604 17.1586 38.2472 17.1618C39.0996 17.1597 39.9494 17.2559 40.7795 17.4485Z" fill="white"/>
<path d="M42.6112 31.2466C44.9144 31.2466 46.7816 29.3931 46.7816 27.1067C46.7816 24.8203 44.9144 22.9668 42.6112 22.9668C40.308 22.9668 38.4409 24.8203 38.4409 27.1067C38.4409 29.3931 40.308 31.2466 42.6112 31.2466Z" fill="#01EFAD"/>
<path d="M171.706 0H164.938V24.2787C164.938 29.0061 166.862 31.9845 171.514 31.9845C173.242 32.0741 174.969 31.7752 176.565 31.1103V25.7679C175.791 26.0391 174.977 26.1776 174.157 26.1775C172.106 26.1775 171.706 24.7702 171.706 23.1173V0Z" fill="white"/>
<path d="M118.157 25.1943V30.1674C120.844 31.3865 123.767 32.0065 126.721 31.9835C133.106 31.9835 136.19 29.5793 136.19 25.3984C136.19 21.3821 133.905 19.3073 128.537 18.7313C125.647 18.4037 124.89 18.1579 124.89 17.1193C124.89 15.9577 126.567 15.8759 128.372 15.8759C129.855 15.8759 133.31 16.368 134.948 17.1602V12.3094C132.66 11.2698 130.168 10.7472 127.653 10.7792C122.645 10.7792 118.391 12.9787 118.391 17.3234C118.391 21.2182 120.318 23.3391 126.016 23.787C129.1 24.0737 129.704 24.4014 129.704 25.44C129.704 26.6016 128.176 26.7654 125.933 26.7654C123.261 26.7699 120.615 26.2354 118.157 25.1943Z" fill="white"/>
<path d="M60.4066 10.8071C53.869 10.8071 49.6987 15.4116 49.6987 21.7101C49.6987 27.8031 53.1535 31.984 59.2913 31.9693C61.6762 32.0608 64.0424 31.5184 66.1454 30.3982V24.9739C64.6882 25.644 63.0994 25.9847 61.4935 25.9716C58.3971 25.9716 56.6353 24.3474 56.6353 21.4918C56.6353 18.5813 58.3553 16.7645 61.6863 16.7645C63.1683 16.7486 64.6354 17.0613 65.9803 17.6796V12.0916C64.2577 11.2131 62.3428 10.7719 60.4066 10.8071Z" fill="white"/>
<path fill-rule="evenodd" clip-rule="evenodd" d="M79.785 10.8213C73.3164 10.8213 68.9121 15.3688 68.9121 21.3806C68.9121 27.5991 73.0379 31.9847 79.785 31.9962C86.3503 31.9962 90.6857 27.3514 90.6857 21.3806C90.6857 15.125 86.5978 10.8213 79.785 10.8213ZM79.7741 16.6122C82.4546 16.6122 83.8999 18.2244 83.8999 21.3806C83.8999 24.3199 82.3038 26.1509 79.7741 26.1489C77.1349 26.1489 75.6482 24.4409 75.6482 21.3806C75.6482 18.4841 77.2831 16.6122 79.7741 16.6122Z" fill="white"/>
<path d="M114.468 20.3845V31.2875H107.699V21.5051C107.699 18.3898 106.735 17.2423 104.451 17.2423C103.124 17.2982 101.854 17.794 100.845 18.6502V31.2882H94.0708V11.4354H100.691V13.5121C102.411 12.1041 104.696 10.8204 107.27 10.8204C112.186 10.8069 114.468 13.9631 114.468 20.3845Z" fill="white"/>
<path d="M160.378 11.4355V31.287H153.804V29.2104C152.127 30.6586 149.909 31.9839 147.349 31.9839C142.421 31.9839 140.136 28.7841 140.136 22.3654V11.4355H146.905V21.3408C146.905 24.4561 147.743 25.5216 150.03 25.5216C151.344 25.4651 152.6 24.9689 153.595 24.1137V11.4355H160.378Z" fill="white"/>
<path d="M194.02 25.3165V30.7818C192.295 31.6046 190.4 32.0162 188.487 31.9836C181.426 31.9836 179.349 27.6255 179.349 21.7091V6.25732H186.117V11.4353H193.81V16.7775H186.117V21.9965C186.117 24.6471 186.806 26.1364 190.164 26.1364C191.496 26.1676 192.817 25.8867 194.02 25.3165Z" fill="white"/>
<path fill-rule="evenodd" clip-rule="evenodd" d="M217.127 12.1734V23.6773H217.143V31.2858H210.647V29.1688C209.864 30.0598 208.897 30.7727 207.811 31.2587C206.726 31.7446 205.547 31.9923 204.357 31.9846C199.662 31.9846 196.621 27.8312 196.621 22.5299C196.621 15.1109 201.589 10.8071 209.53 10.8071C212.119 10.8678 214.682 11.3288 217.127 12.1734ZM206.846 26.1392C208.168 26.1392 209.297 25.5248 210.453 24.4453L210.439 24.4446V16.6026C209.929 16.5616 209.365 16.5207 208.8 16.5207C205.278 16.5207 203.392 18.4988 203.392 21.6986C203.392 24.5272 204.686 26.1392 206.846 26.1392Z" fill="white"/>
</g>
<defs>
<clipPath id="clip0">
<rect width="217.143" height="32" fill="white"/>
</clipPath>
</defs>
</svg>
