<svg xmlns="http://www.w3.org/2000/svg" width="84.912" height="116.119" viewBox="0 0 84.912 116.119"><defs><style>.a{fill:#183b8d;}.b{fill:none;stroke:#183b8d;stroke-linecap:round;stroke-linejoin:round;stroke-width:4.5px;}</style></defs><g transform="translate(-751.975 -2297.317)"><path class="a" d="M806.407,2331.719a18.32,18.32,0,0,0-4,.441l3.033-11.268h-7.554a5.6,5.6,0,0,0-5.4,4.124l-2.339,8.447a23.527,23.527,0,0,0,3.3-.307,19.289,19.289,0,0,1-17.137,1.336l-3.268,11.8a18.285,18.285,0,0,0,13.127,1.633l-3.082,11.478h7.667a5.475,5.475,0,0,0,5.282-4.035l2.219-8.141a18.111,18.111,0,0,0-5.093,1.313,18.218,18.218,0,0,1,5.6-3.186v0c.072-.026.146-.048.219-.073.135-.045.269-.09.405-.133.108-.034.217-.065.326-.1.138-.041.277-.082.417-.119.111-.029.222-.055.333-.083.14-.034.28-.069.422-.1.115-.026.232-.048.349-.071.138-.028.276-.057.415-.081s.253-.04.379-.06.264-.042.4-.06.283-.032.425-.047c.121-.013.241-.028.363-.039.167-.015.336-.024.5-.034.1-.006.2-.014.3-.019q.4-.018.809-.018h.018q.471,0,.938.024c.1.005.19.016.286.022.22.015.44.029.658.052.107.011.212.027.319.04.205.025.41.05.614.081.105.017.209.038.314.056.2.035.4.07.6.112.1.021.2.047.3.07.2.046.4.091.6.144.1.025.192.055.288.082.2.056.4.113.6.176.094.029.185.062.278.093.2.067.393.134.587.207.092.034.181.071.272.107.191.075.382.152.571.234l.08.032,3.257-11.764A18.14,18.14,0,0,0,806.407,2331.719Z"/><path class="b" d="M794.431,2299.567a40.2,40.2,0,0,0-38.78,50.816l-.125-.08s7.517,27.059,38.9,60.883c0,0,28.223-30.744,37.832-57.626a30.876,30.876,0,0,0,1.405-5,40.193,40.193,0,0,0-39.23-49Z"/></g></svg>