<svg xmlns="http://www.w3.org/2000/svg" width="95.58" height="95.58" viewBox="0 0 95.58 95.58"><defs><style>.a{fill:none;stroke:#00bedb;stroke-linecap:round;stroke-miterlimit:10;stroke-width:3px;}.b{fill:#183b8d;}</style></defs><g transform="translate(-746.667 -2895.622)"><circle class="a" cx="46.29" cy="46.29" r="46.29" transform="translate(748.167 2897.122)"/><g transform="translate(-2304.055)"><path class="b" d="M3099.6,2913.022a1.314,1.314,0,0,0-1.091-.55h0a1.307,1.307,0,0,0-1.087.55c-2.042,2.971-19.955,29.342-19.955,40.286a21.044,21.044,0,1,0,42.088,0C3119.557,2942.14,3100.418,2914.206,3099.6,2913.022Zm17.308,40.286a18.4,18.4,0,0,1-36.8,0c0-8.937,14.494-31.3,18.4-37.167C3102.419,2922.006,3116.911,2944.376,3116.911,2953.308Z"/><path class="b" d="M3088.683,2949.809h3.38v8.626h2.456v-8.626h3.366v-2.228h-9.2Z"/><path class="b" d="M3103.187,2958.632a13.965,13.965,0,0,0,3.4-.389l.353-.108v-6.23h-4.817v2.2h2.361v2.128a7.446,7.446,0,0,1-1.126.1c-1.947,0-2.682-.293-2.682-3.4,0-3.131.7-3.29,2.725-3.29a8.241,8.241,0,0,1,2.254.306l.512.193.634-2.282-.482-.132a12.854,12.854,0,0,0-3-.386c-3.689,0-5.194,1.616-5.194,5.577C3098.12,2956.976,3099.588,2958.632,3103.187,2958.632Z"/></g></g></svg>