<svg xmlns="http://www.w3.org/2000/svg" width="79.744" height="119.394" viewBox="0 0 79.744 119.394"><defs><style>.a{fill:#183b8d;}.b{fill:none;stroke:#183b8d;stroke-linecap:round;stroke-linejoin:round;stroke-width:4.5px;}</style></defs><g transform="translate(-413.514 -2294.042)"><path class="a" d="M445.1,2304.291a17.355,17.355,0,0,0-3.785.417l2.871-10.666h-7.151a5.3,5.3,0,0,0-5.116,3.9l-2.213,7.995a22.1,22.1,0,0,0,3.119-.29,17.165,17.165,0,0,1-9.154,2.63,17.362,17.362,0,0,1-2.127-.135,17.16,17.16,0,0,1-4.94-1.231l-3.093,11.172a17.313,17.313,0,0,0,12.425,1.546l-2.917,10.864h7.257a5.18,5.18,0,0,0,5-3.819l2.1-7.706a17.16,17.16,0,0,0-4.821,1.242,17.259,17.259,0,0,1,5.3-3.015v0c.069-.025.139-.045.208-.069.127-.043.254-.086.383-.126.1-.032.206-.061.309-.091.131-.039.262-.077.395-.112.1-.028.21-.053.315-.079.133-.032.265-.066.4-.095.109-.024.22-.045.331-.067.131-.026.261-.053.393-.077s.239-.038.358-.056.25-.04.376-.057.268-.03.4-.045c.115-.012.229-.027.344-.037.158-.013.317-.022.477-.032.093,0,.185-.014.279-.017q.381-.018.766-.018h.017q.447,0,.888.023c.09.005.18.015.271.021.208.014.416.027.623.049.1.01.2.026.3.038.194.024.389.047.581.077.1.015.2.035.3.053.192.033.383.066.573.106.1.02.189.044.284.066.191.043.382.086.57.136.092.024.182.052.273.077.189.054.378.107.564.167.089.028.175.059.263.089.186.062.372.126.556.195.086.032.171.068.257.1.181.072.362.144.54.221l.076.032,3.083-11.136A17.174,17.174,0,0,0,445.1,2304.291Z"/><path class="b" d="M442.311,2377.769v-46.211a5.78,5.78,0,0,1,5.78-5.781h.472a5.781,5.781,0,0,1,5.781,5.781v25.789a6.158,6.158,0,0,1,6.158-6.158h0a6.158,6.158,0,0,1,6.158,6.158v6.039a6.266,6.266,0,0,1,6.266-6.266h0a6.265,6.265,0,0,1,6.266,6.266v6.537a5.908,5.908,0,0,1,5.908-5.908h0a5.908,5.908,0,0,1,5.908,5.908v10.384a26.9,26.9,0,0,1-4.24,14.5l-3.137,4.9v11.477h-34.8v-7.021L438.98,2393.2a19.534,19.534,0,0,1-5-13.055v-7.9a8.334,8.334,0,0,1,8.334-8.334h0Z"/></g></svg>