<?xml version="1.0" encoding="UTF-8"?>
<svg width="56px" height="55px" viewBox="0 0 56 55" version="1.1" xmlns="http://www.w3.org/2000/svg" xmlns:xlink="http://www.w3.org/1999/xlink">
    <title>Group 5</title>
    <defs>
        <polygon id="path-1" points="0.0064453125 0 54.9986035 0 54.9986035 55 0.0064453125 55"></polygon>
    </defs>
    <g id="Page-1" stroke="none" stroke-width="1" fill="none" fill-rule="evenodd">
        <g id="Panvel-Clinic---Vacina-da-Gripe2" transform="translate(-832.000000, -982.000000)">
            <g id="Group-5" transform="translate(832.333333, 982.000000)">
                <mask id="mask-2" fill="white">
                    <use xlink:href="#path-1"></use>
                </mask>
                <g id="Clip-3"></g>
                <path d="M49.6769238,19.3367969 C49.3944043,19.3367969 49.1172559,19.4516309 48.9174512,19.651543 C48.7177539,19.8513477 48.6028125,20.1284961 48.6028125,20.4110156 C48.6028125,20.6935352 48.7176465,20.9706836 48.9174512,21.1703809 C49.1172559,21.3701855 49.3944043,21.4852344 49.6769238,21.4852344 C49.9605176,21.4852344 50.2365918,21.370293 50.4363965,21.1703809 C50.637168,20.9706836 50.7521094,20.6935352 50.7521094,20.4110156 C50.7521094,20.1284961 50.637168,19.8513477 50.4363965,19.651543 C50.2365918,19.4516309 49.9605176,19.3367969 49.6769238,19.3367969" id="Fill-2" fill="#FA9D1A" mask="url(#mask-2)"></path>
                <path d="M41.711709,30.4925586 C40.061709,30.4925586 38.7192578,29.1501074 38.7192578,27.5 C38.7192578,25.85 40.061709,24.5074414 41.711709,24.5074414 C43.3618164,24.5074414 44.7042676,25.85 44.7042676,27.5 C44.7042676,29.1501074 43.3619238,30.4925586 41.711709,30.4925586 Z M53.8502734,52.8516699 L46.184541,52.8516699 C46.392832,52.3926563 46.5098145,51.8837988 46.5098145,51.3477637 C46.5098145,50.8117285 46.392832,50.3028711 46.184541,49.8438574 L46.5217383,49.8438574 C48.5356836,49.8438574 50.1739746,48.2055664 50.1739746,46.1916211 C50.1739746,45.6042383 50.0337891,45.0491895 49.7862891,44.5569824 C51.3327344,44.1323438 52.4724805,42.7149121 52.4724805,41.0354785 C52.4724805,40.220791 52.2041406,39.4677637 51.7515723,38.8596484 L51.7515723,25.2448926 C51.7515723,24.651709 51.2705371,24.1706738 50.6773535,24.1706738 C50.0841699,24.1706738 49.6032422,24.651709 49.6032422,25.2448926 L49.6032422,37.4686426 C49.3508008,37.4133203 49.0890137,37.3832422 48.8202441,37.3832422 L48.7850098,37.3832422 C48.9933008,36.9242285 49.1102832,36.4153711 49.1102832,35.8793359 C49.1102832,33.865498 47.4718848,32.2270996 45.4580469,32.2270996 L43.7312402,32.2270996 C45.5647168,31.4408789 46.8525977,29.618252 46.8525977,27.5 C46.8525977,24.6652441 44.5464648,22.3591113 41.711709,22.3591113 C38.8770605,22.3591113 36.5709277,24.6653516 36.5709277,27.5 C36.5709277,29.618252 37.8587012,31.4408789 39.6922852,32.2270996 L33.8202832,32.2270996 L33.8202832,11.8016895 C35.7392676,11.3834961 37.2534863,9.86949219 37.6715723,7.95029297 L45.7519531,7.95029297 C46.1700391,9.86938477 47.6842578,11.3834961 49.6033496,11.8016895 L49.6033496,15.1414355 C49.6033496,15.7346191 50.0842773,16.2156543 50.6774609,16.2156543 C51.2706445,16.2156543 51.7516797,15.7346191 51.7516797,15.1414355 L51.7516797,10.842627 C51.7516797,10.2495508 51.2706445,9.76851562 50.6774609,9.76851562 C49.0826758,9.76851562 47.7852344,8.4709668 47.7852344,6.87607422 C47.7852344,6.28289063 47.3041992,5.80196289 46.7110156,5.80196289 L36.7127246,5.80196289 C36.119541,5.80196289 35.6385059,6.28289063 35.6385059,6.87607422 C35.6385059,8.4709668 34.3410645,9.76851562 32.7462793,9.76851562 C32.1530957,9.76851562 31.6720605,10.2495508 31.6720605,10.842627 L31.6720605,32.2269922 L29.5734668,32.2269922 L29.5734668,2.14961914 L53.8502734,2.1484375 L53.8502734,52.8516699 L53.8502734,52.8516699 Z M22.4971582,52.8516699 C21.7081445,52.8516699 20.9462012,52.5661426 20.3514063,52.0476172 L17.7572754,49.7850977 L17.7572754,34.9279004 L22.4470996,30.2380762 L23.297666,33.5660059 C23.4192676,34.0415625 23.8475586,34.3741406 24.3382617,34.3741406 L45.457832,34.3754297 C46.2871289,34.3754297 46.9617383,35.0500391 46.9617383,35.8793359 C46.9617383,36.7085254 46.2871289,37.3831348 45.457832,37.3831348 L34.6362598,37.3831348 C34.0430762,37.3831348 33.562041,37.8641699 33.562041,38.4573535 C33.562041,39.0505371 34.0430762,39.5315723 34.6362598,39.5315723 L48.8202441,39.5315723 C49.649541,39.5315723 50.324043,40.2061816 50.324043,41.0353711 C50.324043,41.864668 49.649541,42.5392773 48.8202441,42.5392773 L34.6362598,42.5392773 C34.0430762,42.5392773 33.562041,43.0203125 33.562041,43.6134961 C33.562041,44.2066797 34.0430762,44.6876074 34.6362598,44.6876074 L46.5217383,44.6876074 C47.3510352,44.6876074 48.0256445,45.3622168 48.0256445,46.1915137 C48.0256445,47.0208105 47.3510352,47.6954199 46.5217383,47.6954199 L34.6362598,47.6954199 C34.0430762,47.6954199 33.562041,48.1764551 33.562041,48.7695312 C33.562041,49.3627148 34.0430762,49.84375 34.6362598,49.84375 L42.8575781,49.84375 C43.686875,49.84375 44.3614844,50.5183594 44.3614844,51.3476562 C44.3614844,52.1769531 43.686875,52.8516699 42.8575781,52.8516699 L22.4971582,52.8516699 L22.4971582,52.8516699 Z M14.5347266,52.8516699 L4.22244141,52.8516699 C3.63011719,52.8516699 3.14833008,52.3697754 3.14833008,51.7774512 L3.14833008,34.2681152 C3.14833008,33.675791 3.63011719,33.1938965 4.22244141,33.1938965 L8.30436523,33.1938965 L8.30436523,45.5683594 C8.30436523,46.161543 8.78540039,46.6425781 9.37858398,46.6425781 C9.97176758,46.6425781 10.4528027,46.161543 10.4528027,45.5683594 L10.4528027,33.1938965 L14.5347266,33.1938965 C15.1270508,33.1938965 15.6089453,33.675791 15.6089453,34.2681152 L15.6089453,51.7774512 C15.6089453,52.369668 15.1270508,52.8516699 14.5347266,52.8516699 Z M27.4250293,6.37172852 L27.4250293,10.3522461 L26.7050879,10.5450684 C26.4297656,10.6188672 26.1952637,10.7987988 26.0528223,11.0455469 C25.9103809,11.2922949 25.871709,11.5854492 25.9455078,11.8606641 C26.3583301,13.4012012 25.4408398,14.990293 23.9004102,15.4031152 C23.624873,15.4770215 23.3899414,15.6572754 23.2476074,15.9045605 C23.1052734,16.1517383 23.0669238,16.4454297 23.1413672,16.7208594 L27.3285645,32.225918 L25.1726074,32.225918 L24.0616504,27.8791992 C24.0263086,27.7408398 23.9644336,27.6133301 23.8816113,27.5024707 L18.8362207,8.67313477 L27.4250293,6.37172852 Z M27.4250293,24.3428711 L25.4657617,17.0881348 C26.2841016,16.6655371 26.9539844,16.033252 27.4250293,15.2785059 L27.4250293,24.3428711 Z M55.6839648,0.314638672 C55.4824414,0.113222656 55.2091602,0 54.9241699,0 L28.4991406,0.00139648437 C27.905957,0.00139648437 27.4250293,0.482431641 27.4250293,1.07561523 L27.4250293,4.14755859 L17.2426172,6.8759668 C16.6695215,7.02958008 16.3294238,7.61857422 16.4830371,8.1915625 L21.7603516,27.8865039 L17.1950293,32.4518262 C16.6139844,31.6035156 15.6384863,31.0455664 14.534834,31.0455664 L4.22254883,31.0455664 C2.44568359,31.0455664 1,32.4911426 1,34.2681152 L1,51.7774512 C1,53.5543164 2.44568359,55 4.22254883,55 L14.534834,55 C16.0443262,55 17.314375,53.9562891 17.6624219,52.5529297 L18.939668,53.6666797 C19.9256934,54.5264844 21.1889746,55 22.4972656,55 L54.9243848,55 C55.5175684,55 55.9986035,54.5189648 55.9986035,53.9257812 L55.9986035,1.07421875 C55.9986035,0.789335938 55.8853809,0.516054687 55.6839648,0.314638672 L55.6839648,0.314638672 Z" id="Fill-4" fill="#FA9D1A" mask="url(#mask-2)"></path>
            </g>
        </g>
    </g>
</svg>