<?xml version="1.0" encoding="UTF-8"?>
<svg width="49px" height="49px" viewBox="0 0 49 49" version="1.1" xmlns="http://www.w3.org/2000/svg" xmlns:xlink="http://www.w3.org/1999/xlink">
    <title>Group 4</title>
    <defs>
        <polygon id="path-1" points="0.0607801398 0 34.9396507 0 34.9396507 48.9923437 0.0607801398 48.9923437"></polygon>
    </defs>
    <g id="Page-1" stroke="none" stroke-width="1" fill="none" fill-rule="evenodd">
        <g id="Panvel-Clinic---Vacina-da-Gripe2" transform="translate(-1075.000000, -985.000000)">
            <g id="Group-12" transform="translate(201.000000, 985.000000)">
                <g id="Group-6" transform="translate(773.000000, 0.000000)">
                    <g id="Group-4" transform="translate(101.000000, 0.000000)">
                        <g id="Group-3" transform="translate(7.000000, 0.000000)">
                            <mask id="mask-2" fill="white">
                                <use xlink:href="#path-1"></use>
                            </mask>
                            <g id="Clip-2"></g>
                            <path d="M17.3718382,0.000510416667 C7.85479779,0.0687786458 0.0889154412,7.80273958 0.0607801398,17.2414922 C0.0522426471,19.9860026 0.70875,22.7200495 1.95935662,25.1484844 C3.16814338,27.495763 4.935,29.572776 7.06922794,31.1543021 C9.30086397,32.8081797 10.2337684,33.8509609 10.2337684,36.0301849 L10.2337684,43.2353542 L13.1400551,43.2353542 L13.1400551,49 L21.8599449,49 L21.8599449,43.2353542 L24.7662316,43.2353542 C24.7662316,41.7613984 24.7662316,37.483724 24.7662316,36.0292917 C24.7662316,33.8370521 25.6854963,32.8072865 27.8845772,31.1882448 C30.0248529,29.613099 31.7996875,27.5405521 33.0160662,25.1958255 C34.274136,22.7708359 34.9396507,20.0388307 34.9396507,17.2938099 C34.9396507,12.6513151 33.109614,8.29222917 29.7865441,5.02096875 C26.4641176,1.75009115 22.0545037,-0.0378984375 17.3718382,0.000510416667 Z M16.0468566,46.1174219 L18.9531434,46.1174219 L18.9531434,43.2353542 L16.0468566,43.2353542 L16.0468566,46.1174219 Z M13.1400551,40.352776 L21.8599449,40.352776 L21.8599449,37.6118385 L13.1400551,37.6118385 L13.1400551,40.352776 Z M16.0468566,15.852776 C16.0468566,15.0583125 16.6987316,14.4117422 17.5,14.4117422 C18.3012684,14.4117422 18.9531434,15.0583125 18.9531434,15.852776 C18.9531434,16.6478776 18.3012684,17.2943203 17.5,17.2943203 C16.6987316,17.2943203 16.0468566,16.6478776 16.0468566,15.852776 Z M26.1524632,28.873888 C24.1730331,30.330362 22.3715625,31.8905781 21.9519485,34.7297708 L18.9531434,34.7297708 L18.9531434,19.9287083 C20.6449816,19.3335625 21.8599449,17.7320026 21.8599449,15.852776 C21.8599449,13.4692578 19.9041912,11.5292917 17.5,11.5292917 C15.0958088,11.5292917 13.1400551,13.4692578 13.1400551,15.852776 C13.1400551,17.7320026 14.3554044,19.3335625 16.0468566,19.9287083 L16.0468566,34.7297708 L13.0501103,34.7297708 C12.6398897,31.9130365 10.880239,30.3807656 8.80931985,28.8455599 C5.08272059,26.0835677 2.95351103,21.8571901 2.9670856,17.2500417 C2.99069853,9.38439323 9.46222426,2.93936198 17.3929412,2.88308854 C21.2949265,2.85361198 24.9703125,4.34109375 27.7387868,7.06659115 C30.5079044,9.79259896 32.0328493,13.4248516 32.0328493,17.2943203 C32.0328493,21.9026172 29.889614,26.1235078 26.1524632,28.873888 Z" id="Fill-1" fill="#FA9D1A" mask="url(#mask-2)"></path>
                        </g>
                        <polygon id="Fill-4" fill="#FA9D1A" points="44 19 49 19 49 16 44 16"></polygon>
                        <polygon id="Fill-5" fill="#FA9D1A" points="0 19 5 19 5 16 0 16"></polygon>
                        <polygon id="Fill-6" fill="#FA9D1A" points="43 4.00012523 47 0 49 1.99974953 45 6"></polygon>
                        <polygon id="Fill-7" fill="#FA9D1A" points="0 1.99983302 2.00025047 0 6 4.00016698 4.00012523 6"></polygon>
                        <polygon id="Fill-8" fill="#FA9D1A" points="43 29.9997495 44.9998748 28 49 31.9996243 46.9996243 34"></polygon>
                        <polygon id="Fill-9" fill="#FA9D1A" points="0 32 4.0000835 28 6 30 2.00004175 34"></polygon>
                    </g>
                </g>
            </g>
        </g>
    </g>
</svg>