<?xml version="1.0" encoding="UTF-8"?>
<svg width="47px" height="47px" viewBox="0 0 47 47" version="1.1" xmlns="http://www.w3.org/2000/svg" xmlns:xlink="http://www.w3.org/1999/xlink">
    <title>Shape</title>
    <g id="Page-1" stroke="none" stroke-width="1" fill="none" fill-rule="evenodd">
        <g id="Panvel-Clinic---Vacina-da-Gripe2" transform="translate(-303.000000, -987.000000)" fill="#FA9D1A" fill-rule="nonzero">
            <g id="Group-12" transform="translate(201.000000, 985.000000)">
                <g id="Group-8" transform="translate(0.000000, 2.000000)">
                    <path d="M148.58633,9.0330132 L139.970867,0.418074552 C139.413211,-0.139358184 138.50918,-0.139358184 137.951713,0.418074552 C137.394057,0.975887269 137.394057,1.87967307 137.951713,2.43729579 L139.095907,3.58141983 L135.730587,6.94653525 L133.50946,4.72554387 C132.951804,4.16811114 132.047773,4.16811114 131.490306,4.72554387 L109.95203,26.2627005 C109.684127,26.5305874 109.533835,26.8934696 109.533835,27.2723111 L109.533835,33.141884 L105.644299,37.0311838 C105.094432,37.5812069 105.094432,38.5005719 105.644299,39.050405 L106.788492,40.1945291 L102.4135,44.5690651 C101.893654,45.0888797 101.859074,45.9474477 102.337499,46.5064004 C102.871406,47.1297599 103.852007,47.168898 104.432654,46.5884764 L108.807646,42.2137503 L109.95203,43.3578744 C110.502276,43.9078975 111.421127,43.9078975 111.971184,43.3578744 L115.86072,39.4685746 L121.73065,39.4685746 C122.109325,39.4685746 122.472609,39.318102 122.740132,39.050595 L144.278409,17.5134384 C144.836065,16.9556257 144.836065,16.0518399 144.278409,15.4942172 L142.057282,13.2732258 L145.422602,9.9081104 L146.567366,11.0524244 C147.148013,11.632846 148.128614,11.5940879 148.662521,10.9703484 C149.140946,10.4113958 149.106366,9.55282777 148.58633,9.0330132 Z M110.961702,40.3292325 L108.673315,38.0409844 L110.961702,35.7525463 L113.250279,38.0409844 L110.961702,40.3292325 Z M121.139363,36.6132043 L115.86091,36.6132043 L112.389569,33.141884 L112.389569,27.8635622 L114.1925,26.0607404 L117.49075,29.3587891 C118.071397,29.9392107 119.051998,29.9004526 119.585905,29.2767131 C120.06452,28.7177604 120.02994,27.8591924 119.509904,27.3393778 L116.211844,24.0415191 L120.654097,19.5995364 L123.952347,22.8973951 C124.532993,23.4778167 125.513595,23.4390586 126.047502,22.8153191 C126.526117,22.2563664 126.491537,21.3977984 125.971501,20.8779839 L122.673441,17.5801252 L127.115694,13.1381424 L130.413753,16.4361911 C130.9944,17.0166127 131.975002,16.9778546 132.508908,16.3541151 C132.987524,15.7951625 132.952944,14.9365945 132.432908,14.4167799 L129.134848,11.1189212 L132.500358,7.75361577 L141.250342,16.5030678 L121.139363,36.6132043 Z M140.038508,11.2540046 L137.749931,8.96575649 L141.115251,5.60064107 L143.403828,7.88907915 L140.038508,11.2540046 Z" id="Shape"></path>
                </g>
            </g>
        </g>
    </g>
</svg>