<?xml version="1.0" encoding="UTF-8"?>
<svg width="55px" height="47px" viewBox="0 0 55 47" version="1.1" xmlns="http://www.w3.org/2000/svg" xmlns:xlink="http://www.w3.org/1999/xlink">
    <title>shop</title>
    <g id="Page-1" stroke="none" stroke-width="1" fill="none" fill-rule="evenodd">
        <g id="Panvel-Clinic---Vacina-da-Gripe2" transform="translate(-685.000000, -987.000000)" fill="#FA9D1A" fill-rule="nonzero">
            <g id="Group-5" transform="translate(587.000000, 987.000000)">
                <g id="shop" transform="translate(98.000000, 0.000000)">
                    <path d="M54.9194336,14.2065055 L54.8824805,13.9999428 C54.8758203,13.9680234 54.8723828,13.936104 54.8657227,13.9050444 L51.0086328,4.58511159 L51.0086328,0 L3.92755859,0 L3.92755859,4.58521906 L0.134277344,13.9042921 C0.125898437,13.9412627 0.120849609,13.9782333 0.114082031,14.0142367 L0.0788476562,14.2065055 C0.0268554688,14.5398861 0,14.8816496 0,15.2300764 C0,17.7221554 1.38982422,19.8883769 3.4375,20.9957765 L3.4375,47 L51.5625,47 L51.5625,20.9957765 C53.6085645,19.8882695 55,17.7220479 55,15.2300764 C55,14.8816496 54.9714258,14.5398861 54.9194336,14.2065055 Z M52.3295996,13.756517 L43.9104102,13.756517 L42.8982812,6.94962042 L49.5584375,6.94962042 L52.3295996,13.756517 Z M6.22037109,2.29217964 L48.7174316,2.29217964 L48.7174316,4.58521906 L6.22037109,4.58521906 L6.22037109,2.29217964 Z M41.9348145,16.0486966 L42.0589941,16.8807509 L41.3809473,17.7833074 C40.568623,18.8664182 39.3265039,19.4877184 37.9753516,19.4877184 C36.6241992,19.4877184 35.3820801,18.8664182 34.5697559,17.7833074 L33.8781738,16.8614058 L33.8378906,16.0486966 L41.9348145,16.0486966 Z M33.7254199,13.756517 L33.3914453,6.94962042 L40.580332,6.94962042 L41.5941797,13.756517 L33.7254199,13.756517 Z M31.5434668,16.0485891 L31.5434668,16.0485891 L31.58375,16.8798912 L30.9039844,17.7833074 C30.0916602,18.8664182 28.849541,19.4877184 27.5,19.4877184 C26.1471289,19.4877184 24.9067285,18.8664182 24.0926855,17.7833074 L23.3977734,16.8554948 L23.4380566,16.0485891 L31.5434668,16.0485891 Z M23.5539648,13.756517 L23.8980371,6.94962042 L31.0986328,6.94962042 L31.4309961,13.756517 L23.5539648,13.756517 Z M13.4176367,13.756517 L14.4179492,6.94962042 L21.6051172,6.94962042 L21.2593262,13.756517 L13.4176367,13.756517 Z M21.1419141,16.0486966 L21.0999121,16.8891338 L20.4285254,17.7833074 C19.6144824,18.8664182 18.374082,19.4877184 17.0229297,19.4877184 C15.6717773,19.4877184 14.431377,18.8664182 13.617334,17.7833074 L12.9560449,16.9025679 L13.0819434,16.0486966 L21.1419141,16.0486966 Z M5.43995117,6.94962042 L12.1018262,6.94962042 L11.1015137,13.756517 L2.66889648,13.756517 L5.43995117,6.94962042 Z M2.36994141,16.0486966 L10.7656055,16.0486966 L10.5859961,16.9395386 L9.95317383,17.7834149 C9.13913086,18.8665257 7.89873047,19.4878258 6.54585937,19.4878258 C4.47981445,19.4878258 2.75268555,18.0067433 2.36994141,16.0486966 Z M44.6875,44.7095399 L35.5196875,44.7095399 L35.5196875,36.6826123 L36.6660938,36.6826123 C37.298916,36.6826123 37.8125,36.170397 37.8125,35.5373822 C37.8125,34.9043675 37.298916,34.3921522 36.6660938,34.3921522 L35.5196875,34.3921522 L35.5196875,26.3652245 L44.6875,26.3652245 L44.6875,44.7095399 Z M49.2699023,44.7095399 L49.2699023,44.7095399 L46.9785938,44.7095399 L46.9785938,24.0747645 L33.2285938,24.0747645 L33.2285938,44.7095399 L5.72859375,44.7095399 L5.72859375,21.7297082 C5.99542969,21.7632397 6.27075195,21.7809727 6.5459668,21.7809727 C8.68774414,21.7809727 10.5910449,20.7515984 11.784502,19.1604637 C12.9795703,20.7515984 14.8812598,21.7809727 17.0230371,21.7809727 C19.1648145,21.7809727 21.0665039,20.7515984 22.2615723,19.1604637 C23.4549219,20.7515984 25.3583301,21.7809727 27.5001074,21.7809727 C29.6418848,21.7809727 31.5418555,20.7515984 32.7369238,19.1604637 C33.9319922,20.7515984 35.8336816,21.7809727 37.975459,21.7809727 C40.1172363,21.7809727 42.0189258,20.7515984 43.2139941,19.1604637 C44.4090625,20.7515984 46.3090332,21.7809727 48.4508105,21.7809727 C48.7294629,21.7809727 49.0013477,21.7633472 49.2699023,21.7297082 L49.2699023,44.7095399 Z M48.4505957,19.4878258 C47.1011621,19.4878258 45.859043,18.8665257 45.0466113,17.7834149 L44.3802734,16.8984839 L44.2510449,16.0488041 L52.6266211,16.0488041 C52.2439844,18.0067433 50.5184668,19.4878258 48.4505957,19.4878258 Z" id="Shape"></path>
                    <path d="M9,24 L9,40 L32,40 L32,24 L9,24 Z M29.6989651,37.7162452 L11.3010349,37.7162452 L11.3010349,26.2837548 L29.6989651,26.2837548 L29.6989651,37.7162452 Z" id="Shape"></path>
                    <path d="M26.7509377,32 C26.4047965,32 26.0915932,32.1392536 25.8663025,32.3663025 L23.3663025,34.868178 C23.1391363,35.0934687 23,35.406672 23,35.7509377 C23,36.4414619 23.5604135,37 24.2490623,37 C24.5952035,37 24.9084068,36.8607464 25.1336975,36.6336975 L27.6336975,34.135573 C27.8608637,33.9084068 28,33.5953207 28,33.2491795 C28,32.5604135 27.4414619,32 26.7509377,32 Z" id="Path"></path>
                    <path d="M26.8760548,27 C26.5645861,27 26.282756,27.1253282 26.0800323,27.3296723 L19.3296104,34.0796723 C19.1268868,34.2824339 19,34.5658993 19,34.875844 C19,35.4973157 19.5042776,36 20.1256329,36 C20.4355194,36 20.717244,35.8746718 20.9199677,35.6703277 L27.6703896,28.9203277 C27.8748008,28.7175661 28,28.4341007 28,28.124156 C28,27.5026843 27.49741,27 26.8760548,27 Z" id="Path"></path>
                </g>
            </g>
        </g>
    </g>
</svg>