<svg xmlns="http://www.w3.org/2000/svg" width="153.833" height="90.817" viewBox="0 0 153.833 90.817"><defs><style>.a{fill:#21b8dd;}.b,.c{fill:#fff;font-family:Foco-BoldItalic, Foco;font-weight:700;font-style:italic;letter-spacing:-0.008em;}.b{font-size:28px;}.c{font-size:9px;}</style></defs><g transform="translate(-362 -206.887)"><g transform="translate(361.999 206.887)"><path class="a" d="M-363.928-256.371a48.847,48.847,0,0,0-6.573.6l4.78-18.225h-12.25a8.712,8.712,0,0,0-8.664,6.573l-3.872,13.743a23.121,23.121,0,0,0,5.377-.6,27.816,27.816,0,0,1-15.537,4.482,14.544,14.544,0,0,1-3.586-.3,26.489,26.489,0,0,1-8.366-2.091L-418-233.069a28.072,28.072,0,0,0,14.036,3.586,29.489,29.489,0,0,0,7.171-.9l-5.082,18.525h12.548a9.237,9.237,0,0,0,8.664-6.573l3.586-13.146a26.49,26.49,0,0,0-8.366,2.091,33.125,33.125,0,0,1,8.954-5.082h.3c.3,0,.3,0,.6-.3.3,0,.3,0,.6-.3.3,0,.6,0,.6-.3h.6c.3,0,.6,0,.6-.3h11.652a1.1,1.1,0,0,1,.9.3h.6c.3,0,.6.3.9.3h.6c.3,0,.6.3.9.3s.3,0,.6.3c.3,0,.6.3.9.3a.293.293,0,0,1,.214.085.292.292,0,0,1,.087.213c.3,0,.6.3.9.3h0l5.377-19.118a31.817,31.817,0,0,0-14.341-3.586" transform="translate(417.996 274.001)"/><text class="b" transform="translate(77.833 28.609)"><tspan x="0" y="0">Panvel</tspan><tspan x="0" y="28">Clinic</tspan></text></g><text class="c" transform="translate(441.447 284.704)"><tspan x="0" y="0">Tudo para cuidar</tspan><tspan x="0" y="11">da sua saúde.</tspan></text></g></svg>