<svg xmlns="http://www.w3.org/2000/svg" width="72.684" height="72.684" viewBox="0 0 72.684 72.684"><defs><style>.a{fill:#21b8dd;}</style></defs><g transform="translate(-497 -198)"><path class="a" d="M584.444,307.791h-3.517v-3.517a5.868,5.868,0,0,0-5.862-5.862H569.2V294.9a1.173,1.173,0,0,0-1.172-1.172h-9.379v-2.511a4.689,4.689,0,1,0-2.345,0v2.511h-9.378a1.173,1.173,0,0,0-1.172,1.172v3.517H539.9a5.868,5.868,0,0,0-5.862,5.862v3.517h-3.517A3.521,3.521,0,0,0,527,311.308v14.068a3.521,3.521,0,0,0,3.517,3.517h3.517v3.517a5.868,5.868,0,0,0,5.862,5.862h35.169a5.868,5.868,0,0,0,5.862-5.862v-3.517h3.517a3.521,3.521,0,0,0,3.517-3.517V311.308a3.521,3.521,0,0,0-3.517-3.517Zm-29.308-21.1a2.345,2.345,0,1,1,2.345,2.345,2.347,2.347,0,0,1-2.345-2.345Zm-24.619,39.859a1.175,1.175,0,0,1-1.172-1.172V311.308a1.175,1.175,0,0,1,1.172-1.172h3.517v16.412Zm17.585-30.48h18.757v2.345H548.1Zm30.48,36.342a3.521,3.521,0,0,1-3.517,3.517H539.9a3.521,3.521,0,0,1-3.517-3.517V304.274a3.521,3.521,0,0,1,3.517-3.517h35.169a3.521,3.521,0,0,1,3.517,3.517Zm7.034-7.034a1.175,1.175,0,0,1-1.172,1.172h-3.517V310.136h3.517a1.174,1.174,0,0,1,1.172,1.172Zm0,0" transform="translate(-24.138 -67.588)"/><path class="a" d="M645.274,474h-21.1A1.173,1.173,0,0,0,623,475.172v1.172a11.723,11.723,0,1,0,23.446,0v-1.172A1.173,1.173,0,0,0,645.274,474Zm-10.551,11.723a9.39,9.39,0,0,1-9.379-9.379H644.1a9.39,9.39,0,0,1-9.378,9.379Zm0,0" transform="translate(-101.381 -222.073)"/><path class="a" d="M608.379,418.689a4.689,4.689,0,1,0-4.689,4.689,4.694,4.694,0,0,0,4.689-4.689Zm-7.034,0a2.345,2.345,0,1,1,2.345,2.345,2.347,2.347,0,0,1-2.345-2.345Zm0,0" transform="translate(-82.071 -173.797)"/><path class="a" d="M723.689,414a4.689,4.689,0,1,0,4.689,4.689A4.694,4.694,0,0,0,723.689,414Zm0,7.034a2.345,2.345,0,1,1,2.345-2.345,2.347,2.347,0,0,1-2.345,2.345Zm0,0" transform="translate(-178.624 -173.797)"/><path class="a" d="M514.928,223.447a1.172,1.172,0,0,0,2-.829V219.1h7.034a3.521,3.521,0,0,0,3.517-3.517V201.517A3.521,3.521,0,0,0,523.963,198H500.517A3.521,3.521,0,0,0,497,201.517v14.068a3.521,3.521,0,0,0,3.517,3.517h10.066Zm-15.584-7.863V201.517a1.175,1.175,0,0,1,1.172-1.172h23.446a1.174,1.174,0,0,1,1.172,1.172v14.068a1.175,1.175,0,0,1-1.172,1.172h-8.206a1.173,1.173,0,0,0-1.172,1.172v1.859L511.9,217.1a1.171,1.171,0,0,0-.829-.343H500.517a1.174,1.174,0,0,1-1.172-1.172Zm0,0"/><path class="a" d="M739.963,222H716.517A3.521,3.521,0,0,0,713,225.517v14.068a3.521,3.521,0,0,0,3.517,3.517h7.034v3.517a1.172,1.172,0,0,0,2,.829L729.9,243.1h10.066a3.521,3.521,0,0,0,3.517-3.517V225.517A3.521,3.521,0,0,0,739.963,222Zm1.172,17.585a1.175,1.175,0,0,1-1.172,1.172H729.412a1.168,1.168,0,0,0-.829.343l-2.688,2.688v-1.859a1.173,1.173,0,0,0-1.172-1.172h-8.206a1.175,1.175,0,0,1-1.172-1.172V225.517a1.174,1.174,0,0,1,1.172-1.172h23.446a1.175,1.175,0,0,1,1.172,1.172Zm0,0" transform="translate(-173.797 -19.311)"/><rect class="a" width="21" height="2" transform="translate(502 202.684)"/><rect class="a" width="21" height="1" transform="translate(502 212.684)"/><rect class="a" width="16" height="2" transform="translate(504 207.684)"/><rect class="a" width="21" height="2" transform="translate(544 207.684)"/><rect class="a" width="21" height="2" transform="translate(544 216.684)"/><rect class="a" width="17" height="1" transform="translate(546 212.684)"/></g></svg>