<svg xmlns="http://www.w3.org/2000/svg" width="147.652" height="61.7" viewBox="0 0 147.652 61.7"><defs><style>.a{fill:#21b8dd;}.b{fill:#fff;font-size:25px;font-family:Foco-BoldItalic, Foco;font-weight:700;font-style:italic;letter-spacing:-0.008em;}</style></defs><g transform="translate(-362 -206.887)"><g transform="translate(361.999 206.887)"><path class="a" d="M-368.111-256.5a41.968,41.968,0,0,0-6.064.593l4.41-18.094h-11.3a8.153,8.153,0,0,0-7.993,6.525l-3.573,13.644a19.892,19.892,0,0,0,4.961-.593,24.353,24.353,0,0,1-14.335,4.449,12.5,12.5,0,0,1-3.309-.3,23.051,23.051,0,0,1-7.719-2.076L-418-233.365a24.476,24.476,0,0,0,12.95,3.561,25.391,25.391,0,0,0,6.616-.889l-4.689,18.392h11.577a8.641,8.641,0,0,0,7.993-6.525l3.309-13.051a23.052,23.052,0,0,0-7.719,2.076,30.07,30.07,0,0,1,8.261-5.045h.277c.275,0,.275,0,.552-.3.277,0,.277,0,.551-.3.275,0,.552,0,.552-.3h.551c.275,0,.552,0,.552-.3h10.751a.97.97,0,0,1,.826.3h.552c.275,0,.551.3.826.3h.552c.277,0,.551.3.826.3s.275,0,.551.3c.277,0,.552.3.826.3a.26.26,0,0,1,.2.084.3.3,0,0,1,.08.211c.275,0,.551.3.826.3h0l4.961-18.98a27.713,27.713,0,0,0-13.231-3.56" transform="translate(417.996 274.001)"/><text class="b" transform="translate(79.652 25.329)"><tspan x="0" y="0">Panvel</tspan><tspan x="0" y="25">Clinic</tspan></text></g></g></svg>