<svg width="12" height="10" viewBox="0 0 12 10" fill="none" xmlns="http://www.w3.org/2000/svg">
<path fill-rule="evenodd" clip-rule="evenodd" d="M1.33317 5.66671H9.24317L6.82117 8.57337C6.58517 8.85604 6.62384 9.27671 6.9065 9.51204C7.18984 9.74804 7.60984 9.70938 7.84584 9.42671L11.1792 5.42671C11.2052 5.39537 11.2178 5.35871 11.2372 5.32404C11.2532 5.29604 11.2725 5.27204 11.2845 5.24137C11.3145 5.16471 11.3325 5.08404 11.3325 5.00271C11.3325 5.00204 11.3332 5.00071 11.3332 5.00004C11.3332 4.99937 11.3325 4.99804 11.3325 4.99737C11.3325 4.91604 11.3145 4.83537 11.2845 4.75871C11.2725 4.72804 11.2532 4.70404 11.2372 4.67604C11.2178 4.64137 11.2052 4.60471 11.1792 4.57337L7.84584 0.573374C7.71317 0.415374 7.52384 0.333374 7.33317 0.333374C7.1825 0.333374 7.03117 0.384041 6.9065 0.488041C6.62384 0.723374 6.58517 1.14404 6.82117 1.42671L9.24317 4.33337H1.33317C0.965171 4.33337 0.666504 4.63204 0.666504 5.00004C0.666504 5.36804 0.965171 5.66671 1.33317 5.66671Z" fill="white"/>
</svg>
