<svg xmlns="http://www.w3.org/2000/svg" width="27.269" height="42.479" viewBox="0 0 27.269 42.479"><defs><style>.a{fill:#fa9d1a;}</style></defs><g transform="translate(118.935) rotate(90)"><rect class="a" width="2.489" height="3.933" transform="translate(27.96 103.334)"/><rect class="a" width="2.489" height="3.933" transform="translate(27.96 109.968)"/><g transform="translate(0 91.666)"><path class="a" d="M41.147,98.58l1.332.035V91.666H0v27.269H42.479v-6.949l-1.277.034-.053,0a1.853,1.853,0,0,1,0-3.706l1.332.035v-6.1l-1.277.034-.05,0a1.853,1.853,0,0,1,0-3.706Zm-1.157,7.4a4.343,4.343,0,0,0,0,8.368v2.094H2.489V94.155h37.5v2.094a4.343,4.343,0,0,0,0,8.368Z" transform="translate(0 -91.666)"/><rect class="a" width="2.489" height="3.933" transform="translate(27.96 5.033)"/><rect class="a" width="3.376" height="17.442" transform="translate(20.255 5.064)"/><rect class="a" width="3.376" height="17.442" transform="translate(14.066 5.064)"/><rect class="a" width="3.376" height="17.442" transform="translate(6.752 5.064)"/></g></g></svg>