<svg xmlns="http://www.w3.org/2000/svg" width="48.876" height="36.758" viewBox="0 0 48.876 36.758"><defs><style>.a{fill:#fa9d1a;}</style></defs><g transform="translate(0 -60.15)"><g transform="translate(0 60.15)"><g transform="translate(14.548 11.738)"><path class="a" d="M174.286,176.681H148.9a4.488,4.488,0,0,0-4.472,4.472v16.076A4.488,4.488,0,0,0,148.9,201.7h25.383a4.488,4.488,0,0,0,4.472-4.472V181.153A4.475,4.475,0,0,0,174.286,176.681Zm2.065,20.609a1.627,1.627,0,0,1-1.622,1.622H148.853a1.627,1.627,0,0,1-1.622-1.622V185.978h29.12Zm0-15.572h-29.12V181.1a1.627,1.627,0,0,1,1.622-1.622H174.73a1.627,1.627,0,0,1,1.622,1.622Z" transform="translate(-144.431 -176.681)"/></g><g transform="translate(0 0)"><path class="a" d="M18.7,69.128H34.442l-3.2-6.487a4.481,4.481,0,0,0-6-2.025L2.491,71.858a4.481,4.481,0,0,0-2.025,6L7.6,92.275a4.482,4.482,0,0,0,5.187,2.337,6.734,6.734,0,0,1-.947-3.455V76A6.876,6.876,0,0,1,18.7,69.128Z" transform="translate(0 -60.15)"/></g><g transform="translate(19.03 26.424)"><path class="a" d="M191.832,328.283a2.864,2.864,0,0,0,2.2-1.017,2.9,2.9,0,1,0,0-3.767,2.9,2.9,0,1,0-2.2,4.784Z" transform="translate(-188.931 -322.481)"/></g></g></g></svg>