<svg xmlns="http://www.w3.org/2000/svg" width="44.242" height="36.76" viewBox="0 0 44.242 36.76"><defs><style>.a{fill:#fa9d1a;}</style></defs><g transform="translate(0 -43.296)"><path class="a" d="M219.821,121.744h2.593v2.592h-2.593Z" transform="translate(-200.826 -71.669)"/><path class="a" d="M282.178,121.744h2.592v2.592h-2.592Z" transform="translate(-257.795 -71.669)"/><path class="a" d="M33.746,53.05A8.2,8.2,0,0,0,25.7,43.3H20.274a8.2,8.2,0,0,0-8.05,9.754H0V80.056H44.242V53.05ZM20.274,45.888H25.7a5.606,5.606,0,1,1,0,11.212H24.088v2.056L21.549,57.1H20.274a5.606,5.606,0,1,1,0-11.212Zm-7.069,9.754a8.2,8.2,0,0,0,7.069,4.05h.357l6.049,4.9V59.634a8.212,8.212,0,0,0,6.084-3.992H41.52a6.417,6.417,0,0,1-2.982,4.215L22.121,69.842,5.7,59.857a6.417,6.417,0,0,1-2.982-4.215H13.205Zm8.916,17.234,6.323-3.846,10.75,8.433H4.983l10.642-8.538ZM4.357,62.072l8.912,5.42L2.592,76.058V60.679a9.207,9.207,0,0,0,1.764,1.393ZM41.65,76.1l-10.84-8.5,9.075-5.52a9.208,9.208,0,0,0,1.764-1.393Z"/></g></svg>