<svg xmlns="http://www.w3.org/2000/svg" width="36.679" height="29.802" viewBox="0 0 36.679 29.802"><defs><style>.a{fill:#fa9d1a;}</style></defs><g transform="translate(0 -48.003)"><g transform="translate(0 48.003)"><g transform="translate(0 0)"><path class="a" d="M36.473,56.508l-5.731-8.023A1.2,1.2,0,0,0,29.8,48H6.878a1.2,1.2,0,0,0-.94.481L.207,56.508,0,57.127a4.594,4.594,0,0,0,4.585,4.631A4.545,4.545,0,0,0,8.024,60.2a4.572,4.572,0,0,0,6.877,0,4.572,4.572,0,0,0,6.877,0,4.572,4.572,0,0,0,6.877,0,4.545,4.545,0,0,0,3.439,1.559,4.594,4.594,0,0,0,4.585-4.631Z" transform="translate(0 -48.003)"/></g></g><g transform="translate(2.293 63.124)"><path class="a" d="M61.8,260a6.859,6.859,0,0,1-3.439-.926,7.025,7.025,0,0,1-6.877,0,7.025,7.025,0,0,1-6.877,0,7.025,7.025,0,0,1-6.877,0,6.97,6.97,0,0,1-5.731.479v11.909a2.293,2.293,0,0,0,2.292,2.292H52.635V262.294h6.877v11.462H61.8a2.293,2.293,0,0,0,2.292-2.292V259.582A6.835,6.835,0,0,1,61.8,260Zm-16.047,9.17h-9.17v-6.877h9.17Z" transform="translate(-32.003 -259.075)"/></g></g></svg>