<svg xmlns="http://www.w3.org/2000/svg" width="280.156" height="117.786" viewBox="0 0 280.156 117.786"><defs><style>.a{fill:#21b8dd;}.b{fill:#003986;font-size:53px;font-family:Foco-BoldItalic, Foco;font-weight:700;font-style:italic;letter-spacing:-0.008em;}</style></defs><g transform="translate(-5724.734 162.681)"><path class="a" d="M-322.718-242.934a86.085,86.085,0,0,0-11.582,1.053L-325.878-274h-21.587a15.352,15.352,0,0,0-15.267,11.582l-6.823,24.218a40.741,40.741,0,0,0,9.476-1.053,49.016,49.016,0,0,1-27.378,7.9,25.63,25.63,0,0,1-6.32-.524,46.679,46.679,0,0,1-14.743-3.685L-418-201.871a49.468,49.468,0,0,0,24.734,6.32,51.965,51.965,0,0,0,12.636-1.578l-8.955,32.645h22.111A16.278,16.278,0,0,0-352.2-176.067l6.32-23.165a46.682,46.682,0,0,0-14.742,3.685,58.375,58.375,0,0,1,15.779-8.956h.529c.525,0,.525,0,1.053-.529.529,0,.529,0,1.053-.525.524,0,1.053,0,1.053-.524h1.053c.525,0,1.053,0,1.053-.525h20.534a1.936,1.936,0,0,1,1.578.525h1.053c.524,0,1.053.524,1.578.524h1.053c.529,0,1.053.525,1.578.525s.524,0,1.053.529c.529,0,1.053.524,1.578.524a.516.516,0,0,1,.376.15.516.516,0,0,1,.152.375c.524,0,1.053.529,1.578.529h0l9.476-33.69a56.068,56.068,0,0,0-25.271-6.32" transform="translate(6142.73 111.32)"/><text class="b" transform="translate(5861.89 -109.895)"><tspan x="0" y="0">Panvel</tspan><tspan x="0" y="53">Clinic</tspan></text></g></svg>