<svg xmlns="http://www.w3.org/2000/svg" width="129" height="45" viewBox="0 0 129 45"><defs><style>.a{fill:#fff;}.b{fill:#003986;}</style></defs><g transform="translate(-619 -1221)"><rect class="a" width="129" height="45" rx="22.5" transform="translate(619 1221)"/><path class="b" d="M40.416,5.179a4.84,4.84,0,0,0-4.149-1.85,10.526,10.526,0,0,0-3.329.547,3.136,3.136,0,0,1-2.477-.257l-2.8,10.775H31.8s1.271-5.05,1.464-5.742a2.22,2.22,0,0,1,2.284-1.978c.9,0,1.737.386,1.351,1.833-.1.354-1.56,5.886-1.56,5.886h4.1L40.9,8.862a5.51,5.51,0,0,0,.193-2.01A3.422,3.422,0,0,0,40.416,5.179ZM22.773,3.329a19.1,19.1,0,0,0-4.133.5c-.016.064-.675,2.348-.675,2.348s4.069-1,5.323,0c.563.434.37.965.209,1.48a9.09,9.09,0,0,0-1-.209,9.846,9.846,0,0,0-1.64-.113,10.068,10.068,0,0,0-2.107.209,7.479,7.479,0,0,0-1.785.643A4.527,4.527,0,0,0,15.584,9.3a3.433,3.433,0,0,0-.756,1.657,2.871,2.871,0,0,0,.933,2.493,5.836,5.836,0,0,0,3.956,1.238,9.625,9.625,0,0,0,3.12-.5,2.98,2.98,0,0,1,2.863.209l1.64-6.337a3.571,3.571,0,0,0-.5-3.426C26.118,3.812,24.751,3.377,22.773,3.329Zm-2.638,8.8c-.45,0-1.769-.289-1.544-1.287a1.406,1.406,0,0,1,.82-.9,4.8,4.8,0,0,1,2.911-.177A4.95,4.95,0,0,1,23,9.955,2.751,2.751,0,0,1,20.136,12.126ZM66.068,4.567a5.836,5.836,0,0,0-3.956-1.238,10.328,10.328,0,0,0-3.281.482c-5.983,2.3-5.42,7.4-3.635,9.1a5.487,5.487,0,0,0,3.828,1.7,11.283,11.283,0,0,0,5.146-.563c.064-.145.434-1.608.659-2.364-.627.322-4.487,1.335-6.128.177a1.427,1.427,0,0,1-.563-1.592c.322.08.788.241,1.142.289a9.846,9.846,0,0,0,1.64.113,10.068,10.068,0,0,0,2.107-.209,7.479,7.479,0,0,0,1.785-.643A4.526,4.526,0,0,0,66.2,8.717a3.433,3.433,0,0,0,.756-1.657A2.79,2.79,0,0,0,66.068,4.567ZM63.189,7.173a1.406,1.406,0,0,1-.82.9,4.8,4.8,0,0,1-2.911.177c-.193-.032-.692-.161-.949-.225a3.234,3.234,0,0,1,3.136-2.139C62.111,5.886,63.43,6.176,63.189,7.173ZM71.182,0A1.169,1.169,0,0,0,70.1.836h0l-3.233,11.8v.016l-.482,1.737h4.358L74.7,0ZM54.713.129a3.024,3.024,0,0,0-2.3,1.061L47.267,7.253,45.482.129h-4.5l4.2,15.632L58.927.129H54.713ZM10.759,0H3.892L0,14.394H2.235c1.335,0,2.316-.161,2.654-1.447l.643-2.428H7.7c7.591,0,8.154-4.391,8.4-5.259C16.26,4.7,16.822,0,10.759,0Zm1.158,5.05A3.265,3.265,0,0,1,8.572,7.205H6.433L7.575,2.991H9.827C12,2.975,12.062,4.519,11.917,5.05Z" transform="translate(646 1235.559)"/></g></svg>