<svg xmlns="http://www.w3.org/2000/svg" width="161.003" height="161.003" viewBox="0 0 161.003 161.003"><defs><style>.a{fill:none;stroke:#00bedb;stroke-linecap:round;stroke-miterlimit:10;stroke-width:3px;}.b{fill:#183b8d;}</style></defs><g transform="translate(-356.751 -1843.256)"><circle class="a" cx="79.001" cy="79.001" r="79.001" transform="translate(358.251 1844.756)"/><g transform="translate(-7087.819)"><path class="b" d="M7529.378,1963.065a1.282,1.282,0,0,1,0-2.565h13.846l-1.547-1.091a20.12,20.12,0,0,1-7.909-11.448l-.115-.452H7520.38a1.282,1.282,0,0,1-1.27-1.123l-1.188-.026a20,20,0,0,1-19.78,16.7h-18.779a1.282,1.282,0,1,1,0-2.565h8.794l-1.547-1.091a20.062,20.062,0,0,1,11.531-36.469h0a20.358,20.358,0,0,1,2.727.186l.542.075,1.259-5.438h-2.987a6.518,6.518,0,0,1-6.51-6.509v-2.3a1.285,1.285,0,0,1,1.283-1.283h4.26l.039-.558a7.925,7.925,0,0,1,1.537-4.224s.08-.095.11-.125l15.424-15.427a9.9,9.9,0,0,1,11.091-2.013l1.761.8-1-1.658a7.878,7.878,0,1,1,4.561,3.514l-.566,1.025,14.609,12.946h5.875a5.859,5.859,0,1,1,0,11.717h-2.573a1.283,1.283,0,0,1-1.257-1.03l-1.189.148c.063,1.164.174,2.346.331,3.515a43.725,43.725,0,0,0,1.236,5.975l.309,1.1.539-.1a20.074,20.074,0,0,1,22.051,11.71,1.283,1.283,0,0,1-2.352,1.026,17.5,17.5,0,0,0-18.879-10.275l-.663.109,4.733,16.81a1.285,1.285,0,0,1-1.236,1.631,1.288,1.288,0,0,1-1.234-.935l-4.731-16.811-.622.254A17.448,17.448,0,0,0,7535.713,1943c0,.286.007.571.021.853l0,.063.015.06a8.824,8.824,0,0,1,.291,2.247l.007.208a17.5,17.5,0,0,0,33.294,3.349,1.283,1.283,0,1,1,2.365.994,20.027,20.027,0,0,1-18.5,12.288Zm-31.236-37.56a17.5,17.5,0,1,0,17.389,19.447l.074-.667h-17.463a1.283,1.283,0,0,1-1.25-1.571l3.94-17.013-.667-.078A17.566,17.566,0,0,0,7498.142,1925.505Zm23.522,19.439h11.742l-.284-.8a6.265,6.265,0,0,0-5.891-4.165h-5.567Zm-21.909-3.224h15.85l-.074-.667a17.6,17.6,0,0,0-11.567-14.55l-.633-.224Zm30.1-8.7.819,5.087.287.134a8.951,8.951,0,0,1,1.658,1.014l.758.587.2-.939a20.262,20.262,0,0,1,12.469-14.637l.51-.2-.31-1.1c-.267-.947-.509-1.93-.72-2.923l-.217-1.021Zm-28.181-27.375a6.4,6.4,0,0,0-.222,3.565,7.645,7.645,0,0,0,3.455,5.019l12.188,7.038a1.289,1.289,0,0,1,.609.825l3.514,15.32h6.721l-.086-.695-2.288-14.213a12.712,12.712,0,0,0-3.523-6.715l-7.027-7.025-13.145-3.629Zm2.241,18.133.519.172a20.181,20.181,0,0,1,12.762,12.754l1.154-.323-3.021-13.171-9.952-5.747Zm23.114-5.174a15.349,15.349,0,0,1,1.061,3.446l1.279,7.949,13.51-12.237h-16.223Zm-9.532-10.985,6.358,6.357c.322.323.627.66.917,1.006l.18.215h19.8l-.057-.653q-.082-.933-.126-1.871l-.014-.288-18.458-13.369Zm-21.753,3.633a3.948,3.948,0,0,0,3.943,3.945h2.152l-.788-.977a10.6,10.6,0,0,1-1.874-3.562l-.128-.427h-3.3Zm51.34-.769q0,.866.034,1.728l1.2.038a1.278,1.278,0,0,1,1.276-1.149h2.573a3.293,3.293,0,0,0,0-6.587h-5.08Zm-21.117-14.43a1.27,1.27,0,0,1,.751.243l17.8,12.893v-5.381l-16.537-14.687a7.326,7.326,0,0,0-10.337.024l-13.857,13.859,11.517,3.18,9.755-9.756A1.275,1.275,0,0,1,7525.963,1896.054Zm8.467-20.942a5.306,5.306,0,1,0,5.307,5.306A5.312,5.312,0,0,0,7534.43,1875.112Z"/><path class="b" d="M7571.99,1941.12a1.883,1.883,0,0,0-1.883,1.883v.088a1.883,1.883,0,0,0,1.877,1.888h.006a1.884,1.884,0,0,0,1.883-1.877v-.1A1.883,1.883,0,0,0,7571.99,1941.12Z"/><path class="b" d="M7571.984,1944.379a1.285,1.285,0,0,1-1.278-1.287,1.307,1.307,0,0,1,1.284-1.372,1.284,1.284,0,0,1,1.283,1.282,1.31,1.31,0,0,1-1.283,1.377Z"/><path class="b" d="M7523.3,1960.452a1.881,1.881,0,1,0,.552,1.331A1.886,1.886,0,0,0,7523.3,1960.452Z"/><path class="b" d="M7521.973,1963.065a1.285,1.285,0,1,1,.907-.377A1.286,1.286,0,0,1,7521.973,1963.065Z"/></g></g></svg>