<svg xmlns="http://www.w3.org/2000/svg" width="95.58" height="95.58" viewBox="0 0 95.58 95.58"><defs><style>.a{fill:none;stroke:#00bedb;stroke-linecap:round;stroke-miterlimit:10;stroke-width:3px;}.b{fill:#183b8d;}</style></defs><g transform="translate(-2602.986 -2772.135)"><circle class="a" cx="46.29" cy="46.29" r="46.29" transform="translate(2604.486 2773.635)"/><path class="b" d="M2659.174,2836.974a1.236,1.236,0,0,0-1.429,1.018c-1.459,8.828-3.362,16.653-3.579,17.54a1.236,1.236,0,0,0,.9,1.5,1.181,1.181,0,0,0,.3.036,1.235,1.235,0,0,0,1.2-.937c.021-.081,2.059-8.27,3.623-17.739A1.238,1.238,0,0,0,2659.174,2836.974Z"/><path class="b" d="M2643.112,2836.851a1.245,1.245,0,0,0-1.04,1.408c1.4,9.423,2.729,17.619,2.792,17.935a1.239,1.239,0,0,0,1.213.991,1.092,1.092,0,0,0,.243-.024,1.244,1.244,0,0,0,.973-1.449c-.076-.394-1.4-8.568-2.771-17.818A1.251,1.251,0,0,0,2643.112,2836.851Z"/><path class="b" d="M2651.166,2797.85c.973-.541,1.769-.981,2.246-1.245l.462-.255c.017-.01.028-.028.045-.038a7.276,7.276,0,0,0,3.588-6.293,7.351,7.351,0,1,0-12.23,5.493,1.234,1.234,0,0,0,1.748-.1,1.236,1.236,0,0,0-.1-1.747,4.882,4.882,0,1,1,5.468.676l-.633.349c-1.556.863-4.765,2.641-7.681,4.3l-.008.007a20.158,20.158,0,1,0,7.1-1.151Zm-.39,2.457a17.7,17.7,0,1,1-17.7,17.7A17.719,17.719,0,0,1,2650.776,2800.307Z"/></g></svg>