<svg xmlns="http://www.w3.org/2000/svg" width="95.58" height="95.58" viewBox="0 0 95.58 95.58"><defs><style>.a{fill:none;stroke:#00bedb;stroke-linecap:round;stroke-miterlimit:10;stroke-width:3px;}.b{fill:#183b8d;}</style></defs><g transform="translate(-1210.801 -2887.226)"><circle class="a" cx="46.29" cy="46.29" r="46.29" transform="translate(1212.301 2888.726)"/><g transform="translate(-2304.055)"><path class="b" d="M3586.12,2911.963h0a8.892,8.892,0,0,0-6.56-2.85h-33.828a9.063,9.063,0,0,0-8.96,9.6l1.5,22.062a1.147,1.147,0,0,0,2.289-.156l-1.5-22.062a6.754,6.754,0,0,1,6.671-7.145h33.828a6.754,6.754,0,0,1,6.672,7.145l-2.3,33.831a6.708,6.708,0,0,1-6.671,6.239h-29.237a6.709,6.709,0,0,1-6.672-6.239l-.521-7.684a1.134,1.134,0,0,0-1.221-1.043,1.114,1.114,0,0,0-1.068,1.2l.522,7.685a9.008,9.008,0,0,0,8.96,8.378h29.236a9.01,9.01,0,0,0,8.961-8.378l2.295-33.831A8.9,8.9,0,0,0,3586.12,2911.963Z"/><path class="b" d="M3569.767,2926.9a1.149,1.149,0,0,0,1.147,1.148h2.989a1.149,1.149,0,0,0,1.147-1.148,12.4,12.4,0,0,0-24.808,0,1.149,1.149,0,0,0,1.147,1.148h15.441a1.148,1.148,0,0,0,0-2.295h-3.385l-3.136-5.591a1.147,1.147,0,0,0-2,1.123l2.506,4.468H3552.6a10.008,10.008,0,0,1,2.058-5.043l.712.712a1.081,1.081,0,0,0,1.062.3,1.237,1.237,0,0,0,.86-.86,1.081,1.081,0,0,0-.3-1.063l-.732-.731a10.082,10.082,0,0,1,2.574-1.531l.258.963a1.079,1.079,0,0,0,.77.79,1.244,1.244,0,0,0,1.175-.314,1.078,1.078,0,0,0,.271-1.07l-.264-.988a10.268,10.268,0,0,1,2.986-.032l-.253.945a1.147,1.147,0,0,0,2.216.594l.259-.969a10.041,10.041,0,0,1,2.591,1.463l-.675.675a1.092,1.092,0,0,0-.334.862,1.184,1.184,0,0,0,.352.743,1.114,1.114,0,0,0,1.6.018l.694-.694a9.985,9.985,0,0,1,2.206,5.23h-1.777A1.149,1.149,0,0,0,3569.767,2926.9Z"/><path class="b" d="M3544.665,2913.9a3.04,3.04,0,1,0,3.04,3.039A3.043,3.043,0,0,0,3544.665,2913.9Zm.746,3.039a.745.745,0,1,1-.746-.745A.747.747,0,0,1,3545.411,2916.935Z"/><path class="b" d="M3580.627,2919.976a3.04,3.04,0,1,0-3.04-3.041A3.045,3.045,0,0,0,3580.627,2919.976Zm-.746-3.041a.746.746,0,1,1,.746.746A.746.746,0,0,1,3579.881,2916.935Z"/><path class="b" d="M3543.917,2952.7a3.04,3.04,0,1,0,3.04-3.04A3.044,3.044,0,0,0,3543.917,2952.7Zm2.294,0a.745.745,0,1,1,.746.745A.747.747,0,0,1,3546.211,2952.7Z"/><path class="b" d="M3575.3,2952.7a3.04,3.04,0,1,0,3.04-3.04A3.044,3.044,0,0,0,3575.3,2952.7Zm2.294,0a.746.746,0,1,1,.746.745A.747.747,0,0,1,3577.59,2952.7Z"/></g></g></svg>