<svg xmlns="http://www.w3.org/2000/svg" width="94.731" height="94.731" viewBox="0 0 94.731 94.731"><defs><style>.a{fill:none;stroke:#00bedb;stroke-linecap:round;stroke-miterlimit:10;stroke-width:3px;}.b{fill:#183b8d;}</style></defs><g transform="translate(-2621.658 -4168.586)"><circle class="a" cx="43.857" cy="43.857" r="43.857" transform="matrix(0.999, -0.045, 0.045, 0.999, 2623.224, 4174.127)"/><path class="b" d="M2656.038,4242.439h.849a1.179,1.179,0,1,0,0-2.359h-.849a1.179,1.179,0,0,0,0,2.359Z"/><path class="b" d="M2687.175,4210.941v-4.677a1.18,1.18,0,0,0-1.668-1.075l-1.633.742-1.636-.743a1.189,1.189,0,0,0-.974,0l-1.632.742-1.637-.743a1.192,1.192,0,0,0-.972,0l-1.636.742-1.635-.743a1.188,1.188,0,0,0-.974,0l-1.634.742-1.634-.743a1.189,1.189,0,0,0-.974,0l-1.634.742-1.636-.743a1.186,1.186,0,0,0-.973,0l-1.635.742-1.634-.743a1.193,1.193,0,0,0-.973,0l-1.634.742-1.636-.743a1.193,1.193,0,0,0-.973,0l-1.634.742-1.639-.743a1.179,1.179,0,0,0-1.664,1.076v4.68a112.213,112.213,0,0,0,0,30.38V4246a1.179,1.179,0,0,0,1.668,1.075l1.635-.741,1.638.743a1.187,1.187,0,0,0,.97,0l1.635-.741,1.638.743a1.189,1.189,0,0,0,.971,0l1.632-.741,1.639.743a1.191,1.191,0,0,0,.972,0l1.633-.741,1.638.743a1.189,1.189,0,0,0,.971,0l1.633-.741,1.639.743a1.189,1.189,0,0,0,.971,0l1.633-.741,1.639.743a1.2,1.2,0,0,0,.972,0l1.634-.741,1.636.743a1.189,1.189,0,0,0,.971,0l1.635-.741,1.633.741a1.2,1.2,0,0,0,1.13-.084,1.183,1.183,0,0,0,.538-.991v-4.676A112.132,112.132,0,0,0,2687.175,4210.941Zm-33.959,30.247a.641.641,0,0,0,.006-.079,110.042,110.042,0,0,1,0-29.951.625.625,0,0,0-.006-.078c0-.026.015-.047.015-.072v-2.914l.459.208a1.2,1.2,0,0,0,.971,0l1.634-.742,1.638.744a1.2,1.2,0,0,0,.971,0l1.634-.742,1.637.744a1.2,1.2,0,0,0,.971,0l1.634-.742,1.639.744a1.2,1.2,0,0,0,.971,0l1.634-.742,1.637.744a1.2,1.2,0,0,0,.971,0l1.634-.742,1.638.744a1.2,1.2,0,0,0,.972,0l1.633-.742,1.639.744a1.2,1.2,0,0,0,.971,0l1.632-.742,1.639.744a1.2,1.2,0,0,0,.971,0l.455-.206v1.734h-25.68a1.153,1.153,0,0,1-2.066,0h-2.063a1.18,1.18,0,1,0,0,2.36h2.063a1.153,1.153,0,0,1,2.066,0h25.807a109.418,109.418,0,0,1,0,27.893H2659.41a1.179,1.179,0,0,0,0,2.359h25.406v1.736l-.456-.207a1.179,1.179,0,0,0-.973,0l-1.636.74-1.634-.741a1.178,1.178,0,0,0-.973,0l-1.635.74-1.635-.741a1.181,1.181,0,0,0-.974,0l-1.634.74-1.636-.741a1.182,1.182,0,0,0-.973,0l-1.633.74-1.637-.741a1.176,1.176,0,0,0-.972,0l-1.635.74-1.635-.741a1.178,1.178,0,0,0-.973,0l-1.634.74-1.635-.741a1.181,1.181,0,0,0-.974,0l-1.634.74-1.636-.741a1.178,1.178,0,0,0-.973,0l-.455.206v-2.916C2653.231,4241.234,2653.218,4241.213,2653.216,4241.188Z"/><path class="b" d="M2657.9,4226.765a1.121,1.121,0,0,0,.157,1.433l4.037,4.04a1.179,1.179,0,1,0,1.669-1.667l-4.037-4.037a1.153,1.153,0,0,0-.44-.271l7.239-7.239a1.18,1.18,0,0,0-.833-2.014h0a1.168,1.168,0,0,0-.833.346l-7.46,7.46a1.176,1.176,0,0,0,0,1.665A1.126,1.126,0,0,0,2657.9,4226.765Z"/><path class="b" d="M2676.494,4224.139a1.167,1.167,0,0,0,.346.834l.673.673a1.151,1.151,0,0,0,.737.329l-9.543,9.544-3.194-3.193a1.172,1.172,0,0,0-.835-.35h0a1.181,1.181,0,0,0-.833,2.016l4.029,4.029a1.179,1.179,0,0,0,1.667,0l10.394-10.4a1.177,1.177,0,0,0,0-1.667,1.154,1.154,0,0,0-.743-.33,1.171,1.171,0,0,0-.013-1.649l-.673-.672a1.165,1.165,0,0,0-.834-.349h0a1.182,1.182,0,0,0-1.18,1.18Z"/><path class="b" d="M2667.488,4217.571h0a1.175,1.175,0,0,0,.834-.346l.384-.385,6.4,6.4a1.179,1.179,0,1,0,1.669-1.667l-7.232-7.232a1.171,1.171,0,0,0-.835-.348h0a1.173,1.173,0,0,0-.835.347l-1.215,1.218a1.18,1.18,0,0,0,.831,2.015Z"/><path class="b" d="M2655.465,4198.524a10.62,10.62,0,0,0,7.579,3.493,10.285,10.285,0,0,0,3.482-.631c1.963-.709,2.409-2.3,1.992-3.468-.587-1.663-2.905-2.856-5.418-1.984-.3.1-.615.219-.929.335l-.107.04c-.3.111-.611.224-.914.331a1.189,1.189,0,0,0,.2-1.542c-.008-.012-.184-.287-.871-1.606-1.34-2.575-3.332-3.226-4.707-2.733-1.238.44-2.346,1.936-1.742,4.815A5.568,5.568,0,0,0,2655.465,4198.524Zm5.2.747c.764-.215,1.52-.494,2.22-.751.334-.124.663-.245.986-.356,1.3-.454,2.267.112,2.42.542.076.218-.5.434-.571.457A7.377,7.377,0,0,1,2660.67,4199.271Zm-3.589-2.469-.146-.178a4.1,4.1,0,0,1-.6-1.533c-.3-1.412.033-2.041.227-2.112a.356.356,0,0,1,.109-.016c.355,0,1.087.417,1.712,1.617.532,1.021.9,1.686,1.032,1.87a1.178,1.178,0,0,0,.847.484,3.957,3.957,0,0,1-2.834.146A1.409,1.409,0,0,1,2657.081,4196.8Z"/><path class="b" d="M2678.907,4195.176c-.226.518-.413,1.042-.588,1.555a1.177,1.177,0,0,0-1.067-1.218c-.052-.005-.485-.052-1.437-.237-2.779-.534-4.453.857-4.883,2.481a3.8,3.8,0,0,0,2.793,4.5,6.712,6.712,0,0,0,2.145.4,3.545,3.545,0,0,0,.411-.019c.705-.032,6.917-.491,8.128-6.31.484-2.32-.523-3.519-1.532-3.841C2681.66,4192.087,2679.959,4192.772,2678.907,4195.176Zm3.213-.414a2.12,2.12,0,0,1-.019,1.078,4.98,4.98,0,0,1-2.073,3.185c.133-.36.255-.727.376-1.089.2-.61.414-1.24.665-1.814A2.646,2.646,0,0,1,2682.12,4194.762Zm-4.011,2.6c-.425,1.27-.841,2.44-1.546,2.792a1.457,1.457,0,0,1-.506.135,3.978,3.978,0,0,1-1.578-.267c-1.075-.363-1.409-1.114-1.264-1.658.111-.422.557-.84,1.452-.84a3.618,3.618,0,0,1,.7.073c.913.176,1.425.244,1.689.272A1.168,1.168,0,0,0,2678.109,4197.358Z"/><path class="b" d="M2667.645,4193.107a9.491,9.491,0,0,0,2.2.289,4.925,4.925,0,0,0,.973-.084,1.154,1.154,0,0,0,.233-.02c.322-.059,7.892-1.492,9.509-6.538.671-2.095-.28-3.359-1.3-3.807-1.509-.661-3.9.121-5.3,2.573a19.03,19.03,0,0,0-1.1,2.4c-.977,2.437-1.466,3.66-4.668,2.892-1.019-.242-1.641-.764-1.548-1.3.109-.629,1.173-1.423,3.21-1.207,1.337.146,1.878.181,1.88.181a1.136,1.136,0,0,0,.855-.279,1.189,1.189,0,0,0,.407-.818,1.18,1.18,0,0,0-1.109-1.257c-.052,0-.573-.041-1.777-.171-3.378-.38-5.472,1.3-5.791,3.147C2664.056,4190.637,2664.981,4192.468,2667.645,4193.107Zm7.1-3.559c.106-.252.207-.5.306-.754a17.18,17.18,0,0,1,.958-2.107,2.827,2.827,0,0,1,2.088-1.614.536.536,0,0,1,.212.035c.169.075.126.533,0,.926A6.661,6.661,0,0,1,2674.746,4189.548Z"/></g></svg>