<svg xmlns="http://www.w3.org/2000/svg" width="161.003" height="161.003" viewBox="0 0 161.003 161.003"><defs><style>.a{fill:#183b8d;}.b{fill:none;stroke:#00bedb;stroke-linecap:round;stroke-miterlimit:10;stroke-width:3px;}</style></defs><g transform="translate(-356.751 -1375.59)"><g transform="translate(-7087.819)"><path class="a" d="M7550.3,1428.9h-.884a5.3,5.3,0,0,0-5.288,5.29v43.807a5.3,5.3,0,0,0,5.288,5.29h.884a5.3,5.3,0,0,0,5.292-5.29v-43.807A5.3,5.3,0,0,0,7550.3,1428.9Zm2.7,49.1a2.7,2.7,0,0,1-2.7,2.7h-.884a2.7,2.7,0,0,1-2.7-2.7v-43.807a2.7,2.7,0,0,1,2.7-2.7h.884a2.7,2.7,0,0,1,2.7,2.7Z"/><path class="a" d="M7563.974,1437.488h-.884a5.3,5.3,0,0,0-5.29,5.29V1470.7a5.3,5.3,0,0,0,5.29,5.29h.884a5.3,5.3,0,0,0,5.292-5.29v-27.925A5.3,5.3,0,0,0,7563.974,1437.488Zm2.7,33.215a2.7,2.7,0,0,1-2.7,2.7h-.884a2.7,2.7,0,0,1-2.7-2.7v-27.925a2.7,2.7,0,0,1,2.7-2.7h.884a2.7,2.7,0,0,1,2.7,2.7Z"/><path class="a" d="M7487.262,1437.488h-.884a5.3,5.3,0,0,0-5.29,5.29V1470.7a5.3,5.3,0,0,0,5.29,5.29h.884a5.3,5.3,0,0,0,5.292-5.29v-27.925A5.3,5.3,0,0,0,7487.262,1437.488Zm2.7,33.215a2.7,2.7,0,0,1-2.7,2.7h-.884a2.7,2.7,0,0,1-2.7-2.7v-27.925a2.7,2.7,0,0,1,2.7-2.7h.884a2.7,2.7,0,0,1,2.7,2.7Z"/><path class="a" d="M7501.141,1428.9h-.884a5.3,5.3,0,0,0-5.289,5.29v43.807a5.3,5.3,0,0,0,5.289,5.29h.884a5.3,5.3,0,0,0,5.292-5.29v-43.807A5.3,5.3,0,0,0,7501.141,1428.9Zm2.7,49.1a2.7,2.7,0,0,1-2.7,2.7h-.884a2.7,2.7,0,0,1-2.7-2.7v-43.807a2.7,2.7,0,0,1,2.7-2.7h.884a2.7,2.7,0,0,1,2.7,2.7Z"/><path class="a" d="M7575.694,1446.789h-.523a3.649,3.649,0,0,0-3.643,3.645v14.458a3.648,3.648,0,0,0,3.643,3.644h.523a3.647,3.647,0,0,0,3.642-3.644v-14.458A3.648,3.648,0,0,0,7575.694,1446.789Zm1.05,18.1a1.053,1.053,0,0,1-1.05,1.054h-.523a1.054,1.054,0,0,1-1.052-1.054v-14.458a1.053,1.053,0,0,1,1.052-1.054h.523a1.052,1.052,0,0,1,1.05,1.054Z"/><path class="a" d="M7474.97,1446.789h-.52a3.647,3.647,0,0,0-3.644,3.645v14.458a3.646,3.646,0,0,0,3.644,3.644h.52a3.647,3.647,0,0,0,3.642-3.644v-14.458A3.648,3.648,0,0,0,7474.97,1446.789Zm1.051,18.1a1.053,1.053,0,0,1-1.051,1.054h-.52a1.069,1.069,0,0,1-1.055-1.054v-14.458a1.069,1.069,0,0,1,1.055-1.054h.52a1.052,1.052,0,0,1,1.051,1.054Z"/><path class="a" d="M7541.227,1449.879h-31.9a1.3,1.3,0,0,0,0,2.592h31.9a1.3,1.3,0,0,0,0-2.592Z"/><path class="a" d="M7541.227,1459.712h-31.9a1.3,1.3,0,0,0,0,2.591h31.9a1.3,1.3,0,1,0,0-2.591Z"/></g><circle class="b" cx="79.001" cy="79.001" r="79.001" transform="translate(358.251 1377.09)"/></g></svg>