<svg xmlns="http://www.w3.org/2000/svg" width="90.715" height="90.713" viewBox="0 0 90.715 90.713"><defs><style>.a{fill:none;stroke:#00bedb;stroke-linecap:round;stroke-miterlimit:10;stroke-width:3px;}.b{fill:#183b8d;}</style></defs><g transform="translate(-3084.666 -4167.558)"><path class="a" d="M3173.881,4212.914a43.858,43.858,0,1,1-43.858-43.856A43.857,43.857,0,0,1,3173.881,4212.914Z"/><path class="b" d="M3129.607,4226.045v3.764a1.328,1.328,0,1,0,2.657,0v-3.764a1.328,1.328,0,0,0-2.657,0Z"/><path class="b" d="M3126.445,4195.5a18.124,18.124,0,0,0-12.988,12.592,1.324,1.324,0,0,0,.905,1.635,1.228,1.228,0,0,0,.372.055,1.335,1.335,0,0,0,1.277-.965,15.46,15.46,0,0,1,11.08-10.741,1.328,1.328,0,0,0-.646-2.576Z"/><path class="b" d="M3113.172,4216.867a18.1,18.1,0,0,0,12.358,13.473,1.334,1.334,0,0,0,1.663-.88,1.334,1.334,0,0,0-.88-1.658,15.426,15.426,0,0,1-10.542-11.491,1.329,1.329,0,1,0-2.6.556Z"/><path class="b" d="M3134.373,4228.506a1.319,1.319,0,0,0-.115,1.012,1.329,1.329,0,0,0,1.645.906,18.154,18.154,0,0,0,12.476-12.854,1.329,1.329,0,0,0-.953-1.619,1.332,1.332,0,0,0-1.617.953,15.5,15.5,0,0,1-10.642,10.971A1.308,1.308,0,0,0,3134.373,4228.506Z"/><path class="b" d="M3136.074,4195.718a1.329,1.329,0,0,0-1.551,1.9,1.312,1.312,0,0,0,.786.642,15.525,15.525,0,0,1,10.474,10.832,1.328,1.328,0,0,0,1.284.988,1.3,1.3,0,0,0,.339-.044,1.33,1.33,0,0,0,.943-1.623A18.2,18.2,0,0,0,3136.074,4195.718Z"/><path class="b" d="M3130.992,4186.906a26.122,26.122,0,0,0-24.984,18.766,1.326,1.326,0,1,0,2.547.738,23.38,23.38,0,1,1-.547,10.609l1.223,1.465a1.327,1.327,0,1,0,2.038-1.7l-3.939-4.72c-.018-.022-.041-.038-.061-.058s-.036-.035-.055-.053a1.322,1.322,0,0,0-.76-.336,1.1,1.1,0,0,0-.142-.029,1.192,1.192,0,0,0-.14.028,1.373,1.373,0,0,0-.273.056,1.319,1.319,0,0,0-.141.046,1.261,1.261,0,0,0-.351.237c-.017.016-.034.031-.051.048s-.045.039-.064.061l-3.938,4.72a1.328,1.328,0,1,0,2.039,1.7l1.819-2.18a26.006,26.006,0,1,0,25.78-29.4Z"/><path class="b" d="M3123.6,4206.645a1.307,1.307,0,0,0-.387.937,1.322,1.322,0,0,0,.392.94l5.366,5.328a2.065,2.065,0,0,0,4.1-.369.279.279,0,0,0,0-.032l8.009-7.994a1.329,1.329,0,0,0-.94-2.269h0a1.308,1.308,0,0,0-.933.389l-7.886,7.871a2.06,2.06,0,0,0-.313-.032,2.026,2.026,0,0,0-.611.1l-4.914-4.88A1.332,1.332,0,0,0,3123.6,4206.645Z"/><path class="b" d="M3132.264,4200.351v-3.764a1.328,1.328,0,0,0-2.657,0v3.764a1.328,1.328,0,1,0,2.657,0Z"/><path class="b" d="M3143.173,4214.242h3.765a1.327,1.327,0,1,0,0-2.654h-3.765a1.327,1.327,0,1,0,0,2.654Z"/><path class="b" d="M3114.489,4214.242h3.766a1.327,1.327,0,1,0,0-2.654h-3.766a1.327,1.327,0,0,0,0,2.654Z"/></g></svg>