<svg xmlns="http://www.w3.org/2000/svg" width="123.232" height="123.232" viewBox="0 0 123.232 123.232"><defs><style>.a{fill:#183b8d;}.b{fill:none;stroke:#00bedb;stroke-linecap:round;stroke-miterlimit:10;stroke-width:3px;}</style></defs><g transform="translate(-991.396 -1557.353)"><path class="a" d="M5697.562,1608.029a.854.854,0,0,1-.324-.211.7.7,0,0,1-.085-.113,4.933,4.933,0,0,1,.409.324" transform="translate(-4643.172)"/><circle class="b" cx="60.116" cy="60.116" r="60.116" transform="translate(992.896 1558.853)"/><g transform="translate(-4643.172)"><path class="a" d="M5729.8,1596.435a2.462,2.462,0,0,0-1.924-2.61q-5.946-1.932-11.888-3.877l-3.041-.993q-7.778-2.542-15.56-5.07a4.22,4.22,0,0,0-2.473.007q-7.6,2.459-15.2,4.944t-15.189,4.941a2.6,2.6,0,0,0-2.04,2.691,78.749,78.749,0,0,0,3.318,25.076c4.846,15.666,14.5,27.288,28.7,34.543a3.585,3.585,0,0,0,1.642.436,3.425,3.425,0,0,0,1.618-.437,62.236,62.236,0,0,0,10.453-6.812,54.085,54.085,0,0,0,14.1-17.492c.75-1.47,1.448-2.976,2.074-4.478a74.414,74.414,0,0,0,5.4-26.685l0-1.268C5729.783,1598.455,5729.778,1597.439,5729.8,1596.435Zm-2.047,4.14a72.3,72.3,0,0,1-5.241,25.945c-.6,1.441-1.274,2.9-2.006,4.334a52.094,52.094,0,0,1-13.573,16.839,60.359,60.359,0,0,1-10.117,6.589,1.256,1.256,0,0,1-1.385-.01c-13.69-6.994-23-18.208-27.678-33.33a75.551,75.551,0,0,1-3.227-24.428c.012-.543.07-.618.627-.8q6.9-2.231,13.786-4.483l1.412-.461q7.592-2.478,15.189-4.942a2.056,2.056,0,0,1,.631-.091,1.968,1.968,0,0,1,.587.082q8.514,2.758,17.016,5.546,6.734,2.2,13.473,4.394c.526.172.524.277.515.625-.022.96-.018,1.933-.014,2.874Z"/><path class="a" d="M5703.749,1624.38a4.547,4.547,0,1,0,4.547,4.547A4.553,4.553,0,0,0,5703.749,1624.38Zm0,7.163a2.615,2.615,0,1,1,2.614-2.616A2.619,2.619,0,0,1,5703.749,1631.543Z"/><path class="a" d="M5685.562,1620.285a3.427,3.427,0,1,0-3.428-3.428A3.43,3.43,0,0,0,5685.562,1620.285Zm0-4.922a1.495,1.495,0,1,1-1.5,1.494A1.5,1.5,0,0,1,5685.562,1615.363Z"/><path class="a" d="M5688.61,1622.532a7.372,7.372,0,1,0,7.374,7.372A7.381,7.381,0,0,0,5688.61,1622.532Zm0,12.812a5.44,5.44,0,1,1,5.441-5.44A5.446,5.446,0,0,1,5688.61,1635.344Z"/><path class="a" d="M5710.289,1614.882l-3.5-.824a3.786,3.786,0,0,0,.053-.67,7.525,7.525,0,0,0-2.075-5.257l1.546-1.506a.971.971,0,0,0-1.366-1.38l-1.687,1.662a7.353,7.353,0,0,0-3.878-1.133,7.246,7.246,0,0,0-1.778.207l-1.134-2.475a.971.971,0,1,0-1.765.812l1.082,2.332a7.462,7.462,0,0,0-3.6,4.2l-3.645-.849a.953.953,0,0,0-1.159.708.975.975,0,0,0,.721,1.172l3.7.876c-.012.155-.026.322-.026.477a7.561,7.561,0,0,0,2.036,5.217l-1.533,1.5a.966.966,0,1,0,1.353,1.378l1.687-1.636a7.373,7.373,0,0,0,3.9,1.146h.091a7.969,7.969,0,0,0,1.456-.141l1.094,2.37a.967.967,0,0,0,.877.568.917.917,0,0,0,.411-.091.971.971,0,0,0,.477-1.276l-1.017-2.19a7.46,7.46,0,0,0,3.736-4.123l3.491.812a.709.709,0,0,0,.232.026.975.975,0,0,0,.941-.735A.987.987,0,0,0,5710.289,1614.882Zm-5.385-1.52a5.55,5.55,0,0,1-1.675,3.944,5.831,5.831,0,0,1-3.981,1.6,5.6,5.6,0,0,1,.052-11.2h.064a5.522,5.522,0,0,1,3.208,1.057h0a.627.627,0,0,0,.078.1.793.793,0,0,0,.293.192h0c0,.013.013.013.026.013a5.623,5.623,0,0,1,1.933,4.238Z"/></g></g></svg>