<svg xmlns="http://www.w3.org/2000/svg" xmlns:xlink="http://www.w3.org/1999/xlink" width="171.644" height="171.643" viewBox="0 0 171.644 171.643"><defs><style>.a,.b{fill:none;}.b{stroke:#00bedb;stroke-linecap:round;stroke-miterlimit:10;stroke-width:3px;}.c{clip-path:url(#a);}.d{clip-path:url(#b);}.e{fill:#183b8d;}</style><clipPath id="a"><rect class="a" width="148.876" height="148.876" transform="translate(7447.699 3272.003)"/></clipPath><clipPath id="b"><rect class="a" width="148.876" height="148.876" transform="translate(7447.699 3272.002)"/></clipPath></defs><g transform="translate(-354.5 -3260.619)"><path class="b" d="M7528.141,3430.762a84.063,84.063,0,1,1,32.822-6.627,83.789,83.789,0,0,1-32.822,6.627m0-165.569a80.983,80.983,0,1,0,31.624,6.384,80.747,80.747,0,0,0-31.624-6.384" transform="translate(-7087.819)"/><g transform="translate(-7087.819)"><g class="c"><g class="d"><path class="e" d="M7580.655,3380.279a1.261,1.261,0,0,1-.9-.38l-23.507-23.971c-4.352,1.71-24.915,9.6-33.61,9.663h-.009a1.265,1.265,0,0,1-.009-2.53c9.07-.061,33.232-9.7,33.474-9.792a1.26,1.26,0,0,1,1.374.288l24.1,24.573a1.264,1.264,0,0,1-.905,2.149"/><path class="e" d="M7525.893,3345.984a1.261,1.261,0,0,1-.382-.06c-6.589-2.084-18.372-10.635-18.87-11a1.265,1.265,0,1,1,1.489-2.045c.115.082,11.047,8.021,17.4,10.376,2.7-2.927,14.4-16.165,13.694-24.642a1.264,1.264,0,0,1,1.156-1.364,1.3,1.3,0,0,1,1.364,1.155c.89,10.665-14.293,26.522-14.941,27.191a1.269,1.269,0,0,1-.91.387"/><path class="e" d="M7583.569,3394.064a1.269,1.269,0,0,1-.749-.246l-26.364-19.356H7511.9a1.268,1.268,0,0,1-1-.494l-43.644-56.636a1.265,1.265,0,0,1,2-1.544l43.263,56.144h44.346a1.267,1.267,0,0,1,.749.246l26.7,19.6a1.264,1.264,0,0,1-.748,2.283"/><path class="e" d="M7496.6,3394.064a1.264,1.264,0,0,1-1-2.044l15.3-19.6a1.266,1.266,0,0,1,2,1.558l-15.3,19.6a1.263,1.263,0,0,1-1,.487"/><path class="e" d="M7522.624,3365.591a1.248,1.248,0,0,1-.677-.2c-12.347-7.85-20.274-21.122-22.652-30.789a17.356,17.356,0,0,1,1.158-12.617l.138-.309c2.687-6.053,3.8-11.156.5-16.377a8.313,8.313,0,0,0-6.965-3.95,10.036,10.036,0,0,0-8.213,3.72,12.1,12.1,0,0,0,1.427,15.626,15.553,15.553,0,0,0,5.386,3.367,1.265,1.265,0,0,1-.791,2.4,17.873,17.873,0,0,1-6.391-3.992c-4.415-4.457-6.408-12.375-1.676-18.888a12.613,12.613,0,0,1,10.339-4.764,10.793,10.793,0,0,1,9.024,5.124c4.134,6.534,2.288,12.877-.323,18.759l-.139.314a14.908,14.908,0,0,0-1.012,10.978c2.184,8.88,9.861,21.826,21.552,29.261a1.265,1.265,0,0,1-.68,2.332"/><path class="e" d="M7536.91,3309.047a1.246,1.246,0,0,1-.822-.306l-6.251-5.365a1.264,1.264,0,1,1,1.646-1.919l6.251,5.366a1.264,1.264,0,0,1-.824,2.224"/><path class="e" d="M7522.482,3328.385a1.26,1.26,0,0,1-1.248-1.467l2.884-17.653a1.265,1.265,0,0,1,1.065-1.047l11.546-1.689a1.266,1.266,0,0,1,1.43,1.458l-2.463,15.061a1.26,1.26,0,0,1-.82.986l-11.968,4.279a1.271,1.271,0,0,1-.426.072m3.983-17.8-2.391,14.623,9.248-3.307,2.062-12.622Z"/></g></g></g></g></svg>