<svg xmlns="http://www.w3.org/2000/svg" width="95.58" height="95.58" viewBox="0 0 95.58 95.58"><defs><style>.a{fill:none;stroke:#00bedb;stroke-linecap:round;stroke-miterlimit:10;stroke-width:3px;}.b{fill:#183b8d;}</style></defs><g transform="translate(-1210.801 -2777.507)"><circle class="a" cx="46.29" cy="46.29" r="46.29" transform="translate(1212.301 2779.007)"/><g transform="translate(-2304.055)"><path class="b" d="M3581.872,2800.248a1.323,1.323,0,0,0,0,2.647,4.671,4.671,0,0,1,4.666,4.667v2.57h-47.784v-2.57a4.672,4.672,0,0,1,4.667-4.667,1.323,1.323,0,0,0,0-2.647,7.322,7.322,0,0,0-7.313,7.314v38.452a7.321,7.321,0,0,0,7.313,7.311h38.451a7.321,7.321,0,0,0,7.313-7.311v-38.452A7.322,7.322,0,0,0,3581.872,2800.248Zm-43.118,12.531h47.784v33.235a4.67,4.67,0,0,1-4.666,4.664h-38.451a4.671,4.671,0,0,1-4.667-4.664Z"/><path class="b" d="M3554.077,2802.9h17.138a1.323,1.323,0,0,0,0-2.647h-17.138a1.323,1.323,0,0,0,0,2.647Z"/><path class="b" d="M3548.705,2808.3a3.2,3.2,0,0,0,3.194-3.2v-6.641a3.194,3.194,0,0,0-6.389,0v6.641A3.2,3.2,0,0,0,3548.705,2808.3Zm-.547-3.2v-6.641a.547.547,0,0,1,1.094,0v6.641a.547.547,0,1,1-1.094,0Z"/><path class="b" d="M3576.6,2808.3a3.2,3.2,0,0,0,3.194-3.2v-6.641a3.194,3.194,0,0,0-6.388,0v6.641A3.2,3.2,0,0,0,3576.6,2808.3Zm-.547-3.2v-6.641a.547.547,0,1,1,1.093,0v6.641a.547.547,0,1,1-1.093,0Z"/><path class="b" d="M3572.294,2832.534h8.5a1.325,1.325,0,0,0,1.324-1.323v-8.5a1.325,1.325,0,0,0-1.324-1.323h-8.5a1.325,1.325,0,0,0-1.323,1.323v8.5A1.325,1.325,0,0,0,3572.294,2832.534Zm1.322-2.646v-5.854h5.856v5.854Z"/><path class="b" d="M3558.4,2846.434h8.5a1.327,1.327,0,0,0,1.324-1.326v-8.5a1.325,1.325,0,0,0-1.324-1.323h-8.5a1.325,1.325,0,0,0-1.323,1.323v8.5A1.326,1.326,0,0,0,3558.4,2846.434Zm7.177-8.5v5.855h-5.854v-5.855Z"/><path class="b" d="M3544.5,2846.434h8.5a1.327,1.327,0,0,0,1.325-1.326v-8.5a1.326,1.326,0,0,0-1.325-1.323h-8.5a1.325,1.325,0,0,0-1.323,1.323v8.5A1.326,1.326,0,0,0,3544.5,2846.434Zm1.324-2.648v-5.855h5.854v5.855Z"/><path class="b" d="M3543.277,2831.717a1.3,1.3,0,0,0,.2.306,1.14,1.14,0,0,0,.08.121l0,0c.031.031.075.046.109.074a1.294,1.294,0,0,0,.826.315h8.5a1.326,1.326,0,0,0,1.325-1.323v-8.5a1.316,1.316,0,0,0-.09-.449c-.006-.016,0-.034-.011-.05a1.322,1.322,0,0,0-1.224-.824h-8.5a1.325,1.325,0,0,0-1.323,1.323v8.5c0,.033.017.061.019.093A1.32,1.32,0,0,0,3543.277,2831.717Zm8.4-5.813v3.984h-3.983Zm-1.872-1.87-3.982,3.982v-3.982Z"/><path class="b" d="M3557.175,2831.717a1.3,1.3,0,0,0,.215.323,1.215,1.215,0,0,0,.069.1h0c.01.011.026.015.037.025a1.3,1.3,0,0,0,.9.364h8.5a1.325,1.325,0,0,0,1.324-1.323v-8.5a1.278,1.278,0,0,0-.058-.29,1.368,1.368,0,0,0-.043-.211,1.324,1.324,0,0,0-1.223-.822h-8.5a1.325,1.325,0,0,0-1.323,1.323v8.5c0,.023.012.042.013.064A1.314,1.314,0,0,0,3557.175,2831.717Zm4.415-1.829,3.983-3.983v3.983Zm2.112-5.854-3.983,3.982v-3.982Z"/></g></g></svg>