<svg xmlns="http://www.w3.org/2000/svg" width="123.232" height="123.232" viewBox="0 0 123.232 123.232"><defs><style>.a{fill:none;stroke:#00bedb;stroke-linecap:round;stroke-miterlimit:10;stroke-width:3px;}.b{fill:#183b8d;}</style></defs><g transform="translate(-5634.568 -1385.605)"><circle class="a" cx="60.116" cy="60.116" r="60.116" transform="translate(5636.068 1387.105)"/><path class="b" d="M5723.075,1436.912h0a18.217,18.217,0,0,0-13.066-6.807,23.728,23.728,0,0,0-11.789,1.905,2.693,2.693,0,0,1-.3.125,15.113,15.113,0,0,1,15.006-13.681,1.344,1.344,0,1,0,0-2.689,17.771,17.771,0,0,0-17.73,16.571,4.432,4.432,0,0,1-1.048-.33,23.851,23.851,0,0,0-11.769-1.9,18.24,18.24,0,0,0-13.08,6.806c-3.528,4.459-4.826,10.43-3.753,17.268,1.766,11.395,6.475,20.6,12.919,25.263a15.325,15.325,0,0,0,9.1,3.153,14.588,14.588,0,0,0,2.214-.171c2.483-.421,4.182-.805,5.17-1.053a5.008,5.008,0,0,1,2.486,0c1,.253,2.715.64,5.168,1.053a13.581,13.581,0,0,0,2.2.18,15.581,15.581,0,0,0,9.11-3.148c6.444-4.674,11.153-13.882,12.921-25.264C5727.9,1447.347,5726.6,1441.371,5723.075,1436.912Zm1.1,16.865c-1.654,10.683-5.972,19.245-11.846,23.491a12.328,12.328,0,0,1-9.28,2.5c-2.373-.4-4.007-.768-4.961-1.007a7.66,7.66,0,0,0-3.8,0c-.959.24-2.6.609-4.962,1.007a12.249,12.249,0,0,1-9.281-2.5c-5.875-4.247-10.193-12.809-11.847-23.491-.945-6.089.165-11.34,3.208-15.188a15.578,15.578,0,0,1,11.179-5.8c.568-.048,1.182-.07,1.933-.07a20.613,20.613,0,0,1,8.508,1.735,7.669,7.669,0,0,0,6.318,0,21.349,21.349,0,0,1,10.442-1.665,15.574,15.574,0,0,1,11.177,5.8C5724.009,1442.437,5725.119,1447.688,5724.173,1453.777Z"/><path class="b" d="M5681.938,1420.132c5,4.121,11.716,4.329,13.013,4.329l.246,0h.048a1.349,1.349,0,0,0,1.285-1.556c-.05-.312-1.272-7.7-6.776-12.244-4.938-4.076-11.582-4.329-13.142-4.329h-.164a1.346,1.346,0,0,0-1.283,1.557C5675.215,1408.2,5676.456,1415.608,5681.938,1420.132Zm11.543,1.566a15.937,15.937,0,0,1-15.27-12.6,15.925,15.925,0,0,1,15.27,12.6Z"/><path class="b" d="M5683.687,1435.409a13.937,13.937,0,0,0-9.671,5.5c-2.521,3.481-3.3,8.21-2.261,13.675a1.346,1.346,0,0,0,1.319,1.1,1.161,1.161,0,0,0,.251-.027,1.342,1.342,0,0,0,1.072-1.569c-.9-4.726-.275-8.736,1.8-11.594a11.274,11.274,0,0,1,7.839-4.421,1.344,1.344,0,0,0,1.161-1.505A1.35,1.35,0,0,0,5683.687,1435.409Z"/></g></svg>