<svg xmlns="http://www.w3.org/2000/svg" width="62.006" height="84.315" viewBox="0 0 62.006 84.315"><defs><style>.a{fill:#183b8d;}</style></defs><g transform="translate(-3704.294 -6210.566)"><path class="a" d="M3717.958,6220.734h34.684a1.275,1.275,0,0,0,0-2.543h-34.684a1.274,1.274,0,0,0,0,2.543Zm0,0"/><path class="a" d="M3708.021,6210.566a3.864,3.864,0,0,0-3.727,3.983V6290.9a3.876,3.876,0,0,0,3.727,3.984h54.552a3.868,3.868,0,0,0,3.727-3.984v-76.348a3.862,3.862,0,0,0-3.727-3.983Zm55.9,80.331a1.4,1.4,0,0,1-1.348,1.44h-54.547a1.4,1.4,0,0,1-1.347-1.44v-64.045h57.251Zm-1.343-77.793a1.4,1.4,0,0,1,1.352,1.445v9.76h-57.251v-9.76a1.4,1.4,0,0,1,1.347-1.445Zm0,0"/><path class="a" d="M3728.319,6240.861h28.12a1.273,1.273,0,0,0,0-2.541h-28.12a1.273,1.273,0,0,0,0,2.541Zm0,0"/><path class="a" d="M3728.319,6254.126h28.12a1.275,1.275,0,0,0,0-2.544h-28.12a1.275,1.275,0,0,0,0,2.544Zm0,0"/><path class="a" d="M3728.319,6267.38h28.12a1.274,1.274,0,0,0,0-2.543h-28.12a1.274,1.274,0,0,0,0,2.543Zm0,0"/><path class="a" d="M3728.319,6280.632h28.12a1.272,1.272,0,0,0,0-2.538h-28.12a1.272,1.272,0,0,0,0,2.538Zm0,0"/><path class="a" d="M3716.458,6241.572a1.192,1.192,0,0,0,.793.526h.177a1.157,1.157,0,0,0,.73-.27l7.577-6.329a1.321,1.321,0,0,0,.434-1.737,1.157,1.157,0,0,0-1.892-.241l-6.591,5.512-1.15-1.753a1.138,1.138,0,0,0-1.655-.315,1.325,1.325,0,0,0-.3,1.769Zm0,0"/><path class="a" d="M3716.458,6254.639a1.191,1.191,0,0,0,.793.531h.177a1.157,1.157,0,0,0,.73-.275l7.577-6.329a1.327,1.327,0,0,0,.252-1.779,1.135,1.135,0,0,0-1.662-.265c-.018.013-.038.03-.055.045l-6.584,5.515-1.15-1.753a1.155,1.155,0,0,0-1.593-.572,1.313,1.313,0,0,0-.532,1.708,1.255,1.255,0,0,0,.175.278Zm0,0"/><path class="a" d="M3716.458,6267.746a1.2,1.2,0,0,0,.793.524h.177a1.144,1.144,0,0,0,.73-.273l7.577-6.329a1.328,1.328,0,0,0,.252-1.779,1.138,1.138,0,0,0-1.662-.268c-.018.017-.038.03-.055.046l-6.592,5.5-1.147-1.753a1.143,1.143,0,0,0-1.658-.313,1.33,1.33,0,0,0-.3,1.772Zm0,0"/><path class="a" d="M3716.458,6281a1.21,1.21,0,0,0,.793.527h.177a1.213,1.213,0,0,0,.73-.273l7.577-6.332a1.329,1.329,0,0,0,.375-1.755,1.15,1.15,0,0,0-1.643-.4,1.128,1.128,0,0,0-.19.16l-6.591,5.507-1.15-1.753a1.138,1.138,0,0,0-1.655-.313,1.325,1.325,0,0,0-.3,1.769Zm0,0"/></g></svg>