<svg xmlns="http://www.w3.org/2000/svg" width="95.58" height="95.58" viewBox="0 0 95.58 95.58"><defs><style>.a{fill:none;stroke:#00bedb;stroke-linecap:round;stroke-miterlimit:10;stroke-width:3px;}.b{fill:#183b8d;}</style></defs><g transform="translate(-298.931 -2881.854)"><circle class="a" cx="46.29" cy="46.29" r="46.29" transform="translate(300.431 2883.354)"/><g transform="translate(-2304.055)"><path class="b" d="M2654.111,2940.826a1.325,1.325,0,0,0-1.791-1.341,4.359,4.359,0,0,1-3.091,0,1.338,1.338,0,0,0-1.263.18,1.311,1.311,0,0,0-.523,1.169,71.14,71.14,0,0,1-.034,10.506,1.323,1.323,0,1,0,2.635.245,68.8,68.8,0,0,0,.142-9.193,7.053,7.053,0,0,0,1.18,0,68.8,68.8,0,0,0,.141,9.193,1.316,1.316,0,0,0,1.315,1.2l.125-.007a1.321,1.321,0,0,0,1.194-1.44A71.121,71.121,0,0,1,2654.111,2940.826Z"/><path class="b" d="M2670.252,2920.967c-.2-.855-.441-1.734-.711-2.7a67.66,67.66,0,0,1-2.21-10.608,1.324,1.324,0,0,0-2.626.338,70.8,70.8,0,0,0,2.286,10.982c.141.5.272.981.4,1.445a48.145,48.145,0,0,1-33.219,0c.122-.463.253-.939.394-1.444a70.343,70.343,0,0,0,2.285-10.984,1.322,1.322,0,0,0-1.151-1.481,1.339,1.339,0,0,0-1.475,1.145,68.249,68.249,0,0,1-2.207,10.61c-.271.967-.514,1.844-.713,2.7l-.365,1.55a58.469,58.469,0,0,0-.48,29.233,1.317,1.317,0,0,0,1.291,1.036,1.42,1.42,0,0,0,.288-.031,1.328,1.328,0,0,0,1.007-1.579c-2.99-13.5-1.072-21.567.471-28.051l.027-.115a57.078,57.078,0,0,0,17.238,3.016,56.372,56.372,0,0,0,17.237-3.011l.027.116c1.542,6.478,3.46,14.542.471,28.046a1.326,1.326,0,0,0,1.013,1.58,1.448,1.448,0,0,0,.28.029,1.316,1.316,0,0,0,1.291-1.037,58.452,58.452,0,0,0-.479-29.229Z"/><path class="b" d="M2650.777,2918a1.325,1.325,0,0,0,1.322-1.324v-2.247a1.324,1.324,0,1,0-2.647,0v2.247A1.327,1.327,0,0,0,2650.777,2918Z"/><path class="b" d="M2674.042,2914.077l3.6-3.489a1.324,1.324,0,0,0-1.845-1.9l-4.579,4.441a1.326,1.326,0,0,0,0,1.9l4.578,4.439a1.325,1.325,0,0,0,1.843-1.9Z"/><path class="b" d="M2683.088,2912.755h-5.368a1.323,1.323,0,1,0,0,2.646h5.368a1.323,1.323,0,0,0,0-2.646Z"/><path class="b" d="M2630.733,2914.077a1.332,1.332,0,0,0-.4-.949l-4.578-4.441a1.325,1.325,0,0,0-1.843,1.9l3.6,3.487-3.6,3.488a1.325,1.325,0,0,0,1.846,1.9l4.576-4.439A1.331,1.331,0,0,0,2630.733,2914.077Z"/><path class="b" d="M2625.157,2914.077a1.324,1.324,0,0,0-1.323-1.322h-5.369a1.323,1.323,0,1,0,0,2.646h5.369A1.324,1.324,0,0,0,2625.157,2914.077Z"/></g></g></svg>