<svg xmlns="http://www.w3.org/2000/svg" width="62.005" height="84.316" viewBox="0 0 62.005 84.316"><defs><style>.a{fill:#183b8d;}</style></defs><g transform="translate(-8485.905 -5850.679)"><path class="a" d="M8499.568,5860.848h34.684a1.275,1.275,0,0,0,0-2.544h-34.684a1.275,1.275,0,0,0,0,2.544Zm0,0"/><path class="a" d="M8489.632,5850.679a3.864,3.864,0,0,0-3.727,3.984v76.348a3.875,3.875,0,0,0,3.727,3.984h54.551a3.869,3.869,0,0,0,3.728-3.984v-76.348a3.863,3.863,0,0,0-3.728-3.984Zm55.895,80.332a1.4,1.4,0,0,1-1.349,1.44h-54.546a1.4,1.4,0,0,1-1.347-1.44v-64.045h57.25Zm-1.344-77.793a1.4,1.4,0,0,1,1.353,1.445v9.76h-57.25v-9.76a1.4,1.4,0,0,1,1.347-1.445Zm0,0"/><path class="a" d="M8509.93,5880.975h28.119a1.273,1.273,0,0,0,0-2.541H8509.93a1.273,1.273,0,0,0,0,2.541Zm0,0"/><path class="a" d="M8509.93,5894.24h28.119a1.275,1.275,0,0,0,0-2.544H8509.93a1.275,1.275,0,0,0,0,2.544Zm0,0"/><path class="a" d="M8509.93,5907.494h28.119a1.274,1.274,0,0,0,0-2.543H8509.93a1.274,1.274,0,0,0,0,2.543Zm0,0"/><path class="a" d="M8509.93,5920.746h28.119a1.272,1.272,0,0,0,0-2.538H8509.93a1.272,1.272,0,0,0,0,2.538Zm0,0"/><path class="a" d="M8498.069,5881.685a1.177,1.177,0,0,0,.792.526h.177a1.152,1.152,0,0,0,.729-.269l7.577-6.33a1.32,1.32,0,0,0,.435-1.736,1.143,1.143,0,0,0-1.624-.463,1.121,1.121,0,0,0-.269.222l-6.591,5.512-1.149-1.753a1.138,1.138,0,0,0-1.655-.315,1.327,1.327,0,0,0-.295,1.769Zm0,0"/><path class="a" d="M8498.069,5894.753a1.186,1.186,0,0,0,.792.531h.177a1.154,1.154,0,0,0,.729-.275l7.577-6.329a1.327,1.327,0,0,0,.252-1.779,1.134,1.134,0,0,0-1.662-.265.632.632,0,0,0-.055.045l-6.584,5.515-1.149-1.753a1.156,1.156,0,0,0-1.594-.572,1.312,1.312,0,0,0-.531,1.707,1.326,1.326,0,0,0,.175.279Zm0,0"/><path class="a" d="M8498.069,5907.86a1.191,1.191,0,0,0,.792.524h.177a1.14,1.14,0,0,0,.729-.273l7.577-6.329a1.327,1.327,0,0,0,.252-1.779,1.137,1.137,0,0,0-1.662-.268c-.018.017-.037.03-.055.046l-6.592,5.5-1.147-1.752a1.142,1.142,0,0,0-1.657-.313,1.329,1.329,0,0,0-.295,1.771Zm0,0"/><path class="a" d="M8498.069,5921.115a1.205,1.205,0,0,0,.792.527h.177a1.212,1.212,0,0,0,.729-.273l7.577-6.333a1.327,1.327,0,0,0,.375-1.755,1.15,1.15,0,0,0-1.833-.235l-6.591,5.507-1.149-1.753a1.139,1.139,0,0,0-1.655-.313,1.327,1.327,0,0,0-.295,1.769Zm0,0"/></g></svg>