<svg xmlns="http://www.w3.org/2000/svg" width="90.275" height="90.276" viewBox="0 0 90.275 90.276"><defs><style>.a{fill:none;stroke:#00bedb;stroke-linecap:round;stroke-miterlimit:10;stroke-width:3px;}.b{fill:#183b8d;}</style></defs><g transform="translate(-314.559 -3746.298)"><path class="a" d="M2707.389,3791.436a43.637,43.637,0,1,1-43.638-43.638A43.639,43.639,0,0,1,2707.389,3791.436Z" transform="translate(-2304.055)"/><g transform="translate(-2304.055)"><path class="b" d="M2681.815,3785.258l-4.268-1.084a1.3,1.3,0,0,0,1-.906l3.313-11.266a1.329,1.329,0,0,0-.112-1.018,1.313,1.313,0,0,0-.808-.633l-5-1.37a1.331,1.331,0,0,0-1.005.127,1.309,1.309,0,0,0-.619.8l-1.129,4.061.059-5.849a1.326,1.326,0,0,0-1.3-1.335l-5.612-.1a1.374,1.374,0,0,0-1.293,1.3l-.06,3.229-.968-.173.757-6.986a1.321,1.321,0,0,0-1.219-1.461l-5.731-.421a1.358,1.358,0,0,0-1.4,1.188l-1.074,10.634-1.421-6.682a1.328,1.328,0,0,0-1.538-1.032l-5.456,1.029a1.322,1.322,0,0,0-1.047,1.586l3.138,14.257a1.32,1.32,0,0,0,1.052,1l-4.394,1.116a1.324,1.324,0,0,0-.987,1.458l4.377,32.843a1.328,1.328,0,0,0,1.312,1.147h26.723a1.327,1.327,0,0,0,1.311-1.147l4.376-32.843A1.322,1.322,0,0,0,2681.815,3785.258Zm-30.793,1.378a.591.591,0,0,1,.727.415c1.235,4.609,6.283,7.955,12,7.955s10.768-3.346,12-7.957a.59.59,0,0,1,.731-.412l3.535.9-4.068,30.527h-24.405l-4.066-30.527Zm.418-3.061a1.3,1.3,0,0,0,.177-1l-2.846-12.926,2.843-.535,2.869,13.5-.273,2.7a1.323,1.323,0,0,0,2.633.266l2.091-20.69,3.064.226-2.728,25.186a1.328,1.328,0,0,0,1.179,1.459l.139.006a1.322,1.322,0,0,0,1.314-1.179l1.832-16.924,1.2.215-.006.54v.048l-.177,15.961a1.32,1.32,0,0,0,1.314,1.339h.01a1.327,1.327,0,0,0,1.324-1.305l.176-16.024.095-5.1,2.921.054-.177,17.437a1.325,1.325,0,0,0,1.314,1.337h.009a1.3,1.3,0,0,0,.837-.322c-1.519,2.679-4.961,4.5-8.823,4.5-4.544,0-8.516-2.52-9.446-5.993a3.262,3.262,0,0,0-3.287-2.391A1.307,1.307,0,0,0,2651.44,3783.575Zm21.758,2.792c-.038.141-.089.277-.136.415l.026-2.558,3.429-12.341,2.428.665-2.933,9.971a1.263,1.263,0,0,0,.557,1.467A3.252,3.252,0,0,0,2673.2,3786.367Z"/><path class="b" d="M2657.618,3810.563a1.312,1.312,0,0,0,.616-.151,1.328,1.328,0,0,0,.556-1.787,5.518,5.518,0,0,1-.639-2.6,5.608,5.608,0,0,1,5.6-5.6,1.323,1.323,0,0,0,0-2.647,8.252,8.252,0,0,0-7.307,12.078A1.321,1.321,0,0,0,2657.618,3810.563Z"/><path class="b" d="M2669.352,3806.025a5.607,5.607,0,0,1-5.6,5.6,5.551,5.551,0,0,1-3.446-1.185,1.324,1.324,0,1,0-1.631,2.085,8.168,8.168,0,0,0,5.077,1.746,8.257,8.257,0,0,0,8.248-8.248,1.324,1.324,0,0,0-2.648,0Z"/><path class="b" d="M2668.8,3803.587a1.316,1.316,0,0,0,1.19.747,1.271,1.271,0,0,0,.575-.133,1.318,1.318,0,0,0,.615-1.767,8.225,8.225,0,0,0-1.59-2.239,1.316,1.316,0,0,0-.937-.388h0a1.321,1.321,0,0,0-.931,2.257A5.723,5.723,0,0,1,2668.8,3803.587Z"/></g></g></svg>