<svg xmlns="http://www.w3.org/2000/svg" width="65.448" height="82.978" viewBox="0 0 65.448 82.978"><defs><style>.a{fill:#183b8d;}</style></defs><g transform="translate(-3231.331 -6212.111)"><path class="a" d="M3286.791,6272.252l3.861-3.86a20.919,20.919,0,0,0,0-29.584l-3.861-3.86,2.858-2.859a20.781,20.781,0,0,0,6.127-14.792,5.186,5.186,0,1,0-10.372,0,10.68,10.68,0,0,1-.21,2.107H3273.72a10.68,10.68,0,0,1-.21-2.107,5.186,5.186,0,0,0-10.372,0,20.782,20.782,0,0,0,6.127,14.792l2.858,2.859-3.861,3.86a20.943,20.943,0,0,0,0,29.584l3.86,3.86-2.857,2.858a20.786,20.786,0,0,0-6.127,14.793,5.186,5.186,0,0,0,10.372,0,10.7,10.7,0,0,1,.21-2.108h11.474a10.7,10.7,0,0,1,.21,2.108,5.186,5.186,0,1,0,10.372,0,20.785,20.785,0,0,0-6.127-14.793Zm3.8-56.9a1.946,1.946,0,0,1,1.945,1.944,17.565,17.565,0,0,1-5.178,12.5l-2.858,2.857-2.75-2.75,2.858-2.857a13.7,13.7,0,0,0,4.038-9.751,1.947,1.947,0,0,1,1.945-1.944Zm-6.639,7.293a10.682,10.682,0,0,1-1.636,2.109l-2.858,2.858-2.858-2.858a10.677,10.677,0,0,1-1.635-2.109Zm-17.572-5.349a1.945,1.945,0,0,1,3.89,0,13.7,13.7,0,0,0,4.038,9.751l14.052,14.051a17.679,17.679,0,0,1,0,25l-3.86,3.86-2.75-2.751,3.86-3.86a13.79,13.79,0,0,0,0-19.5l-14.052-14.052a17.566,17.566,0,0,1-5.178-12.5Zm9.218,43.761a10.511,10.511,0,0,1-1.521-1.927h10.766a10.62,10.62,0,0,1-1.524,1.927l-3.861,3.861Zm7.721-14.916a10.657,10.657,0,0,1,1.55,1.968H3274.05a10.518,10.518,0,0,1,1.547-1.968l3.861-3.86Zm-10.562,5.21h13.409a10.549,10.549,0,0,1-.01,4.538h-13.39a10.634,10.634,0,0,1-.009-4.538Zm-4.432,40.5a1.948,1.948,0,0,1-1.945-1.945,17.562,17.562,0,0,1,5.178-12.5l2.858-2.857,2.75,2.75-2.858,2.858a13.7,13.7,0,0,0-4.038,9.75,1.947,1.947,0,0,1-1.945,1.945Zm6.64-7.294a10.609,10.609,0,0,1,1.635-2.109l2.858-2.858,2.858,2.858a10.614,10.614,0,0,1,1.636,2.109Zm15.626,7.294a1.947,1.947,0,0,1-1.945-1.945,13.694,13.694,0,0,0-4.038-9.75l-14.052-14.052a17.7,17.7,0,0,1,0-25l3.86-3.86,2.75,2.75-3.86,3.861a13.8,13.8,0,0,0,0,19.5l14.052,14.052a17.561,17.561,0,0,1,5.178,12.5,1.948,1.948,0,0,1-1.945,1.945Zm0,0"/><path class="a" d="M3253.7,6212.111h-20.745a1.621,1.621,0,0,0-1.621,1.621v20.744a1.621,1.621,0,0,0,1.621,1.621h1.3v49.917a9.075,9.075,0,0,0,18.151,0v-7.347a1.62,1.62,0,1,0-3.241,0v7.347a5.834,5.834,0,0,1-11.669,0v-30.773h11.669v8.84a1.62,1.62,0,0,0,3.241,0V6236.1h1.3a1.62,1.62,0,0,0,1.62-1.621v-20.744a1.62,1.62,0,0,0-1.62-1.621Zm-1.621,20.745H3248.4v-17.5h3.674Zm-10.588,0v-17.5h3.673v17.5Zm-6.915-17.5h3.673v17.5h-3.673ZM3249.159,6252H3237.49v-15.9h11.669Zm0,0"/><path class="a" d="M3250.78,6269.754a1.618,1.618,0,1,0,1.147.474,1.627,1.627,0,0,0-1.147-.474Zm0,0"/></g></svg>