<svg xmlns="http://www.w3.org/2000/svg" width="376" height="376" viewBox="0 0 376 376"><defs><style>.a{fill:#00bedb;}.b{fill:#183b8d;}</style></defs><g transform="translate(-402.457 -2152.691)"><circle class="a" cx="188" cy="188" r="188" transform="translate(402.457 2152.691)"/><g transform="translate(-2304.055)"><path class="b" d="M2943.379,2460.425a7.194,7.194,0,0,1-7.186-7.186V2253.652c-12.462,22.53-28.855,58.7-22.834,84.433a33.934,33.934,0,0,0,17.428,22.8,7.184,7.184,0,1,1-6.921,12.592c-12.938-7.1-21.182-17.909-24.5-32.124-10.865-46.464,36.121-114.533,38.127-117.408a7.185,7.185,0,0,1,13.08,4.111v225.186A7.2,7.2,0,0,1,2943.379,2460.425Z"/><path class="b" d="M2877.55,2230.456a7.194,7.194,0,0,0-7.186,7.185v66.765c0,7.34-7.32,13.311-16.318,13.311s-16.327-5.971-16.327-13.311v-66.765a7.186,7.186,0,0,0-14.372,0v66.765c0,13.034,10.04,23.985,23.509,26.913v121.92a7.188,7.188,0,0,0,14.375,0v-121.92c13.467-2.926,23.505-13.879,23.505-26.913v-66.765A7.194,7.194,0,0,0,2877.55,2230.456Z"/><path class="b" d="M2854.046,2310.62a7.193,7.193,0,0,0,7.185-7.185v-65.792a7.188,7.188,0,0,0-14.375,0v65.792A7.2,7.2,0,0,0,2854.046,2310.62Z"/></g></g></svg>