<svg xmlns="http://www.w3.org/2000/svg" width="72.194" height="99.636" viewBox="0 0 72.194 99.636"><defs><style>.a{fill:#183b8d;}.b{fill:none;stroke:#183b8d;stroke-linecap:round;stroke-linejoin:round;stroke-width:1.5px;}</style></defs><g transform="translate(-8009.568 -5377.695)"><path class="a" d="M8056.194,5406.719a16.1,16.1,0,0,0-3.516.387l2.666-9.906H8048.7a4.926,4.926,0,0,0-4.752,3.625l-2.056,7.427a20.554,20.554,0,0,0,2.9-.27,16.955,16.955,0,0,1-15.065,1.174l-2.873,10.376a16.074,16.074,0,0,0,11.54,1.436l-2.709,10.091h6.74a4.813,4.813,0,0,0,4.643-3.548l1.952-7.157a15.957,15.957,0,0,0-4.478,1.154,16.024,16.024,0,0,1,4.926-2.8v0c.064-.023.129-.042.193-.064.118-.04.236-.08.356-.117.095-.03.191-.057.286-.085.123-.036.244-.071.368-.1.1-.026.194-.049.292-.073.123-.03.246-.061.371-.089.1-.022.2-.041.307-.062.122-.024.243-.049.365-.071s.222-.035.333-.052.232-.037.349-.053.249-.028.374-.042c.106-.011.212-.025.319-.034.146-.013.295-.021.443-.03.086,0,.172-.013.259-.016.236-.011.473-.016.711-.016h.016c.277,0,.552.008.825.022.084,0,.167.013.251.019.194.013.388.026.579.046.094.009.186.024.28.035.18.022.361.043.54.071.092.015.184.033.276.05.178.031.356.061.531.1.089.019.176.041.265.061.177.04.354.081.529.127.085.022.169.048.253.072.176.049.351.1.525.154.081.026.162.055.243.083.173.058.346.117.517.181.08.03.159.063.239.094.168.067.336.134.5.206.024.01.048.018.071.029l2.863-10.343A15.947,15.947,0,0,0,8056.194,5406.719Z"/><path class="b" d="M8043.684,5378.507a35.346,35.346,0,0,0-32.112,44.62l-.109-.07s6.608,23.788,34.2,53.524c0,0,24.812-27.028,33.26-50.661a27.045,27.045,0,0,0,1.235-4.392,35.336,35.336,0,0,0-36.47-43.021Z"/></g></svg>