<svg xmlns="http://www.w3.org/2000/svg" width="89.726" height="89.725" viewBox="0 0 89.726 89.725"><defs><style>.a{fill:none;stroke:#00bedb;stroke-linecap:round;stroke-miterlimit:10;stroke-width:3px;}.b{fill:#183b8d;}</style></defs><g transform="translate(-1218.131 -3530.961)"><path class="a" d="M3610.412,3575.823a43.363,43.363,0,1,1-43.363-43.362A43.363,43.363,0,0,1,3610.412,3575.823Z" transform="translate(-2304.055)"/><g transform="translate(-2304.055)"><path class="b" d="M3585.079,3570.6a12.409,12.409,0,0,0-8.9-4.633,16.159,16.159,0,0,0-7.5,1.091,9.534,9.534,0,0,1,9.388-7.969,1.288,1.288,0,1,0,0-2.575,12.116,12.116,0,0,0-12.028,10.794c-.059-.022-.121-.032-.178-.058a16.106,16.106,0,0,0-7.948-1.283,12.411,12.411,0,0,0-8.9,4.631c-2.39,3.023-3.274,7.065-2.556,11.689,1.182,7.614,4.344,13.776,8.675,16.906a10.669,10.669,0,0,0,6.224,2.154,9.376,9.376,0,0,0,1.523-.125c1.621-.269,2.766-.528,3.442-.7a2.937,2.937,0,0,1,1.442,0c.677.169,1.824.428,3.443.7a10.257,10.257,0,0,0,7.746-2.027c4.332-3.132,7.494-9.3,8.675-16.907C3588.353,3577.666,3587.469,3573.625,3585.079,3570.6Zm-13.445,28.082c-1.547-.257-2.614-.5-3.236-.656a5.572,5.572,0,0,0-2.7,0c-.629.159-1.7.4-3.238.655a7.686,7.686,0,0,1-5.812-1.575c-3.778-2.731-6.563-8.278-7.64-15.216-.606-3.9.1-7.247,2.031-9.694a9.876,9.876,0,0,1,7.08-3.663c.429-.033.844-.05,1.242-.05a13.225,13.225,0,0,1,5.441,1.11,5.429,5.429,0,0,0,4.49,0,13.54,13.54,0,0,1,6.687-1.06,9.872,9.872,0,0,1,7.079,3.663c1.934,2.448,2.637,5.8,2.031,9.694-1.077,6.94-3.863,12.486-7.641,15.216A7.7,7.7,0,0,1,3571.634,3598.683Z"/><path class="b" d="M3557.408,3560.1a14.818,14.818,0,0,0,8.828,2.946l.207,0a1.289,1.289,0,0,0,1.228-1.489,14.866,14.866,0,0,0-4.6-8.312c-3.451-2.848-8.116-2.938-9.035-2.943a1.288,1.288,0,0,0-1.228,1.487A14.728,14.728,0,0,0,3557.408,3560.1Zm4.02-4.873a3.2,3.2,0,1,1-5.658-2.244A11.3,11.3,0,0,1,3561.428,3555.229Z"/><path class="b" d="M3558.763,3569.459a9.582,9.582,0,0,0-6.644,3.79c-1.727,2.385-2.266,5.607-1.559,9.318a1.286,1.286,0,0,0,1.263,1.05,1.153,1.153,0,0,0,.24-.024,1.287,1.287,0,0,0,1.026-1.5c-.57-3-.185-5.534,1.115-7.327a7.022,7.022,0,0,1,4.889-2.749,1.266,1.266,0,0,0,.853-.487,1.288,1.288,0,0,0-1.183-2.067Z"/></g></g></svg>