<svg xmlns="http://www.w3.org/2000/svg" width="90.275" height="90.276" viewBox="0 0 90.275 90.276"><defs><style>.a{fill:none;stroke:#00bedb;stroke-linecap:round;stroke-miterlimit:10;stroke-width:3px;}.b{fill:#183b8d;}</style></defs><g transform="translate(-1222.555 -3751.017)"><path class="a" d="M3615.385,3796.155a43.637,43.637,0,1,1-43.638-43.638A43.638,43.638,0,0,1,3615.385,3796.155Z" transform="translate(-2304.055)"/><g transform="translate(-2304.055)"><path class="b" d="M3590.468,3804.138v-3.507q0-8.921-.014-17.837c0-.7-4.449-9.764-4.944-10.767a46.69,46.69,0,0,1-.266-5.069,1.8,1.8,0,0,0-2.005-1.985q-11.5,0-23,.01a1.779,1.779,0,0,0-1.978,1.943c0,.545,0,1.089,0,1.633,0,.819,0,1.638-.017,2.457,0,.1,0,.234,0,.387a4.77,4.77,0,0,1-.058,1.127c-.748,1.519-1.563,2.925-2.351,4.285-.807,1.393-1.64,2.832-2.41,4.4a3.8,3.8,0,0,0-.38,1.612c-.019,13.083-.022,25.154-.025,38.037v4.273c0,1.551.629,2.185,2.171,2.186l33.094.011h.006a2.327,2.327,0,0,0,1.672-.5,2.285,2.285,0,0,0,.512-1.667v-20.532Zm-26.609-19.969v40.861h-8.393v-40.861Zm24.094-2.178h-21.788l-3.677-8.386,21.352,0Zm-27.357-10.567V3767.3h22.469v4.125Zm2.987,10.567h-7.755l4.227-7.769Zm24.672,2.178v40.861h-21.918v-40.861Z"/><path class="b" d="M3569.2,3803.31a6.142,6.142,0,0,1,.678.058,5.358,5.358,0,0,0,.8.059,2.692,2.692,0,0,0,.782-.107,2.724,2.724,0,0,0,.515-.239c.05,1.1.2,4.138.276,5.529l.011.249a6.866,6.866,0,0,0,.071.853,3.833,3.833,0,0,0,3.651,3.172h.62l.814,0c.419,0,.839,0,1.258-.008a3.818,3.818,0,0,0,.914-.117,4.124,4.124,0,0,0,2.885-3.332c.068-.756.1-1.525.136-2.268l.045-.936c.044-.85.125-2.4.164-3.129a1.585,1.585,0,0,0,.222.123,5.451,5.451,0,0,0,2.438.076l.2-.036.005-.2c0-.047.026-1.161-.009-1.721a1.958,1.958,0,0,0-.907-1.7,2.3,2.3,0,0,0-.319-.157,3.362,3.362,0,0,0,1.038-2.568l0-.247h-1.41v.25a2.66,2.66,0,0,1-.206.943c-.364.694-.792.916-1.762.917-8.237,0-9.616-.005-9.682-.006-.513-.088-1.72-.414-1.835-1.534l-.036-.569h-1.368l-.018.23a2.769,2.769,0,0,0,.86,2.645,2.382,2.382,0,0,0-1.02,1.557,4.967,4.967,0,0,0-.056.864c0,.1,0,.2,0,.3,0,.177,0,.356,0,.539v.507Zm1.514-2.406a1.561,1.561,0,0,1,1.244-.456,1.526,1.526,0,0,1-.389,1.239.656.656,0,1,1-.855-.783Zm6.656,6.109a4.77,4.77,0,0,1,3.435,1.466c0,.087-.007.175-.01.263a3.138,3.138,0,0,1-.165,1.1,2.1,2.1,0,0,1-1.956,1.3c-.6.006-2.509.01-3.028-.036a2.02,2.02,0,0,1-1.746-1.832l-.006-.08a5.864,5.864,0,0,1-.018-.747,4.65,4.65,0,0,1,2.579-1.362A5.456,5.456,0,0,1,3577.369,3807.013Zm-3.927-6.525h7.776c-.055,1.058-.109,2.06-.163,3.062-.051.938-.1,1.877-.153,2.862a6.313,6.313,0,0,0-7.145,0c-.052-1.01-.1-1.973-.156-2.938S3573.5,3801.519,3573.442,3800.488Zm9.452-.018a1.684,1.684,0,0,1,1.321.427,1.216,1.216,0,0,1,.293,1.011,1.563,1.563,0,0,1-1.221-.389A1.341,1.341,0,0,1,3582.894,3800.47Z"/><path class="b" d="M3575.381,3804.338h.009a.87.87,0,0,0,.87-.854.885.885,0,0,0-.857-.884h-.015a.883.883,0,0,0-.866.86.854.854,0,0,0,.243.614A.863.863,0,0,0,3575.381,3804.338Z"/><path class="b" d="M3579.242,3804.338h.01a.87.87,0,0,0,.869-.854.885.885,0,0,0-.857-.884h-.014a.885.885,0,0,0-.867.86.867.867,0,0,0,.859.878Z"/><path class="b" d="M3576.295,3808.565a.646.646,0,0,0,0,1.293.658.658,0,0,0,.647-.645.656.656,0,0,0-.647-.648Z"/><path class="b" d="M3577.7,3809.212a.646.646,0,0,0,.645.646.657.657,0,0,0,.647-.645.656.656,0,0,0-.647-.648h0A.646.646,0,0,0,3577.7,3809.212Z"/></g></g></svg>