<svg xmlns="http://www.w3.org/2000/svg" width="69.838" height="105.186" viewBox="0 0 69.838 105.186"><defs><style>.a{fill:#183b8d;}.b{fill:none;stroke:#183b8d;stroke-linecap:round;stroke-linejoin:round;stroke-width:1.5px;}</style></defs><g transform="translate(-7536.022 -5372.863)"><path class="a" d="M7564.185,5382a15.428,15.428,0,0,0-3.375.372l2.559-9.509h-6.375a4.73,4.73,0,0,0-4.561,3.48l-1.973,7.128a19.8,19.8,0,0,0,2.781-.259,15.3,15.3,0,0,1-8.161,2.345,15.584,15.584,0,0,1-1.9-.12,15.294,15.294,0,0,1-4.4-1.1l-2.758,9.959a15.423,15.423,0,0,0,11.077,1.378l-2.6,9.686h6.47a4.618,4.618,0,0,0,4.457-3.4l1.873-6.87a15.335,15.335,0,0,0-4.3,1.108,15.37,15.37,0,0,1,4.729-2.688v0c.061-.022.124-.04.185-.061.113-.039.227-.077.341-.113l.276-.081c.117-.034.234-.069.352-.1.093-.025.187-.047.281-.07.118-.029.236-.059.356-.085.1-.021.2-.04.294-.06.117-.023.233-.047.351-.068s.213-.034.32-.05.222-.036.335-.051.239-.027.358-.04c.1-.011.2-.024.306-.033.141-.012.284-.02.426-.028.083,0,.165-.013.248-.016q.341-.015.683-.015h.015q.4,0,.792.021c.081,0,.161.013.241.018.186.013.372.025.556.044.09.009.179.023.269.034.173.021.346.042.518.068.089.014.176.032.265.048.17.029.341.059.51.094.085.018.169.039.254.059.17.038.34.077.507.121.082.022.163.047.244.069.168.048.337.1.5.149.079.025.156.053.234.079.166.056.332.113.5.174.077.029.153.06.229.09.162.064.323.129.482.2l.067.027,2.749-9.927A15.305,15.305,0,0,0,7564.185,5382Z"/><path class="b" d="M7561.695,5447.507v-41.2a5.154,5.154,0,0,1,5.153-5.154h.421a5.154,5.154,0,0,1,5.154,5.154V5429.3a5.49,5.49,0,0,1,5.49-5.49h0a5.49,5.49,0,0,1,5.49,5.49v5.383a5.586,5.586,0,0,1,5.586-5.586h0a5.586,5.586,0,0,1,5.586,5.586v5.829a5.268,5.268,0,0,1,5.268-5.268h0a5.268,5.268,0,0,1,5.267,5.268v9.257a23.989,23.989,0,0,1-3.781,12.927l-2.8,4.37V5477.3h-31.024v-6.259l-8.783-9.778a17.417,17.417,0,0,1-4.461-11.639v-7.046a7.43,7.43,0,0,1,7.43-7.429h0Z"/></g></svg>