<svg xmlns="http://www.w3.org/2000/svg" width="89.726" height="89.725" viewBox="0 0 89.726 89.725"><defs><style>.a{fill:none;stroke:#00bedb;stroke-linecap:round;stroke-miterlimit:10;stroke-width:3px;}.b{fill:#183b8d;}</style></defs><g transform="translate(-305.803 -3417.105)"><path class="a" d="M2698.085,3461.968a43.363,43.363,0,1,1-43.363-43.363A43.363,43.363,0,0,1,2698.085,3461.968Z" transform="translate(-2304.055)"/><g transform="translate(-2304.055)"><path class="b" d="M2687.931,3463.386a13.739,13.739,0,0,0-3-5.089,22.266,22.266,0,0,0-8.317-5.551,1.019,1.019,0,0,0-1.415.472c-.177.308-.361.614-.544.92-.273.453-.545.906-.8,1.37-.446.818-.883,1.641-1.321,2.465-.45.846-.9,1.693-1.359,2.535a.941.941,0,0,1-1.156.436.885.885,0,0,1-.539-1.069,1.92,1.92,0,0,1,.05-.2,2.457,2.457,0,0,0,.086-.4,1.192,1.192,0,0,0-.887-1.379,1.234,1.234,0,0,0-1.49.633,3.49,3.49,0,1,0,6.244,3.12l.762-1.444c.76-1.447,1.546-2.944,2.4-4.367.084-.143.13-.185.127-.191a.47.47,0,0,1,.153.054,18.791,18.791,0,0,1,5.571,3.811l.01.009a11.452,11.452,0,0,1,2.941,4.588,3.592,3.592,0,0,1-1.938,4.611,14.5,14.5,0,0,1-6.432,1.274q-22.448,0-44.9,0a14.1,14.1,0,0,1-6.29-1.308,3.582,3.582,0,0,1-1.92-4.483,11.329,11.329,0,0,1,2.577-4.313,21.07,21.07,0,0,1,9.225-5.461l.273-.088a9.606,9.606,0,0,0,1.053-.386,1.219,1.219,0,0,0,.676-1.508,1.185,1.185,0,0,0-1.375-.876,2.568,2.568,0,0,0-.543.119,30.362,30.362,0,0,0-7.125,3.122,16.081,16.081,0,0,0-7.124,8.315,6.154,6.154,0,0,0,3.289,7.947,14.6,14.6,0,0,0,6.129,1.446c4.148.041,8.3.042,12.444.042h3.009q4.119,0,8.238-.009l13.009-.01q5.151,0,10.3-.007a15.438,15.438,0,0,0,6.518-1.463A6.224,6.224,0,0,0,2687.931,3463.386Z"/><path class="b" d="M2646.591,3460.934c-.5-.192-.666-.638-.48-1.326a1.27,1.27,0,0,0-.793-1.708c-.335-.11-1.165-.243-1.651.909a3.47,3.47,0,0,0,.794,3.757,2.9,2.9,0,0,0,.8.6,3.731,3.731,0,0,0,1.69.419,3.513,3.513,0,0,0,3.134-2.013c1.673-3.257,3.274-6.089,4.9-8.656a1.711,1.711,0,0,1,1.72-.956c.862.056,1.726.088,2.59.12.514.019,1.028.038,1.541.062,1.364.07,1.613-.738,1.64-1.222a1.217,1.217,0,0,0-.281-.919,1.6,1.6,0,0,0-1.169-.447c-.871-.047-1.743-.078-2.615-.11q-.885-.031-1.772-.068a3.9,3.9,0,0,0-3.651,1.88,98.645,98.645,0,0,0-5.122,9.008C2647.549,3460.866,2647.078,3461.118,2646.591,3460.934Z"/><path class="b" d="M2634.883,3460.937c-.322-.134-.724-.42-.5-1.351a1.238,1.238,0,0,0-.838-1.685,1.278,1.278,0,0,0-1.628.961,3.267,3.267,0,0,0,.382,3.238l.005,0a4.265,4.265,0,0,0,2.991,1.46,3.426,3.426,0,0,0,1.812-.543,4.5,4.5,0,0,0,1.563-2.024c1.13-2.268,2.466-4.646,4.2-7.485a1.831,1.831,0,0,1,1.536-.973c.718-.056,1.433-.131,2.148-.207.42-.045.84-.089,1.26-.129.274-.026.549-.046.823-.065s.565-.04.845-.068a1.235,1.235,0,0,0,1.286-1.39,1.284,1.284,0,0,0-1.53-1.17c-.1,0-.2,0-.3.013l-1.63.161c-1.079.106-2.159.213-3.24.308a4.278,4.278,0,0,0-3.43,2.216c-1.645,2.693-3.161,5.41-4.506,8.076C2635.84,3460.875,2635.346,3461.134,2634.883,3460.937Z"/><path class="b" d="M2659.834,3459.812a3.621,3.621,0,0,1-.521.856.866.866,0,0,1-1.1.222.926.926,0,0,1-.465-1.032,1.215,1.215,0,0,1,.039-.132,2.316,2.316,0,0,0,.068-.239,1.231,1.231,0,0,0-.8-1.576,1.273,1.273,0,0,0-1.632.812,3.6,3.6,0,0,0,.824,3.94l.018.018a3.483,3.483,0,0,0,2.355.9,3.983,3.983,0,0,0,.553-.04,3.827,3.827,0,0,0,2.871-2.38,83.53,83.53,0,0,1,4.186-7.485,1.315,1.315,0,0,1,1.613-.7c.849.171,1.7.36,2.545.547l.91.2c1.163.257,1.727-.326,1.858-.9.136-.6-.115-1.335-1.231-1.595-1.133-.263-2.355-.54-3.61-.776a3.823,3.823,0,0,0-4.337,1.94c-1.671,2.724-2.968,5.04-4.084,7.287Z"/></g></g></svg>