<svg xmlns="http://www.w3.org/2000/svg" width="121.327" height="107.366" viewBox="0 0 121.327 107.366"><defs><style>.a{fill:#183b8d;}</style></defs><g transform="translate(-7464.408 -2093.53)"><path class="a" d="M7561.077,2127.106c-8.456-8.831-14.908-12.184-19.737-10.243-6.579,2.647-6.638,14.322-6.638,14.817a1.242,1.242,0,0,0,2.484,0c0-2.912.912-10.835,5.084-12.51,2.556-1.025,7.589-.185,17.01,9.659,15.618,16.31,28.81,55.717,22.407,66.929-1.338,2.341-3.509,3.121-6.628,2.389l-3.257-.76c-15.369-3.568-34.5-8.011-35.242-16.284-.37-4.081-1.207-15.187-1.052-30.156a1.246,1.246,0,0,0-1.229-1.256,1.187,1.187,0,0,0-1.256,1.231c-.155,15.078.69,26.285,1.06,30.4.908,10.064,20.165,14.536,37.156,18.482l3.254.76a11.814,11.814,0,0,0,2.686.333,7.319,7.319,0,0,0,6.665-3.911C7590.782,2184.842,7577.587,2144.351,7561.077,2127.106Z"/><path class="a" d="M7548.472,2152.311c.209.652.589,5.165.87,8.463.269,3.166.5,5.9.674,6.885.257,1.434,1.878,2.184,3.49,2.184a5.242,5.242,0,0,0,.6-.035c1.758-.21,2.837-1.307,2.745-2.8-.041-.7-.242-1.977-.5-3.6-.37-2.35-1.1-6.986-.938-8.592a14.453,14.453,0,0,1,3.011,1.709c1.582,1.057,3.223,2.149,4.773,2.321a3.537,3.537,0,0,0,3.87-2.474,2.849,2.849,0,0,0-1.5-3.45c-2.43-1.2-12.821-6.768-15.178-8.283a33.091,33.091,0,0,1,6.238-5.14,3.69,3.69,0,0,0,1.912-3.424,3.153,3.153,0,0,0-1.862-2.729,3.817,3.817,0,0,0-3.938.912c-.6.509-4.246,3.363-6.476,5.068-.991.761-2.839,2.181-4.476,1.591-4.047-1.457-10.4-4.046-11.106-4.742a4.259,4.259,0,0,1-.908-2.219c-.844-9.654.121-39.043.132-39.34a1.058,1.058,0,0,0-1.416-1.027,11.7,11.7,0,0,1-3.425.592h0a11.729,11.729,0,0,1-3.429-.592,1.057,1.057,0,0,0-1.415,1.027c.011.3.978,29.686.132,39.339a4.242,4.242,0,0,1-.865,2.173c-.747.743-7.1,3.332-11.146,4.789-1.629.6-3.485-.83-4.61-1.694-2.217-1.692-5.779-4.49-6.348-4.965a3.8,3.8,0,0,0-3.933-.912,3.154,3.154,0,0,0-1.861,2.729,3.692,3.692,0,0,0,1.911,3.425,33,33,0,0,1,6.234,5.136c-2.389,1.536-12.75,7.092-15.176,8.286a2.854,2.854,0,0,0-1.5,3.45,3.522,3.522,0,0,0,3.871,2.474c1.553-.172,3.191-1.266,4.775-2.321a14.441,14.441,0,0,1,3.007-1.709c.163,1.606-.566,6.233-.933,8.579-.255,1.627-.458,2.914-.5,3.61-.091,1.489.985,2.586,2.744,2.8a5.737,5.737,0,0,0,.6.035c1.612,0,3.233-.75,3.49-2.184.172-.982.4-3.711.673-6.869.28-3.3.661-7.824.791-8.323.666-.784,6.175-3.3,11.506-5.735,2.435-1.114,5.073-2.318,7.753-3.578a9.226,9.226,0,0,1,4.137-.808c.03,0,.057-.011.086-.011s.059.013.089.011a9.21,9.21,0,0,1,4.135.808c2.682,1.26,5.32,2.467,7.756,3.578C7542.378,2149.167,7547.889,2151.684,7548.472,2152.311Zm-23.4-12.076a11.224,11.224,0,0,0-5.129,1.008c-2.67,1.255-5.3,2.457-7.728,3.566-9.773,4.463-12.1,5.625-12.527,6.768-.272.72-.524,3.435-1,9.034-.243,2.847-.491,5.79-.647,6.665a2.319,2.319,0,0,1-2.054.381c-.617-.154-.6-.411-.6-.52.036-.594.239-1.9.477-3.408,1.038-6.6,1.327-9.53.438-10.6a1.373,1.373,0,0,0-1.029-.508c-1.5-.1-3.053,1.023-4.741,2.147a11.326,11.326,0,0,1-3.836,1.981,1.434,1.434,0,0,1-1.61-.968.742.742,0,0,1,.4-.959c1.541-.758,15.068-7.888,16.159-8.982a1.375,1.375,0,0,0,.386-1.163c-.282-2.282-7.381-6.947-7.452-6.988a1.608,1.608,0,0,1-.887-1.471,1.066,1.066,0,0,1,.581-.925c.447-.191,1.082.026,1.75.588.633.531,4.323,3.422,6.545,5.12,1.22.935,3.754,2.888,6.486,1.908,1.126-.407,11.056-4.015,12.113-5.51a6.406,6.406,0,0,0,1.283-3.257c.76-8.656.111-32.047-.077-38.158a12.716,12.716,0,0,0,2.686.313h0a12.7,12.7,0,0,0,2.683-.313c-.187,6.111-.837,29.5-.078,38.158a6.39,6.39,0,0,0,1.286,3.255c1.053,1.5,10.986,5.1,12.114,5.512,2.72.97,5.259-.971,6.61-2,2.173-1.66,5.79-4.5,6.418-5.026.668-.558,1.311-.777,1.75-.586a1.066,1.066,0,0,1,.584.927,1.607,1.607,0,0,1-.887,1.467c-.071.043-7.172,4.709-7.455,6.99a1.38,1.38,0,0,0,.384,1.163c1.093,1.094,14.62,8.224,16.161,8.982a.745.745,0,0,1,.4.961,1.447,1.447,0,0,1-1.608.966,11.323,11.323,0,0,1-3.835-1.981c-1.687-1.123-3.278-2.252-4.744-2.147a1.369,1.369,0,0,0-1.028.508c-.891,1.067-.6,4,.44,10.609.237,1.5.44,2.8.477,3.4.006.109.021.366-.6.52a2.383,2.383,0,0,1-2.052-.37c-.158-.887-.407-3.838-.649-6.692-.474-5.588-.725-8.3-1-9.018-.429-1.143-2.758-2.3-12.525-6.765-2.43-1.11-5.063-2.313-7.733-3.569A11.236,11.236,0,0,0,7525.074,2140.235Z"/><path class="a" d="M7515.874,2149.687h-.013a1.245,1.245,0,0,0-1.228,1.256c.154,15-.684,26.086-1.052,30.156-.745,8.273-19.872,12.716-35.239,16.284l-3.259.76c-3.129.732-5.29-.048-6.629-2.389-6.4-11.212,6.791-50.619,22.407-66.929,9.412-9.833,14.432-10.725,17-9.736,4.6,1.782,5.05,10.739,5.1,12.518,0,.034.006.171.008.205a1.189,1.189,0,0,0,1.317,1.053,1.286,1.286,0,0,0,1.156-1.32c-.069-2.885-.762-12.481-6.683-14.774-4.794-1.864-11.245,1.516-19.689,10.335-16.506,17.245-29.7,57.736-22.764,69.879a7.322,7.322,0,0,0,6.664,3.911,11.846,11.846,0,0,0,2.688-.333l3.255-.76c16.99-3.946,36.244-8.418,37.151-18.482.371-4.1,1.217-15.289,1.061-30.4A1.245,1.245,0,0,0,7515.874,2149.687Z"/></g></svg>