<svg xmlns="http://www.w3.org/2000/svg" width="123.232" height="123.232" viewBox="0 0 123.232 123.232"><defs><style>.a{fill:none;stroke:#00bedb;stroke-linecap:round;stroke-miterlimit:10;stroke-width:3px;}.b{fill:#183b8d;}</style></defs><g transform="translate(-352.564 -1549.451)"><g transform="translate(-4643.172)"><circle class="a" cx="60.116" cy="60.116" r="60.116" transform="translate(4997.237 1550.951)"/><path class="b" d="M5093.223,1586.211l-14.766-14.762a7.668,7.668,0,0,0-11.227.413l-28.516,33.084a1.288,1.288,0,0,0,.064,1.754l19.19,19.192a1.289,1.289,0,0,0,1.755.064l33.081-28.518a7.669,7.669,0,0,0,.419-11.227Zm-16.59-12.939,14.764,14.763a5.088,5.088,0,0,1-.275,7.447l-32.176,27.737-17.5-17.495,27.734-32.175a5.035,5.035,0,0,1,3.67-1.761A4.919,4.919,0,0,1,5076.633,1573.272Z"/><path class="b" d="M5055.84,1626.728h0a1.276,1.276,0,0,0-.907.377l-2.009,2.007a7.581,7.581,0,0,1-10.464,0l-6.9-6.9a7.389,7.389,0,0,1,0-10.459l2.007-2.012a1.29,1.29,0,0,0-1.827-1.822l-2.006,2.007a9.975,9.975,0,0,0,0,14.111l6.9,6.9a9.982,9.982,0,0,0,14.113,0l2.008-2.007a1.289,1.289,0,0,0-.913-2.2Z"/><path class="b" d="M5044.928,1629.25a1.473,1.473,0,0,0,0-2.946h0a1.473,1.473,0,0,0,0,2.946Z"/><path class="b" d="M5046.833,1649.787h0a1.473,1.473,0,1,0,2.084,0A1.474,1.474,0,0,0,5046.832,1649.788Z"/><path class="b" d="M5035.569,1638.685a1.473,1.473,0,1,0-1.042-.431A1.467,1.467,0,0,0,5035.569,1638.685Z"/><path class="b" d="M5041.892,1624.741a1.473,1.473,0,1,0-1.041.431A1.457,1.457,0,0,0,5041.892,1624.741Z"/><path class="b" d="M5035.569,1646.709h0a1.474,1.474,0,0,0,0,2.947h0a1.474,1.474,0,0,0,0-2.947Z"/><path class="b" d="M5042.564,1642.476a1.473,1.473,0,1,0,2.083,0A1.467,1.467,0,0,0,5042.564,1642.476Z"/><path class="b" d="M5035.851,1618.7h0a1.473,1.473,0,0,0,2.084,2.083,1.473,1.473,0,0,0-2.083-2.084Z"/><path class="b" d="M5058.5,1616.783a1.291,1.291,0,0,0,1.82.134l26.277-22.65a1.292,1.292,0,0,0,.134-1.819,1.265,1.265,0,0,0-.875-.443,1.3,1.3,0,0,0-.943.308l-26.28,22.649A1.3,1.3,0,0,0,5058.5,1616.783Z"/></g></g></svg>