<svg xmlns="http://www.w3.org/2000/svg" width="254.121" height="145.237" viewBox="0 0 254.121 145.237"><defs><style>.a{fill:#00bedb;}</style></defs><g transform="translate(-693.174 -4746.287)"><g transform="translate(-7087.819)"><path class="a" d="M7827.6,4751.188H7794.06a2.45,2.45,0,0,1,0-4.9H7827.6a2.45,2.45,0,1,1,0,4.9"/><path class="a" d="M7816.987,4765.893h-33.544a2.45,2.45,0,0,1,0-4.9h33.544a2.45,2.45,0,1,1,0,4.9"/><path class="a" d="M7892.952,4879.053H7859.4a2.451,2.451,0,0,1,0-4.9h33.547a2.451,2.451,0,0,1,0,4.9"/><path class="a" d="M7883.147,4891.524h-33.541a2.45,2.45,0,1,1,0-4.9h33.541a2.45,2.45,0,0,1,0,4.9"/><path class="a" d="M8008.252,4879.416c-18.137,0-40.591-8.372-46.178-11.779-1.95-1.192-6.555-4.087-12.547-7.86-17.6-11.079-54.206-34.137-58.628-35.608-.785-.262-2.212-.657-4.1-1.18-23.639-6.585-47.811-15.047-47.811-27.9,0-1.186.358-1.5,2.7-3.57,3.055-2.7,11.166-9.877,12.82-13.732.639-1.5,1.41-3.875,2.221-6.393,3.081-9.523,5.567-16.412,9.593-18.334,6.093-2.91,9.793-.3,27.587,12.256s22.367,10.1,22.41,10.064c11.779-15.407,23-21.788,31.66-18.073,2.058.878,3.195,3.68,6.826,13.268,7.3,19.264,20.875,55.119,47.942,70.474,4.041,2.291,8.384,3.3,12.584,4.273,6.931,1.611,14.1,3.273,18.361,10.849,1.369,2.436,4.808,11.041-8.6,19.41-4.413,2.756-10.349,3.831-16.84,3.831m-164.28-83.375c1.244,6.939,16.081,14.41,44.145,22.227,1.995.555,3.5.974,4.332,1.253,4.59,1.532,32.006,18.677,59.689,36.108,5.959,3.752,10.538,6.639,12.483,7.825,7.657,4.663,43.82,16.756,57.875,7.974,9.456-5.9,7.991-10.951,6.921-12.849-3.206-5.7-8.494-6.924-15.2-8.477-4.329-1.006-9.239-2.142-13.893-4.785-28.6-16.226-42.6-53.16-50.11-73-1.756-4.645-3.573-9.445-4.454-10.613-6.314-2.4-15.57,3.6-25.462,16.535-2.271,2.942-8.864,5.462-29.224-8.913-16.753-11.823-19.367-13.393-22.646-11.837-2.43,1.162-5.433,10.436-7.038,15.418-.889,2.744-1.654,5.114-2.386,6.82-1.835,4.276-7.846,9.962-14.079,15.471l-.956.846m102.07-34.23.009,0-.009,0"/><path class="a" d="M7999.915,4887.012a125.045,125.045,0,0,1-26.689-3.149c-13.8-3.087-44.28-19.561-62.492-29.4-4.965-2.68-8.794-4.753-10.744-5.7-6.053-2.954-14.163-4.724-20.088-6.018-2.406-.526-4.45-.976-5.866-1.389-.331-.1-33.765-10.614-40.14-24.806-4.811-10.706,1.82-19.956,6-23.348a2.449,2.449,0,0,1,3.1,3.8c-.37.308-9.076,7.631-4.623,17.544,4.4,9.811,29.047,19.779,37.044,22.11,1.334.39,3.268.808,5.541,1.306,6.166,1.345,14.61,3.185,21.189,6.4,1.983.968,5.878,3.069,10.924,5.8,16.806,9.085,48.094,25.992,61.23,28.93,16.942,3.782,31.143,3.631,37.175,1.875,5.4-1.569,15.128-11.91,16.125-13.366a2.481,2.481,0,0,1,3.39-.686,2.424,2.424,0,0,1,.735,3.332c-.828,1.3-11.6,13.317-18.887,15.427a49.7,49.7,0,0,1-12.918,1.349"/><path class="a" d="M7936.551,4793.051a2.45,2.45,0,0,1-1.328-4.511c2.761-1.78,11.081-7.823,11.168-7.884a2.45,2.45,0,1,1,2.878,3.965c-.346.253-8.514,6.189-11.4,8.041a2.419,2.419,0,0,1-1.317.389"/><path class="a" d="M7947.362,4808.433a2.449,2.449,0,0,1-1.329-4.511c2.741-1.762,8.2-5.962,8.256-6a2.45,2.45,0,1,1,2.991,3.881c-.229.177-5.683,4.372-8.6,6.244a2.439,2.439,0,0,1-1.319.389"/><path class="a" d="M7958.178,4824.307a2.451,2.451,0,0,1-1.329-4.512c2.738-1.761,6.849-4.913,6.89-4.945a2.451,2.451,0,1,1,2.982,3.89c-.174.134-4.314,3.308-7.224,5.18a2.445,2.445,0,0,1-1.319.387"/></g></g></svg>