<svg xmlns="http://www.w3.org/2000/svg" width="90.275" height="90.276" viewBox="0 0 90.275 90.276"><defs><style>.a{fill:none;stroke:#00bedb;stroke-linecap:round;stroke-miterlimit:10;stroke-width:3px;}.b{fill:#183b8d;}</style></defs><g transform="translate(-1222.555 -3851.672)"><path class="a" d="M3615.385,3896.81a43.637,43.637,0,1,1-43.638-43.638A43.638,43.638,0,0,1,3615.385,3896.81Z" transform="translate(-2304.055)"/><g transform="translate(-2304.055)"><path class="b" d="M3572.326,3890.772A1.226,1.226,0,0,0,3571.1,3892v34.914a1.224,1.224,0,0,0,2.449,0V3892A1.226,1.226,0,0,0,3572.326,3890.772Z"/><path class="b" d="M3572.326,3889.7a4.5,4.5,0,0,0,4.491-4.491c0-2.072-3.062-7.866-3.411-8.518a1.2,1.2,0,0,0-1.078-.62h0a1.206,1.206,0,0,0-1.08.619c-.349.652-3.411,6.438-3.411,8.519A4.5,4.5,0,0,0,3572.326,3889.7Zm0-2.447a2.046,2.046,0,0,1-2.043-2.044,20.969,20.969,0,0,1,2.043-5.239,20.847,20.847,0,0,1,2.042,5.239A2.045,2.045,0,0,1,3572.326,3887.251Z"/><path class="b" d="M3574.79,3897.233a4.484,4.484,0,0,0,8.282-.361c.711-1.956-.186-8.431-.291-9.162a1.222,1.222,0,0,0-2.03-.737c-1.267,1.144-5.451,5.019-6.11,6.829A4.454,4.454,0,0,0,3574.79,3897.233Zm2.152-2.591a3.012,3.012,0,1,1,3.83,1.393,2.038,2.038,0,0,1-3.83-1.393Z"/><path class="b" d="M3563.9,3899.406a4.487,4.487,0,0,0,6.112-5.6c-.66-1.812-4.842-5.685-6.111-6.831a1.224,1.224,0,0,0-2.03.74c-.168,1.2-.974,7.28-.291,9.161A4.473,4.473,0,0,0,3563.9,3899.406Zm.108-8.981a20.858,20.858,0,0,1,3.7,4.217,2.038,2.038,0,1,1-3.832,1.392A20.867,20.867,0,0,1,3564.007,3890.425Z"/><path class="b" d="M3582.174,3900.919c-1.027.641-6.2,3.929-7.2,5.666a4.481,4.481,0,0,0,3.875,6.728,4.508,4.508,0,0,0,3.894-2.241c1.006-1.744,1.263-7.863,1.3-9.071a1.224,1.224,0,0,0-1.872-1.082Zm-.7,3.381a20.927,20.927,0,0,1-.848,5.547,2.038,2.038,0,1,1-3.531-2.037A20.854,20.854,0,0,1,3581.47,3904.3Z"/><path class="b" d="M3565.8,3913.313a4.486,4.486,0,0,0,3.877-6.727c-1-1.735-6.175-5.026-7.206-5.67a1.225,1.225,0,0,0-1.869,1.086c.063,1.706.342,7.4,1.3,9.07A4.5,4.5,0,0,0,3565.8,3913.313Zm-1.773-3.466a3.011,3.011,0,1,1,3.531-2.038,2.038,2.038,0,0,1-3.531,2.038Z"/><path class="b" d="M3572.326,3874.789a1.226,1.226,0,0,0,1.225-1.224v-8.854a1.224,1.224,0,1,0-2.449,0v8.854A1.226,1.226,0,0,0,3572.326,3874.789Z"/><path class="b" d="M3563.083,3885.433a1.225,1.225,0,0,0,1.223-1.224v-12.573a1.224,1.224,0,1,0-2.448,0v12.573A1.226,1.226,0,0,0,3563.083,3885.433Z"/><path class="b" d="M3581.57,3885.433a1.225,1.225,0,0,0,1.224-1.224v-12.573a1.224,1.224,0,1,0-2.449,0v12.573A1.226,1.226,0,0,0,3581.57,3885.433Z"/><path class="b" d="M3551.945,3909.427a1.208,1.208,0,0,0-.929-.072,1.224,1.224,0,0,0-.171,2.259,41.387,41.387,0,0,1,17.314,15.849,1.22,1.22,0,0,0,1.094.671,1.206,1.206,0,0,0,.551-.131,1.228,1.228,0,0,0,.541-1.644C3570.133,3925.938,3565.007,3915.981,3551.945,3909.427Z"/><path class="b" d="M3557.325,3917.1a1.227,1.227,0,0,0-1.714.249,1.229,1.229,0,0,0,.25,1.715,31.53,31.53,0,0,1,8.052,8.442,1.225,1.225,0,0,0,2.246-.272,1.21,1.21,0,0,0-.111-.926A32.83,32.83,0,0,0,3557.325,3917.1Z"/><path class="b" d="M3591.283,3917.769a1.223,1.223,0,0,0-1.5-.866c-8.18,2.19-14.962,8.856-15.247,9.14a1.228,1.228,0,0,0,0,1.732,1.226,1.226,0,0,0,1.733,0c.064-.064,6.57-6.478,14.15-8.5a1.224,1.224,0,0,0,.744-.571A1.211,1.211,0,0,0,3591.283,3917.769Z"/></g></g></svg>