<svg xmlns="http://www.w3.org/2000/svg" width="72.195" height="99.637" viewBox="0 0 72.195 99.637"><defs><style>.a{fill:#183b8d;}.b{fill:none;stroke:#183b8d;stroke-linecap:round;stroke-linejoin:round;stroke-width:1.5px;}</style></defs><g transform="translate(-3227.958 -5737.581)"><path class="a" d="M3274.583,5766.6a16,16,0,0,0-3.515.388l2.666-9.907h-6.641a4.927,4.927,0,0,0-4.752,3.626l-2.056,7.426a20.629,20.629,0,0,0,2.9-.27,15.945,15.945,0,0,1-8.5,2.443,16.291,16.291,0,0,1-1.976-.125,15.972,15.972,0,0,1-4.587-1.144l-2.873,10.377a16.084,16.084,0,0,0,11.54,1.435l-2.71,10.091h6.741a4.813,4.813,0,0,0,4.643-3.547l1.951-7.158a15.959,15.959,0,0,0-4.477,1.154,16.012,16.012,0,0,1,4.926-2.8v0c.064-.023.129-.042.193-.064.118-.04.236-.08.356-.117.094-.03.191-.057.286-.085.122-.035.244-.071.368-.1.1-.026.194-.049.292-.073.123-.03.246-.061.371-.088.1-.023.2-.042.307-.063.121-.024.242-.049.365-.071s.222-.035.333-.052.232-.037.349-.053.249-.028.374-.042c.106-.011.212-.024.318-.034.147-.013.3-.021.443-.029.087-.006.173-.013.26-.017.236-.011.473-.016.711-.016h.016c.276,0,.551.008.824.022.085,0,.168.014.252.019.194.013.387.026.579.046.094.01.186.024.28.035.18.022.361.044.54.072.092.014.183.033.276.049.177.031.355.061.531.1.089.019.176.041.264.061.178.041.354.081.529.127.086.022.169.048.254.072.176.049.351.1.524.154.082.027.163.056.244.083.173.058.346.117.516.181.081.031.16.063.24.095.168.066.336.133.5.205l.071.029,2.863-10.343A15.947,15.947,0,0,0,3274.583,5766.6Z"/><path class="b" d="M3262.073,5738.393a35.344,35.344,0,0,0-32.111,44.62l-.109-.07s6.608,23.789,34.2,53.525c0,0,24.812-27.029,33.26-50.662a27.182,27.182,0,0,0,1.235-4.392,35.337,35.337,0,0,0-36.471-43.021Z"/></g></svg>