<svg xmlns="http://www.w3.org/2000/svg" width="90.275" height="90.276" viewBox="0 0 90.275 90.276"><defs><style>.a{fill:none;stroke:#00bedb;stroke-linecap:round;stroke-miterlimit:10;stroke-width:3px;}.b{fill:#183b8d;}</style></defs><g transform="translate(-314.559 -3845.498)"><path class="a" d="M2707.389,3890.636A43.637,43.637,0,1,1,2663.751,3847,43.638,43.638,0,0,1,2707.389,3890.636Z" transform="translate(-2304.055)"/><g transform="translate(-2304.055)"><path class="b" d="M2687.756,3873.932l-10.663-10.663a5.928,5.928,0,0,0-8.682.32l-20.6,23.894a1.327,1.327,0,0,0,.067,1.8l13.858,13.858a1.306,1.306,0,0,0,.937.391,1.321,1.321,0,0,0,.865-.323l23.892-20.6a5.929,5.929,0,0,0,.322-8.681Zm-12.533-8.792,10.661,10.663a3.28,3.28,0,0,1-.178,4.8l-22.962,19.794-12.122-12.122,19.793-22.962a3.263,3.263,0,0,1,2.377-1.137A3.194,3.194,0,0,1,2675.223,3865.14Z"/><path class="b" d="M2660.482,3903.078a1.217,1.217,0,0,0-.933.388l-1.453,1.449a5.084,5.084,0,0,1-7,0l-4.984-4.985a4.947,4.947,0,0,1,0-7l1.449-1.452a1.324,1.324,0,0,0-1.874-1.87l-1.448,1.449a7.6,7.6,0,0,0,0,10.746l4.984,4.985a7.6,7.6,0,0,0,10.745,0l1.452-1.45a1.324,1.324,0,0,0-.937-2.26Z"/><path class="b" d="M2653.63,3905.259a1.458,1.458,0,0,0,0-2.061,1.489,1.489,0,0,0-2.059,0,1.456,1.456,0,0,0,2.058,2.061Z"/><path class="b" d="M2653.7,3919.848a1.456,1.456,0,1,0,2.059,0A1.458,1.458,0,0,0,2653.7,3919.848Z"/><path class="b" d="M2645.841,3912.5a1.456,1.456,0,1,0-1.029-.426A1.457,1.457,0,0,0,2645.841,3912.5Z"/><path class="b" d="M2649.657,3902.738a1.455,1.455,0,0,0,1.029-2.484,1.489,1.489,0,0,0-2.059,0,1.455,1.455,0,0,0,1.03,2.484Z"/><path class="b" d="M2644.812,3917.937a1.455,1.455,0,1,0,2.059,0A1.489,1.489,0,0,0,2644.812,3917.937Z"/><path class="b" d="M2650.617,3914.566a1.456,1.456,0,1,0,2.058,0A1.453,1.453,0,0,0,2650.617,3914.566Z"/><path class="b" d="M2645.768,3897.393h0a1.455,1.455,0,1,0,2.059,0A1.46,1.46,0,0,0,2645.768,3897.393Z"/><path class="b" d="M2662.107,3896.543a1.326,1.326,0,0,0,1.868.138l18.977-16.359a1.323,1.323,0,0,0-1.729-2l-18.98,16.36A1.329,1.329,0,0,0,2662.107,3896.543Z"/></g></g></svg>