<svg xmlns="http://www.w3.org/2000/svg" width="89.726" height="89.725" viewBox="0 0 89.726 89.725"><defs><style>.a{fill:none;stroke:#00bedb;stroke-linecap:round;stroke-miterlimit:10;stroke-width:3px;}.b{fill:#183b8d;}</style></defs><g transform="translate(-305.803 -3517.627)"><path class="a" d="M2698.085,3562.49a43.363,43.363,0,1,1-43.363-43.363A43.363,43.363,0,0,1,2698.085,3562.49Z" transform="translate(-2304.055)"/><g transform="translate(-2304.055)"><path class="b" d="M2658.433,3574.286c-2.8-1.509-3.806-2.108-5.064-3.441l0,0c-1.253-1.33-1.825-2.436-3.138-5.251a8.378,8.378,0,0,0-4.882-4.66,6.383,6.383,0,0,0-5.32.839,8.163,8.163,0,0,0-3.865,6.031c-.566,4.158,1.542,9.013,5.935,13.669l0,.006c4.108,4.355,8.565,6.753,12.549,6.753.255,0,.506-.009.759-.028a8.17,8.17,0,0,0,6.247-3.508,6.393,6.393,0,0,0,1.144-5.265A8.375,8.375,0,0,0,2658.433,3574.286Zm-14.415,5.38-.008-.006c-3.832-4.066-5.691-8.151-5.234-11.5a5.564,5.564,0,0,1,2.619-4.131,3.876,3.876,0,0,1,3.187-.57,5.857,5.857,0,0,1,3.259,3.25c.163.35.316.678.463.988a7.4,7.4,0,0,0-.474,1.353c-.318,1.241-.28,3.161,1.7,5.263l0,0a5.831,5.831,0,0,0,4.261,2.095c.114,0,.225,0,.333-.011a1.274,1.274,0,0,0,1.126-.85c.562.321,1.191.663,1.925,1.059a5.861,5.861,0,0,1,3.056,3.441,3.874,3.874,0,0,1-.753,3.152,5.57,5.57,0,0,1-4.278,2.373C2651.829,3585.834,2647.864,3583.745,2644.018,3579.666Z"/><path class="b" d="M2644.079,3556.255h0c1.835.07,3.015.458,5.922,1.549a9.888,9.888,0,0,0,3.472.66,7.088,7.088,0,0,0,3.275-.754,6.387,6.387,0,0,0,3.212-4.323,8.17,8.17,0,0,0-1.466-7.012c-2.507-3.363-7.408-5.351-13.811-5.6l-.009,0c-6.409-.228-11.455,1.373-14.207,4.524a8.176,8.176,0,0,0-2,6.879,6.4,6.4,0,0,0,2.871,4.559,7.326,7.326,0,0,0,3.884,1.028,10.283,10.283,0,0,0,2.834-.417C2641.125,3556.458,2642.27,3556.178,2644.079,3556.255Zm-11.343-1.76a3.871,3.871,0,0,1-1.669-2.778,5.571,5.571,0,0,1,1.39-4.687c2.233-2.555,6.534-3.856,12.124-3.622h0c5.586.218,9.777,1.831,11.8,4.544a5.576,5.576,0,0,1,1.025,4.781,3.856,3.856,0,0,1-1.88,2.64,5.836,5.836,0,0,1-4.6-.037c-.386-.145-.745-.279-1.087-.4a6.078,6.078,0,0,0-.645-1.261c-.634-1.1-1.989-2.421-4.871-2.557-.011,0-.021-.007-.032-.008s-.031,0-.048,0h-.009a5.664,5.664,0,0,0-4.684,1.731,1.317,1.317,0,0,0-.208,1.407c-.6.159-1.266.348-2.019.565A5.824,5.824,0,0,1,2632.736,3554.5Z"/><path class="b" d="M2679.922,3545.7a8.171,8.171,0,0,0-5.623-4.441,6.38,6.38,0,0,0-5.3.949,8.353,8.353,0,0,0-3.091,6c-.331,3.159-.5,4.322-1.253,5.989l0,0c-.753,1.673-1.511,2.57-3.659,4.905a8.378,8.378,0,0,0-2.449,6.29,6.387,6.387,0,0,0,2.8,4.6,8.022,8.022,0,0,0,4.791,1.572,8.908,8.908,0,0,0,2.258-.3c4.064-1.064,7.751-4.864,10.381-10.7l0,0C2681.409,3554.729,2681.815,3549.45,2679.922,3545.7Zm-3.548,13.78c-2.3,5.1-5.372,8.379-8.647,9.236a5.568,5.568,0,0,1-4.817-.848,3.858,3.858,0,0,1-1.741-2.73,5.838,5.838,0,0,1,1.766-4.252c.29-.317.557-.608.809-.886a4.808,4.808,0,0,0,.657.067c1.218,0,3.476-.473,4.908-3.641l0,0a5.678,5.678,0,0,0,.177-5.04,1.311,1.311,0,0,0-.768-.664,1.293,1.293,0,0,0-.438-.056c.083-.642.16-1.354.247-2.185a5.829,5.829,0,0,1,2.018-4.135,3.877,3.877,0,0,1,3.2-.5,5.568,5.568,0,0,1,3.822,3.051c1.528,3.022,1.1,7.494-1.194,12.589Z"/></g></g></svg>