<svg xmlns="http://www.w3.org/2000/svg" width="202.618" height="208.564" viewBox="0 0 202.618 208.564"><defs><style>.a{fill:#00bedb;}</style></defs><g transform="translate(-4985.412 -675.436)"><path class="a" d="M5041.271,763.654c-1.679-.267-3.383-.2-4.347,1.688-1.03,2.015-.539,3.83,1.454,4.794,2.038.986,3.739.088,4.637-1.915.846-1.9-.07-3.335-1.744-4.567"/><path class="a" d="M5049.584,758.3c1.876.583,3.629.29,4.527-1.512a3.5,3.5,0,1,0-6.359-2.914c-.745,1.788.066,3.418,1.832,4.426"/><path class="a" d="M5035.955,788.941c-.32,1.814-.131,3.563,2.051,4.47a3.116,3.116,0,0,0,4.325-1.657,3.228,3.228,0,0,0-1.836-4.654c-1.893-.8-3.326.027-4.54,1.841"/><path class="a" d="M5052.477,773.489c-1.863-.75-3.454-.439-4.413,1.424-1.043,2.011-.548,3.742,1.5,4.759,2.122,1.043,3.695.2,4.58-1.862.828-1.911.18-3.366-1.665-4.321"/><path class="a" d="M5123.31,811.361c1.832-1.669,4.067-2.186,4.987-1.152s.175,3.234-1.661,4.9-4.067,2.187-4.983,1.157-.179-3.23,1.657-4.9"/><path class="a" d="M5138.99,827.164c-1.836,1.67-4.067,2.187-4.987,1.153s-.175-3.234,1.656-4.9,4.067-2.191,4.988-1.156.175,3.229-1.657,4.9"/><path class="a" d="M5128.087,843.853c1.836-1.674,4.067-2.187,4.987-1.153s.175,3.23-1.657,4.9-4.067,2.182-4.987,1.152-.175-3.23,1.657-4.9"/><path class="a" d="M5164.61,853.236c-1.832,1.673-4.067,2.186-4.987,1.156s-.176-3.234,1.66-4.9,4.067-2.187,4.983-1.153.18,3.23-1.656,4.9"/><path class="a" d="M5147.68,856.684c.921,1.035.18,3.23-1.656,4.9s-4.067,2.187-4.987,1.157-.176-3.234,1.652-4.9,4.076-2.191,4.991-1.162"/><path class="a" d="M5124.931,861.062c1.832-1.669,4.067-2.186,4.987-1.152s.176,3.234-1.66,4.9-4.063,2.192-4.983,1.157-.18-3.229,1.656-4.9"/><path class="a" d="M5112.77,850.781c-1.832,1.674-4.067,2.187-4.987,1.153s-.175-3.23,1.661-4.9,4.067-2.187,4.983-1.152.179,3.23-1.657,4.9"/><path class="a" d="M5110.815,867.456c-1.831,1.674-4.066,2.192-4.991,1.157s-.171-3.234,1.665-4.9,4.063-2.186,4.979-1.152.179,3.23-1.653,4.9"/><path class="a" d="M5119.155,833.975c-1.836,1.674-4.067,2.187-4.987,1.152s-.175-3.23,1.657-4.9,4.066-2.187,4.987-1.153.175,3.226-1.657,4.9"/><path class="a" d="M5152.9,840.724c-1.832,1.674-4.067,2.186-4.987,1.152s-.175-3.23,1.661-4.9,4.067-2.187,4.983-1.153.179,3.226-1.657,4.9"/><path class="a" d="M5187.534,829.61a34.946,34.946,0,0,0-1.49-5.071,20.58,20.58,0,0,0-3.585-6.183,19.1,19.1,0,0,0,1.144-2.411,31.553,31.553,0,0,0,1.6-5.07c.548-2.3.894-3.813-.022-5.189-.924-1.345-2.349-1.573-4.82-1.981a27.883,27.883,0,0,0-8.853-.03c-.232.03-.491.087-.719.118l7.512-8.314a2.182,2.182,0,1,0-3.239-2.923l-9.085,10.062a19.151,19.151,0,0,0,.461-3.383,27.7,27.7,0,0,0-.978-8.879c-.626-2.327-1-3.755-2.432-4.5-1.459-.776-2.927-.259-5.158.517a32.867,32.867,0,0,0-4.9,2.09,16.728,16.728,0,0,0-2.27,1.407,20,20,0,0,0-6.5-2.927,34.488,34.488,0,0,0-5.211-.978c-2.349-.249-3.9-.425-5.158.636-1.236,1.056-1.293,2.493-1.407,5.013a19.093,19.093,0,0,0,.259,3.782,29.462,29.462,0,0,0-15.159,3.7c-1.065.521-10.575,5.359-18.375,20.233-9.629,18.345-9.909,41.44-8.941,47.777,1.175,7.56,5.847,13.266,11.929,14.519a140.5,140.5,0,0,0,21.606,2.38c.539,0,.973,0,1.345-.018l1.113-.092c16.342-.951,28.657-4.128,36.6-9.457,13.928-9.374,18.766-19.8,18.625-26.426a32.4,32.4,0,0,0-2.638-11.144c.4.026.8.026,1.205.026a17.9,17.9,0,0,0,2.691-.167c2.38-.376,3.844-.6,4.76-1.923.915-1.372.6-2.888.087-5.189m-24.042-15.935a11.717,11.717,0,0,1,8.656-5.671,24.342,24.342,0,0,1,7.59.031c.548.083,1.117.171,1.551.259-.087.482-.236,1.087-.346,1.573a36.2,36.2,0,0,1-1.376,4.444,18.353,18.353,0,0,1-4.847,6.705c-.031.026-.053.026-.083.057a18.863,18.863,0,0,1-4.273,2.152c-1.144-1.372-2.4-2.788-3.782-4.19-1.346-1.4-2.66-2.743-3.9-4.036.228-.43.517-.863.806-1.324M5148.671,798.1a17.864,17.864,0,0,1,6.368-5.767,26.879,26.879,0,0,1,4.268-1.832c.482-.171,1.061-.377,1.516-.487.141.43.29,1,.46,1.574a24.756,24.756,0,0,1,.776,7.48,12.182,12.182,0,0,1-.486,3.094,20.6,20.6,0,0,1-4.273,7.192,73.82,73.82,0,0,0-9.6-8.94,22.938,22.938,0,0,1,.973-2.314m-11.78-7.945c.465.057,1.065.118,1.6.175a33.919,33.919,0,0,1,4.562.828,18.277,18.277,0,0,1,3.922,1.547,20.175,20.175,0,0,0-2,3.046,19.826,19.826,0,0,0-1.087,2.371c-.316-.171-.636-.311-.973-.46a28.469,28.469,0,0,0-5.711-1.714,19.162,19.162,0,0,1-.394-4.212,14.566,14.566,0,0,1,.079-1.581m23.477,80.645c-7.284,4.9-18.858,7.818-34.394,8.743l-1.2.052c-3.129.259-15.566-.946-21.754-2.23-4.243-.921-7.569-5.194-8.454-10.948-.89-5.706-.548-27.916,8.454-45.029,7.331-14.006,16.307-18.279,16.416-18.336l.118-.053a24.416,24.416,0,0,1,21.663-1.292c4.614,1.919,9.172,6.652,15.36,13.208,0,0,.377.408.548.574s.346.342.517.548c1.8,1.885,3.725,3.927,5.816,6.07,9.829,10.057,13.467,20,13.585,25.992.11,5.219-4.22,14.3-16.679,22.7m21.579-38.4a24.856,24.856,0,0,1-5.386-.088,44.718,44.718,0,0,0-3.445-5.447,26.226,26.226,0,0,0,4.071-2.209c.031-.022.053-.052.088-.052a18.149,18.149,0,0,0,2.752-2.24,17.47,17.47,0,0,1,1.92,3.752,28.5,28.5,0,0,1,1.288,4.443c.11.517.259,1.118.346,1.574-.438.092-1.034.179-1.634.267"/><path class="a" d="M5157.125,815.485c.175.171.35.342.521.544"/><path class="a" d="M5161.739,773.388a103.381,103.381,0,0,0-14.983-26.448c-15.965-20.72-36.712-31.238-61.7-31.238h-.745c-3.41,0-5.9-1.49-8.34-4.961-2.98-4.268-8.682-6.446-13.353-5.184-1.517-4.186-5.045-13.809-5.96-16.562a57.088,57.088,0,0,0-6.793-13.559l-3.782,3.958s1.919,2.752,4.071,6.017c-.574-.058-1.236-.145-1.919-.228-1.749-.228-3.988-.517-6.741-1-.771-.114-1.547-.285-2.375-.429-1.6-.316-3.238-.6-4.873-.8-19.515-2.411-33.328,4.9-42.269,22.324a77.063,77.063,0,0,0-4.671,11.263c-1.661,4.9-2.551,7.621-1.319,9.886s3.812,2.95,9.115,4.326a64.9,64.9,0,0,0,16.276,2.033c1.263,0,2.551-.03,3.839-.114,15.65-.833,27.027-9.685,33.758-26.25v-.027a121.209,121.209,0,0,1,4.93-11.262c.373-.746.688-1.434.978-2.034a13.751,13.751,0,0,1,1.086,2.349c.6,2.09,2.924,7.766,4.269,11.092a12.918,12.918,0,0,0-6.359,11.258c.114,4.387-1.547,7.31-5.789,10.146a64.925,64.925,0,0,0-20.606,22.981c-12.753,23.126-14.445,48.29-4.987,74.8,10.2,28.6,33.416,49.947,60.552,55.736a2.884,2.884,0,0,0,.46.026,2.185,2.185,0,0,0,.455-4.325c-25.676-5.443-47.654-25.734-57.339-52.931-9-25.278-7.424-49.232,4.7-71.184a60.237,60.237,0,0,1,19.2-21.434c5.442-3.668,7.905-8.082,7.735-13.928a8.255,8.255,0,0,1,5.272-7.822,8.418,8.418,0,0,1,8.857,3.409c3.264,4.641,7.046,6.819,11.92,6.819h.745c23.555,0,43.127,9.918,58.233,29.52a99.207,99.207,0,0,1,14.353,25.331,2.19,2.19,0,1,0,4.1-1.547m-111.76-80.181a122.135,122.135,0,0,0-5.071,11.605c-6.135,15.045-15.934,22.722-29.949,23.5a62.325,62.325,0,0,1-18.941-1.832c-2.866-.775-5.846-1.551-6.188-2.121-.316-.631.714-3.725,1.63-6.451a76.905,76.905,0,0,1,4.413-10.632c7.082-13.808,17.166-20.4,31.383-20.4a56.924,56.924,0,0,1,6.473.4c1.52.2,3.067.487,4.588.776.828.171,1.661.315,2.463.456,2.809.49,5.1.775,6.907,1,1.433.2,2.9.373,3.725.574-.285.745-.859,1.946-1.433,3.125"/></g></svg>