<svg xmlns="http://www.w3.org/2000/svg" width="154.995" height="154.995" viewBox="0 0 154.995 154.995"><defs><style>.a{fill:none;stroke:#00bedb;stroke-linecap:round;stroke-miterlimit:10;stroke-width:3px;}.b{fill:#183b8d;}</style></defs><g transform="translate(-2643.024 -1353.292)"><path class="a" d="M2796.519,1430.789a76,76,0,1,1-76-76A76,76,0,0,1,2796.519,1430.789Z"/><path class="b" d="M2730.132,1387.038a9.611,9.611,0,1,0-15.992,7.186,1.68,1.68,0,0,0,2.793-1.354,1.667,1.667,0,0,0-.561-1.155,6.252,6.252,0,1,1,10.4-4.677c0,4.946-5.552,7.445-11.43,10.09a47.064,47.064,0,0,0-9.521,5.179c-2.881,2.232-7.148,24.65-8.849,34.184a1.677,1.677,0,0,0,1.353,1.947,1.62,1.62,0,0,0,.3.028,1.678,1.678,0,0,0,1.652-1.385c2.894-16.217,6.394-30.943,7.6-32.121a44.868,44.868,0,0,1,8.852-4.772C2723.319,1397.221,2730.132,1394.153,2730.132,1387.038Z"/><path class="b" d="M2744.071,1436.491c-1.7-9.534-5.968-31.95-8.846-34.183a40.36,40.36,0,0,0-7.887-4.44,1.681,1.681,0,0,0-1.4,3.058,37.625,37.625,0,0,1,7.166,3.983c1.256,1.219,4.762,15.952,7.657,32.173a1.678,1.678,0,0,0,1.652,1.384,1.607,1.607,0,0,0,.3-.027A1.681,1.681,0,0,0,2744.071,1436.491Z"/><path class="b" d="M2712.952,1438.6c2.484-23.37-.759-27.759-1.814-28.549a1.68,1.68,0,0,0-2.076,2.641c.256.41,2.734,5,.549,25.554-.728,6.848-.308,12.97.228,20.768.443,6.427.946,13.712.946,23.46a1.68,1.68,0,0,0,3.36,0c0-9.815-.507-17.17-.955-23.692C2712.666,1451.18,2712.253,1445.176,2712.952,1438.6Z"/><path class="b" d="M2729.906,1410.051c-1.054.789-4.3,5.179-1.816,28.548.7,6.561.287,12.559-.237,20.187l-.007.106c-.443,6.471-.945,13.805-.945,23.581a1.679,1.679,0,0,0,3.358,0c0-9.752.5-17.034.945-23.458.534-7.766.957-13.9.228-20.77-2.3-21.625.612-25.595.6-25.595a1.681,1.681,0,0,0-2.128-2.6Z"/></g></svg>