<svg xmlns="http://www.w3.org/2000/svg" width="95.58" height="95.58" viewBox="0 0 95.58 95.58"><defs><style>.a{fill:none;stroke:#00bedb;stroke-linecap:round;stroke-miterlimit:10;stroke-width:3px;}.b{fill:#183b8d;}</style></defs><g transform="translate(-1210.801 -3002.297)"><circle class="a" cx="46.29" cy="46.29" r="46.29" transform="translate(1212.301 3003.797)"/><g transform="translate(-2304.055)"><path class="b" d="M3586.517,3031.477a1.322,1.322,0,0,0-1.843.324l-9.86,14.081c-1.25,1.785-4,2.023-6.136.532l0,0,0,0c-2.134-1.5-2.853-4.165-1.6-5.949l9.858-14.081a1.324,1.324,0,0,0-2.166-1.522l-9.86,14.082a6.229,6.229,0,0,0-.9,5.092,7.651,7.651,0,0,0,2.134,3.7l-18.254,26.071a1.322,1.322,0,1,0,2.165,1.518l18.258-26.072a7.725,7.725,0,0,0,3.372.789,6.345,6.345,0,0,0,5.307-2.634l9.858-14.079a1.323,1.323,0,0,0-.322-1.844Z"/><path class="b" d="M3569.277,3045.544a1.326,1.326,0,0,0,1.843-.326l10.762-15.369a1.323,1.323,0,0,0-2.168-1.518l-10.76,15.369A1.326,1.326,0,0,0,3569.277,3045.544Z"/><path class="b" d="M3565.329,3059.791a1.327,1.327,0,0,0-1.841-.322,1.323,1.323,0,0,0-.323,1.845l9.78,13.874a1.323,1.323,0,1,0,2.166-1.518Z"/><path class="b" d="M3551.451,3049.777a7.821,7.821,0,0,0,3.224-.684l3.437,4.872a1.322,1.322,0,0,0,1.842.323,1.324,1.324,0,0,0,.323-1.844l-3.431-4.867c2.771-2.83,3.445-8.091-.5-13.726A20.383,20.383,0,0,0,3548.3,3027c-3.073-1.392-5.943-1.5-7.681-.282,0,0-.007.009-.013.013-1.73,1.225-2.607,3.951-2.345,7.3a20.4,20.4,0,0,0,3.683,9.907c2.613,3.73,5.422,5.084,7.317,5.562A8.855,8.855,0,0,0,3551.451,3049.777Zm-9.313-20.891,0,0c.94-.649,2.925-.443,5.062.526a17.945,17.945,0,0,1,6.975,5.958,10.509,10.509,0,0,1,2.245,7.032,5.473,5.473,0,0,1-2.1,3.879h0l0,0a5.359,5.359,0,0,1-4.4.652,10.617,10.617,0,0,1-5.8-4.518,17.945,17.945,0,0,1-3.213-8.594C3540.716,3031.479,3541.2,3029.541,3542.138,3028.886Z"/></g></g></svg>