<svg xmlns="http://www.w3.org/2000/svg" width="89.726" height="89.725" viewBox="0 0 89.726 89.725"><defs><style>.a{fill:none;stroke:#00bedb;stroke-linecap:round;stroke-miterlimit:10;stroke-width:3px;}.b{fill:#183b8d;}</style></defs><g transform="translate(-763.643 -3523.119)"><path class="a" d="M3155.924,3567.981a43.363,43.363,0,1,1-43.363-43.362A43.363,43.363,0,0,1,3155.924,3567.981Z" transform="translate(-2304.055)"/><g transform="translate(-2304.055)"><path class="b" d="M3102.528,3580.778a10.032,10.032,0,1,0,10.033-10.033A10.045,10.045,0,0,0,3102.528,3580.778Zm2.47,0a7.563,7.563,0,1,1,7.563,7.563A7.572,7.572,0,0,1,3105,3580.778Z"/><path class="b" d="M3107.791,3582.925a1.238,1.238,0,0,0,.988-1.439,3.854,3.854,0,0,1,3.077-4.492,1.241,1.241,0,0,0,.985-1.441,1.227,1.227,0,0,0-.522-.794,1.2,1.2,0,0,0-.92-.192,6.329,6.329,0,0,0-5.048,7.371,1.234,1.234,0,0,0,1.212,1.009A1.094,1.094,0,0,0,3107.791,3582.925Z"/><path class="b" d="M3113.354,3545.848l.161,0a12.122,12.122,0,0,0,12.57-10.538,1.238,1.238,0,0,0-1.2-1.426,13.677,13.677,0,0,0-8.436,2.755,13.932,13.932,0,0,0-4.31,7.78,1.237,1.237,0,0,0,1.212,1.426Zm9.881-9.381a9.2,9.2,0,1,1-5.212,2.08A10.465,10.465,0,0,1,3123.235,3536.467Z"/><path class="b" d="M3126.833,3570.283a21.572,21.572,0,0,1-3.751-9.171l-.517-2.934a10.135,10.135,0,0,0-8.828-8.323,11.344,11.344,0,0,0-11.269-10.167,1.234,1.234,0,1,0,0,2.468,8.866,8.866,0,0,1,8.776,7.718,10.132,10.132,0,0,0-8.685,8.3l-.47,2.667a22.687,22.687,0,0,1-3.859,9.522,17.71,17.71,0,0,0,13.486,28.1c.286.013.571.02.857.02a17.715,17.715,0,0,0,14.26-28.207Zm-14.272-18.032a7.678,7.678,0,0,1,7.571,6.354l.516,2.935a24.051,24.051,0,0,0,4.2,10.208,15.245,15.245,0,1,1-24.618.072,25.14,25.14,0,0,0,4.295-10.548l.468-2.667A7.679,7.679,0,0,1,3112.561,3552.251Z"/></g></g></svg>