<svg xmlns="http://www.w3.org/2000/svg" width="90.275" height="90.276" viewBox="0 0 90.275 90.276"><defs><style>.a,.b{fill:none;}.a{stroke:#00bedb;stroke-linecap:round;stroke-miterlimit:10;stroke-width:3px;}.c{fill:#183b8d;}</style></defs><g transform="translate(-780.919 -3846.241)"><path class="a" d="M3173.749,3891.378a43.637,43.637,0,1,1-43.638-43.637A43.638,43.638,0,0,1,3173.749,3891.378Z" transform="translate(-2304.055)"/><g transform="translate(-2304.055)"><path class="b" d="M3126.731,3874.739a6.094,6.094,0,0,0-4.84-2.971h-.2a6.019,6.019,0,0,0-4.72,2.511,8.941,8.941,0,0,0-1.34,8.48,7.014,7.014,0,0,0,4.48,4.909,1.671,1.671,0,0,1,1.01,1.681c-.23,2.189-.46,4.379-.71,6.559l1.49,1.49,1.43-1.44-.07-.75c-.19-2.009-.37-4.009-.57-6.02a1.6,1.6,0,0,1,.99-1.719,7.441,7.441,0,0,0,1.27-.7,8.445,8.445,0,0,0,3.29-6.83A9.769,9.769,0,0,0,3126.731,3874.739Zm-7.08,3.679a2.294,2.294,0,0,1-.68.281.96.96,0,0,1-.58-.051,1.062,1.062,0,0,1-.47.73,4.189,4.189,0,0,1-.36.24.092.092,0,0,1-.11.01.1.1,0,0,1-.04-.11c.01-.069.03-.14.04-.22-.07-.019-.13-.039-.2-.059s-.08-.051-.08-.121l.03-.269c-.08-.03-.15-.07-.23-.1s-.1-.069-.08-.17a.827.827,0,0,0,.04-.17v-.01a1.788,1.788,0,0,0-.2-.07.128.128,0,0,1-.09-.1c0-.049.03-.07.07-.09a2.155,2.155,0,0,1,.64-.28.962.962,0,0,1,.6.04c0,.01.01.01.02.01.01-.05.01-.089.02-.14a1.011,1.011,0,0,1,.34-.52,2.456,2.456,0,0,1,.48-.319.077.077,0,0,1,.11,0,.091.091,0,0,1,.03.1c-.01.079-.03.15-.04.23a1.759,1.759,0,0,1,.21.069c.06.021.08.05.07.121a1.779,1.779,0,0,1-.02.23c-.01.029,0,.04.03.049.07.031.14.07.21.1s.09.06.07.13-.03.13-.05.2c.07.021.14.05.21.07a.109.109,0,0,1,.08.091C3119.721,3878.368,3119.691,3878.388,3119.651,3878.418Zm1.8,3a.849.849,0,0,1-1.12-.21.771.771,0,0,1,.14-1.08.8.8,0,0,1,1.12.16A.854.854,0,0,1,3121.451,3881.418Zm-.38-4.21a.785.785,0,0,1,.15-1.12.826.826,0,0,1,1.16.16.9.9,0,0,1-.15,1.19A.882.882,0,0,1,3121.071,3877.208Zm1.41,1.45a.559.559,0,0,1,.79.11.612.612,0,0,1-.1.81.6.6,0,0,1-.79-.149A.543.543,0,0,1,3122.481,3878.658Zm2.84,3.4-.18.121.09.179a.089.089,0,0,1-.03.131,2.065,2.065,0,0,1-.17.129c-.02.02-.02.03-.01.061a1.533,1.533,0,0,1,.07.2.084.084,0,0,1-.04.131c-.05.029-.1.069-.16.1l.09.18a.09.09,0,0,1,0,.11.1.1,0,0,1-.11.02,2.044,2.044,0,0,1-.63-.26.856.856,0,0,1-.34-.41.988.988,0,0,1-.78.17c-.14-.02-.27-.05-.4-.08a.084.084,0,0,1-.08-.07.086.086,0,0,1,.05-.089c.05-.041.11-.08.17-.121-.03-.049-.06-.109-.09-.16a.087.087,0,0,1,.03-.13c.06-.06.12-.11.19-.169-.03-.07-.05-.141-.08-.211s-.03-.109.05-.16a1.108,1.108,0,0,1,.14-.08c0-.01,0-.01.01-.02-.03-.05-.06-.11-.09-.17a.106.106,0,0,1,.01-.12.09.09,0,0,1,.1-.019,2.355,2.355,0,0,1,.6.229.805.805,0,0,1,.36.43l.01.011c.04-.02.07-.051.11-.071a.909.909,0,0,1,.56-.12,2.344,2.344,0,0,1,.52.1.086.086,0,0,1,.07.071A.1.1,0,0,1,3125.321,3882.058Zm1.29-3.22c0,.07-.02.1-.08.111a1.451,1.451,0,0,1-.21.049c-.02.011-.03.02-.03.04-.01.08-.01.15-.02.221s-.03.09-.1.1-.12.01-.18.02v.2a.1.1,0,0,1-.05.1c-.04.02-.07,0-.1-.031a1.794,1.794,0,0,1-.46-.5.864.864,0,0,1-.14-.52.98.98,0,0,1-.78-.17c-.11-.08-.22-.16-.32-.239a.088.088,0,0,1-.04-.1.1.1,0,0,1,.08-.07c.06-.01.13-.019.2-.03a1.149,1.149,0,0,1-.01-.19c0-.06.02-.089.08-.1a2.155,2.155,0,0,0,.24-.07c.01-.07.01-.149.02-.22.01-.089.02-.11.12-.119.05-.011.1-.021.16-.031h.01v-.2a.081.081,0,0,1,.05-.1c.04-.02.07,0,.11.029a2.138,2.138,0,0,1,.44.46.912.912,0,0,1,.15.531v.02a.556.556,0,0,0,.12-.02.969.969,0,0,1,.56.129,2.72,2.72,0,0,1,.43.311.1.1,0,0,1,.03.1.075.075,0,0,1-.07.06,2.056,2.056,0,0,0-.22.04A1.216,1.216,0,0,1,3126.611,3878.838Z"/><path class="c" d="M3140.881,3887.658a.477.477,0,0,1-.64-.12.428.428,0,0,1,.08-.609.441.441,0,0,1,.64.089A.487.487,0,0,1,3140.881,3887.658Z"/><path class="c" d="M3139.491,3889.138a.669.669,0,0,1-.89-.169.606.606,0,0,1,.11-.861.647.647,0,0,1,.9.12A.686.686,0,0,1,3139.491,3889.138Z"/><path class="c" d="M3140.131,3885.949a.728.728,0,0,1-.94-.19.633.633,0,0,1,.12-.891.66.66,0,0,1,.94.13A.744.744,0,0,1,3140.131,3885.949Z"/><path class="c" d="M3141.821,3889.449a.476.476,0,0,1-.64-.121.428.428,0,0,1,.08-.609.448.448,0,0,1,.64.079A.5.5,0,0,1,3141.821,3889.449Z"/><path class="c" d="M3122.377,3879.424a.6.6,0,0,0,.8.153.612.612,0,0,0,.1-.808.563.563,0,0,0-.794-.11A.541.541,0,0,0,3122.377,3879.424Z"/><path class="c" d="M3120.475,3880.133a.757.757,0,0,0-.143,1.071.846.846,0,0,0,1.115.217.861.861,0,0,0,.142-1.133A.789.789,0,0,0,3120.475,3880.133Z"/><path class="c" d="M3122.234,3877.437a.9.9,0,0,0,.148-1.184.825.825,0,0,0-1.164-.162.79.79,0,0,0-.149,1.118A.884.884,0,0,0,3122.234,3877.437Z"/><path class="c" d="M3119.435,3878.158c.016-.068.03-.131.044-.2a.1.1,0,0,0-.065-.136c-.072-.033-.143-.066-.215-.1a.042.042,0,0,1-.03-.053c.011-.076.018-.152.026-.228a.1.1,0,0,0-.079-.124c-.068-.024-.137-.045-.206-.068.015-.078.03-.153.045-.228a.1.1,0,0,0-.038-.1.1.1,0,0,0-.108,0,3.007,3.007,0,0,0-.474.324,1,1,0,0,0-.341.522c-.011.045-.017.091-.025.138l-.021-.007a.908.908,0,0,0-.6-.046,2.41,2.41,0,0,0-.639.28c-.038.023-.071.047-.065.1a.108.108,0,0,0,.084.094c.07.02.138.046.2.069v.017c-.013.056-.025.114-.038.17-.021.1-.01.124.081.165l.227.1c-.01.095-.018.184-.027.274a.1.1,0,0,0,.079.119c.064.021.129.041.2.061-.014.074-.028.145-.042.215a.1.1,0,0,0,.04.11.1.1,0,0,0,.113,0c.121-.083.248-.158.364-.247a1.087,1.087,0,0,0,.469-.732.9.9,0,0,0,.577.054,2.324,2.324,0,0,0,.685-.283.1.1,0,0,0-.017-.188C3119.571,3878.205,3119.5,3878.181,3119.435,3878.158Z"/><path class="c" d="M3124.464,3878.454a1,1,0,0,0,.78.178.838.838,0,0,0,.135.517,2.127,2.127,0,0,0,.459.5.09.09,0,0,0,.157-.075c0-.065,0-.131,0-.2.063-.008.122-.016.182-.022a.094.094,0,0,0,.1-.1c.006-.071.013-.144.017-.215a.038.038,0,0,1,.036-.043c.069-.014.137-.032.206-.049a.092.092,0,0,0,.083-.108c0-.065,0-.132-.007-.2l.212-.034a.09.09,0,0,0,.077-.064.086.086,0,0,0-.032-.094,2.676,2.676,0,0,0-.428-.31.926.926,0,0,0-.56-.131c-.042.005-.084.014-.127.021a.137.137,0,0,1,0-.02.838.838,0,0,0-.149-.535,2.167,2.167,0,0,0-.442-.464c-.031-.027-.063-.048-.1-.028a.1.1,0,0,0-.055.1c0,.066,0,.134,0,.2l-.014.006-.16.022c-.093.011-.11.029-.117.121,0,.076-.01.151-.016.227l-.245.063a.088.088,0,0,0-.079.1c0,.063,0,.125.008.19l-.2.03a.094.094,0,0,0-.083.07.085.085,0,0,0,.039.1C3124.245,3878.3,3124.35,3878.383,3124.464,3878.454Z"/><path class="c" d="M3123.028,3881.339a.1.1,0,0,0,0,.116c.03.059.059.12.087.178l-.011.011-.135.087c-.08.051-.088.075-.055.16.028.07.055.142.082.212l-.195.162a.088.088,0,0,0-.026.129c.027.055.056.11.088.167l-.167.113a.088.088,0,0,0-.046.1.086.086,0,0,0,.075.072c.133.025.263.058.4.075a1,1,0,0,0,.783-.17.819.819,0,0,0,.34.41,2.17,2.17,0,0,0,.631.262.089.089,0,0,0,.1-.024.091.091,0,0,0,.006-.109c-.031-.06-.06-.119-.088-.179l.155-.1a.092.092,0,0,0,.045-.133c-.025-.068-.048-.136-.075-.2a.038.038,0,0,1,.014-.055c.056-.043.112-.087.165-.132a.093.093,0,0,0,.031-.133c-.031-.059-.06-.117-.092-.176.061-.042.12-.081.18-.121a.091.091,0,0,0,.041-.09.085.085,0,0,0-.068-.073,2.728,2.728,0,0,0-.52-.1.925.925,0,0,0-.562.118c-.037.022-.071.05-.1.074l-.011-.017a.816.816,0,0,0-.36-.422,2.189,2.189,0,0,0-.6-.234C3123.094,3881.309,3123.057,3881.3,3123.028,3881.339Z"/><path class="c" d="M3130.081,3905.578a1.4,1.4,0,1,1-1.98,1.98l-1.42-1.42-.95-.939-.74-.75-.95-.94-2.14-2.151-2.37,2.381-.97.96-.77.77-.95.96-1.14,1.14a1.444,1.444,0,0,1-1.99-.011,1.384,1.384,0,0,1-.41-.98,1.436,1.436,0,0,1,.41-1l3.63-3.62.96-.969.77-.761.84-.85-.67-.679-.61-.6-4.92-4.92a1.407,1.407,0,0,1,1.99-1.991l3.33,3.33.61.62.77.77,1.49,1.49,1.43-1.44,4.77-4.77a1.421,1.421,0,0,1,1.98.011,1.394,1.394,0,0,1,0,1.98l-6.2,6.2Z"/><path class="c" d="M3118.7,3889.658c-.077.75-.159,1.5-.241,2.253a1.185,1.185,0,0,0,.339.965h0a1.188,1.188,0,0,0,2.021-.708q.153-1.408.3-2.819a1.671,1.671,0,0,0-1.01-1.681,7.014,7.014,0,0,1-4.48-4.909,8.941,8.941,0,0,1,1.34-8.48,6.019,6.019,0,0,1,4.72-2.511h.2a6.094,6.094,0,0,1,4.84,2.971,9.769,9.769,0,0,1,1.51,5.2,8.445,8.445,0,0,1-3.29,6.83,7.441,7.441,0,0,1-1.27.7,1.6,1.6,0,0,0-.99,1.719q.149,1.485.284,2.965a1.187,1.187,0,0,0,2.021.729h0a1.187,1.187,0,0,0,.342-.949c-.078-.837-.156-1.673-.237-2.515a7.184,7.184,0,0,0,1.29-.76,10.842,10.842,0,0,0,4.22-8.709,12.171,12.171,0,0,0-1.89-6.511,8.436,8.436,0,0,0-6.74-4.04,8.28,8.28,0,0,0-6.9,3.451,11.233,11.233,0,0,0-1.72,10.609A9.328,9.328,0,0,0,3118.7,3889.658Z"/><path class="c" d="M3127.231,3912.148c-.072-.912-.216-2.437-.3-3.327a1.183,1.183,0,0,0-.723-.979h0a1.185,1.185,0,0,0-1.636,1.208q.157,1.647.3,3.3c.02.259.05.519.07.779a13.55,13.55,0,0,1,.08,2.9,3.453,3.453,0,0,1-.71,1.549,3.035,3.035,0,0,1-.55.521.279.279,0,0,1-.05.029,3.438,3.438,0,0,1-1.25.56,3.2,3.2,0,0,1-1.27.051,3.48,3.48,0,0,1-2.09-1.191,3.529,3.529,0,0,1-.68-1.229,3.183,3.183,0,0,1-.17-.81,3.4,3.4,0,0,1,.02-.711c.01-.07.02-.15.03-.22.21-1.71.4-3.426.592-5.185a1.192,1.192,0,0,0-1.137-1.321h0a1.184,1.184,0,0,0-1.215,1c-.2,1.312-.243,2.643-.447,3.955-.064.41-.1.82-.153,1.23-.01.079-.02.159-.03.25a4.042,4.042,0,0,0-.03.489,5.684,5.684,0,0,0,.04,1.011,5.874,5.874,0,0,0,4.89,5.069,5.467,5.467,0,0,0,.9.08,5.825,5.825,0,0,0,3.46-1.149,5.886,5.886,0,0,0,1.67-2.011,6.422,6.422,0,0,0,.33-.819,5.754,5.754,0,0,0,.2-.841,15.485,15.485,0,0,0-.07-3.47C3127.281,3912.628,3127.251,3912.388,3127.231,3912.148Z"/><path class="c" d="M3139.151,3886.719a.9.9,0,0,0-.17.02c0,.049.01.1.01.149a.079.079,0,0,1-.07.09.928.928,0,0,0-.15.04.027.027,0,0,0-.03.03c0,.051-.01.11-.01.16a.085.085,0,0,1-.08.08c-.05.01-.09.01-.14.02v.15c0,.031,0,.06-.04.08a.083.083,0,0,1-.08-.02,1.823,1.823,0,0,1-.35-.39.614.614,0,0,1-.1-.4.783.783,0,0,1-.6-.129c-.09-.061-.17-.13-.25-.191-.03-.02-.04-.04-.03-.07a.056.056,0,0,1,.06-.05l.15-.029v-.141c-.01-.049.01-.07.06-.08a1.1,1.1,0,0,1,.18-.049c.01-.06.01-.121.02-.181s.02-.08.09-.089c.04-.011.08-.011.12-.02h.01v-.151c0-.039.01-.07.04-.079s.06,0,.08.02a1.631,1.631,0,0,1,.34.36.649.649,0,0,1,.11.41v.009c.04,0,.07-.009.1-.009a.649.649,0,0,1,.43.1,2.01,2.01,0,0,1,.33.23.114.114,0,0,1,.03.08A.107.107,0,0,1,3139.151,3886.719Z"/><path class="c" d="M3143.031,3885.938a1.126,1.126,0,0,1-.13.08,1.389,1.389,0,0,0,.07.13.077.077,0,0,1-.02.1l-.12.09c-.02.011-.02.02-.02.04l.06.151c.02.04.01.059-.03.089a1.055,1.055,0,0,0-.11.07c.02.04.04.091.06.131s.02.049-.01.079a.059.059,0,0,1-.07.01,1.35,1.35,0,0,1-.45-.18.668.668,0,0,1-.25-.3.706.706,0,0,1-.56.119,2.942,2.942,0,0,1-.29-.05.081.081,0,0,1-.05-.049c-.01-.031.01-.051.03-.071.04-.029.08-.05.12-.08l-.06-.119a.069.069,0,0,1,.02-.1c.04-.03.09-.069.14-.109q-.03-.077-.06-.15c-.02-.071-.02-.08.04-.12a.873.873,0,0,1,.1-.061v-.01c-.02-.04-.04-.09-.06-.13a.079.079,0,0,1,.01-.08c.02-.03.04-.02.07-.01a1.621,1.621,0,0,1,.43.161.626.626,0,0,1,.26.3c0,.01,0,.01.01.02a.346.346,0,0,1,.07-.05.669.669,0,0,1,.41-.09,2.409,2.409,0,0,1,.37.071c.03.009.05.03.05.049A.091.091,0,0,1,3143.031,3885.938Z"/><path class="b" d="M3141.571,3893.168a6.145,6.145,0,0,0,1-.55,6.671,6.671,0,0,0,2.6-5.419,7.742,7.742,0,0,0-1.2-4.141,4.77,4.77,0,0,0-3.79-2.33h-.15a4.694,4.694,0,0,0-3.69,1.971,7.134,7.134,0,0,0-1.07,6.75,5.484,5.484,0,0,0,3.54,3.87,1.588,1.588,0,0,1,.97,1.61c-.19,1.8-.38,3.589-.59,5.39l-.86,7.6c-.09.861-.19,1.71-.28,2.56q-.285,2.655-.61,5.281a3.507,3.507,0,0,0-.01.56,2.828,2.828,0,0,0,.21.819,2.8,2.8,0,0,0,.34.61,2.651,2.651,0,0,0,.76.66,2.416,2.416,0,0,0,.92.34,2.585,2.585,0,0,0,1.94-.48,2.354,2.354,0,0,0,.88-1.319,2.171,2.171,0,0,0,.06-.241,6.038,6.038,0,0,0,.04-.75c0-.239-.02-.489-.03-.739-.02-.27-.05-.551-.07-.821l-.01-.1-.05-.55c-.12-1.4-.25-2.8-.39-4.19l-.91-9.64c-.16-1.71-.32-3.42-.49-5.12A1.543,1.543,0,0,1,3141.571,3893.168Z"/><path class="c" d="M3144.841,3914.168l-.02-.239-.04-.381c-.01-.19-.03-.39-.05-.579-.11-1.241-.23-2.491-.35-3.741l-.91-9.69c-.14-1.469-.28-2.939-.43-4.45a5.691,5.691,0,0,0,.96-.579,9.09,9.09,0,0,0,3.55-7.31,10.156,10.156,0,0,0-1.58-5.431,7.123,7.123,0,0,0-5.69-3.41,7.011,7.011,0,0,0-5.83,2.9,9.4,9.4,0,0,0-1.45,8.889,7.9,7.9,0,0,0,4.35,5.15c-.16,1.58-.34,3.171-.51,4.75l-1.15,10.18c-.19,1.75-.38,3.491-.6,5.241a5.021,5.021,0,0,0,.04,1.4,4.735,4.735,0,0,0,.19.831,4.968,4.968,0,0,0,.24.639,5.454,5.454,0,0,0,.47.77,5,5,0,0,0,3.25,1.98,3.936,3.936,0,0,0,.77.07,4.969,4.969,0,0,0,2.96-.99,4.643,4.643,0,0,0,1.88-3.139,9.4,9.4,0,0,0,.06-1.391c-.01-.33-.03-.64-.06-.959C3144.871,3914.509,3144.861,3914.338,3144.841,3914.168Zm-3.72-14.25.91,9.64c.14,1.391.27,2.791.39,4.19l.05.55.01.1c.02.27.05.551.07.821.01.25.03.5.03.739a6.038,6.038,0,0,1-.04.75,2.171,2.171,0,0,1-.06.241,2.354,2.354,0,0,1-.88,1.319,2.585,2.585,0,0,1-1.94.48,2.416,2.416,0,0,1-.92-.34,2.651,2.651,0,0,1-.76-.66,2.8,2.8,0,0,1-.34-.61,2.828,2.828,0,0,1-.21-.819,3.507,3.507,0,0,1,.01-.56q.33-2.625.61-5.281c.09-.85.19-1.7.28-2.56l.86-7.6c.21-1.8.4-3.591.59-5.39a1.588,1.588,0,0,0-.97-1.61,5.484,5.484,0,0,1-3.54-3.87,7.134,7.134,0,0,1,1.07-6.75,4.694,4.694,0,0,1,3.69-1.971h.15a4.77,4.77,0,0,1,3.79,2.33,7.742,7.742,0,0,1,1.2,4.141,6.671,6.671,0,0,1-2.6,5.419,6.145,6.145,0,0,1-1,.55,1.543,1.543,0,0,0-.94,1.63C3140.8,3896.5,3140.961,3898.208,3141.121,3899.918Z"/><path class="c" d="M3134.424,3917.931a1.168,1.168,0,0,0-1.251-.765,26.207,26.207,0,0,1-3.062.183c-.383,0-.764-.013-1.143-.032a1.17,1.17,0,0,0-1.119.645l-.016.031a1.17,1.17,0,0,0,.975,1.689c.431.023.865.037,1.3.037a28.488,28.488,0,0,0,3.349-.2,1.175,1.175,0,0,0,.977-1.553Z"/><path class="c" d="M3128.243,3861.657a29.036,29.036,0,0,0-15.05,52.592,1.178,1.178,0,0,0,1.856-.849l0-.033a1.156,1.156,0,0,0-.487-1.049,26.69,26.69,0,1,1,31.632-.4,1.163,1.163,0,0,0-.466,1.032l0,.033a1.18,1.18,0,0,0,1.883.838,29.042,29.042,0,0,0-19.374-52.167Z"/></g></g></svg>