<svg xmlns="http://www.w3.org/2000/svg" width="90.715" height="90.713" viewBox="0 0 90.715 90.713"><defs><style>.a{fill:none;stroke:#00bedb;stroke-linecap:round;stroke-miterlimit:10;stroke-width:3px;}.b{fill:#183b8d;}</style></defs><g transform="translate(-3528.666 -4169.327)"><path class="a" d="M3617.881,4214.684a43.858,43.858,0,1,1-43.858-43.857A43.856,43.856,0,0,1,3617.881,4214.684Z"/><path class="b" d="M3605.952,4208.813h0a1.061,1.061,0,0,0-.9-.541l-20.386-.545a4.493,4.493,0,0,0,.483-.426l1.848-1.879a4.621,4.621,0,0,0,0-6.449,4.438,4.438,0,0,0-6.352,0l-1.848,1.879a4.52,4.52,0,0,0-1.187,2.156l-5.2-5.514a1.055,1.055,0,0,0-.75-.336,1.115,1.115,0,0,0-.766.3,1.1,1.1,0,0,0-.032,1.534l1.054,1.118-1.355.992-7.616-9.549a2.015,2.015,0,0,0,.643-.271l4.721,5a1.087,1.087,0,0,0,1.518.033,1.1,1.1,0,0,0,.031-1.535l-5.345-5.665-.183-5.2a1.384,1.384,0,0,0-.937-1.3,1.35,1.35,0,0,0-1.537.512l-10.927,15.538a5.445,5.445,0,0,0,.133,6.4l7.031,10.079a4.033,4.033,0,0,0,1.068,1.013,6.755,6.755,0,0,0-.028.676l.293,27.509a2.487,2.487,0,0,0,2.459,2.471h5.042a1.806,1.806,0,0,0,1.769-1.4,1.838,1.838,0,0,0-.9-2.083c-.029-.016-.058-.03-.089-.044l-2.893-1.258a.258.258,0,0,1-.151-.271l.994-7.958a1.087,1.087,0,0,0-.929-1.215,1.051,1.051,0,0,0-.785.215,1.084,1.084,0,0,0-.414.726l-.13,1.05h-1.935l-.189-17.769a4.642,4.642,0,0,1,.086-.945c0-.025.011-.051.016-.073a4.526,4.526,0,0,1,1.283-2.321,1.1,1.1,0,0,0,.035-1.535,1.055,1.055,0,0,0-.752-.337h-.025a1.055,1.055,0,0,0-.74.3,6.652,6.652,0,0,0-1.38,1.928l-7-10.036c-.012-.016-.023-.033-.035-.046a3.236,3.236,0,0,1-.09-3.821l4.671-6.644.831.669-2.827,5.391-.028.057a2.76,2.76,0,0,0,.686,3.194l10.267,8.979-2.286,18.3a1.072,1.072,0,1,0,2.126.273l1.446-11.575h4.834c2.868,0,5.426-.244,7.677-3.228l.633-.728,20.837-1.294a5.236,5.236,0,0,0,3.586-1.9,1.175,1.175,0,0,0,.121-.184l.724-1.379A1.092,1.092,0,0,0,3605.952,4208.813Zm-2.816,1.582a3.109,3.109,0,0,1-1.765.767l-13.169.817-.04-1.985Zm-35.333-.351-10.4-9.094a.556.556,0,0,1-.146-.618l3.938-7.508,10.643,13.345A4.228,4.228,0,0,1,3567.8,4210.044Zm.554,2.14a6.422,6.422,0,0,0,5.641-6.38,1.1,1.1,0,0,0-.239-.684l-1.851-2.322,1.5-1.1,5.535,5.864a6.8,6.8,0,0,0,5.088,2.322l1.986.053.042,2.174-5.933.369a1.071,1.071,0,0,0-.739.366l-.949,1.091c-.017.019-.033.038-.05.06-1.247,1.664-2.408,2.406-6,2.406h-4.562Zm11.958-9.8,1.848-1.88a2.32,2.32,0,0,1,3.317,0,2.418,2.418,0,0,1,0,3.378l-1.848,1.879a2.32,2.32,0,0,1-3.317,0A2.418,2.418,0,0,1,3580.315,4202.387Zm-20.107-12.181a2.191,2.191,0,0,0-.335.512L3559.2,4192l-.608-.489,3.675-5.229.112,3.143h-.49a1.86,1.86,0,0,0-.282.021l-.094.013c-.02,0-.04.008-.053.011a2.208,2.208,0,0,0-1.16.633l-.066.07.116.094Zm.125.085Zm3.635,53.744,1.4.61h-3.488a.321.321,0,0,1-.315-.321l-.081-7.565h1.64l-.591,4.734A2.449,2.449,0,0,0,3563.968,4244.035Z"/></g></svg>