<svg xmlns="http://www.w3.org/2000/svg" width="69.838" height="105.187" viewBox="0 0 69.838 105.187"><defs><style>.a{fill:#183b8d;}.b{fill:none;stroke:#183b8d;stroke-linecap:round;stroke-linejoin:round;stroke-width:1.5px;}</style></defs><g transform="translate(-2754.412 -5732.749)"><path class="a" d="M2782.574,5741.886a15.457,15.457,0,0,0-3.374.372l2.559-9.509h-6.375a4.729,4.729,0,0,0-4.561,3.48l-1.974,7.129a19.81,19.81,0,0,0,2.781-.26,15.3,15.3,0,0,1-8.161,2.346,15.483,15.483,0,0,1-1.9-.121,15.322,15.322,0,0,1-4.4-1.1l-2.758,9.96a15.445,15.445,0,0,0,11.077,1.378l-2.6,9.686h6.47a4.62,4.62,0,0,0,4.457-3.4l1.873-6.871a15.326,15.326,0,0,0-4.3,1.108,15.372,15.372,0,0,1,4.729-2.688v0c.061-.022.123-.04.185-.061.113-.038.227-.076.341-.112.091-.029.183-.055.275-.082.117-.034.235-.068.353-.1.093-.025.187-.047.28-.07.119-.029.237-.058.356-.085.1-.021.2-.04.3-.059.117-.024.233-.048.351-.069s.213-.034.32-.05.222-.036.335-.051.238-.027.358-.04c.1-.011.2-.024.306-.032.141-.013.283-.021.425-.029.083,0,.166-.012.249-.016.227-.01.454-.015.683-.015h.015q.4,0,.792.021c.081,0,.16.013.241.018.186.013.372.025.556.044.09.009.179.023.268.034.174.021.347.042.519.069.089.013.176.031.264.047.171.029.342.059.511.094.085.018.169.04.253.059.17.039.34.077.508.121.082.022.162.047.244.07.168.047.337.095.5.148.078.025.156.053.234.079.166.056.332.113.5.174.077.029.152.06.229.091.162.063.323.128.482.2l.067.027,2.749-9.927A15.3,15.3,0,0,0,2782.574,5741.886Z"/><path class="b" d="M2780.085,5807.393v-41.2a5.154,5.154,0,0,1,5.153-5.154h.421a5.155,5.155,0,0,1,5.154,5.154v22.992a5.49,5.49,0,0,1,5.49-5.49h0a5.49,5.49,0,0,1,5.49,5.49v5.383a5.586,5.586,0,0,1,5.586-5.586h0a5.586,5.586,0,0,1,5.586,5.586v5.829a5.267,5.267,0,0,1,5.267-5.267h0a5.267,5.267,0,0,1,5.267,5.267v9.257a23.987,23.987,0,0,1-3.781,12.927l-2.8,4.37v10.233H2785.9v-6.26l-8.784-9.778a17.419,17.419,0,0,1-4.46-11.639v-7.046a7.429,7.429,0,0,1,7.43-7.429h0Z"/></g></svg>