<svg xmlns="http://www.w3.org/2000/svg" width="89.726" height="89.724" viewBox="0 0 89.726 89.724"><defs><style>.a{fill:none;stroke:#00bedb;stroke-linecap:round;stroke-miterlimit:10;stroke-width:3px;}.b{fill:#183b8d;}</style></defs><g transform="translate(-1218.131 -3417.557)"><path class="a" d="M3610.412,3462.419a43.363,43.363,0,1,1-43.363-43.362A43.362,43.362,0,0,1,3610.412,3462.419Z" transform="translate(-2304.055)"/><g transform="translate(-2304.055)"><path class="b" d="M3569.214,3481.142l.168-.038a13.575,13.575,0,0,0,7.9-5.212,22.836,22.836,0,0,0,4.7-14.185,2.115,2.115,0,0,0-.453-1.582,1.954,1.954,0,0,0-1.426-.442l-.19,0a.757.757,0,0,0-.131,0,1.211,1.211,0,0,1,.014-.2,18.29,18.29,0,0,0-.012-4.869,17.011,17.011,0,0,0-4.363-9.591,11.6,11.6,0,0,0-8.169-3.867,10.993,10.993,0,0,0-7.929,3.233c-3.941,3.824-5.594,8.675-5.051,14.872.012.137.025.287.029.393-.12.011-.29.015-.4.018a1.621,1.621,0,0,0-1.791,1.784,21.664,21.664,0,0,0,.117,2.559,22.612,22.612,0,0,0,4.236,11.425,13.428,13.428,0,0,0,8.866,5.759c.278.044.331.106.34.176-.015,2.247-.027,4.9,0,7.525a.377.377,0,0,1-.062.247.617.617,0,0,1-.38.085c-1.579-.031-3.16-.02-4.737-.01l-.543,0c-1.4.006-1.645.834-1.67,1.328a1.2,1.2,0,0,0,.3.926,2,2,0,0,0,1.49.431c1.556.005,3.116.006,4.67,0h6.551l2.722,0a2,2,0,0,0,1.483-.381,1.217,1.217,0,0,0,.311-.917c-.014-.922-.626-1.391-1.822-1.4l-5.012,0c-.253,0-.568,0-.614-.009a.86.86,0,0,1-.035-.325v-6.811C3568.331,3481.333,3568.331,3481.333,3569.214,3481.142Zm9.956-17.751c-.5,5.152-2.252,9.279-5.207,12.267a9.866,9.866,0,0,1-13.708.094,18.82,18.82,0,0,1-5.038-9.528,17.26,17.26,0,0,1-.393-2.711,1.123,1.123,0,0,1,.237-.849.909.909,0,0,1,.69-.248l11.3,0h11.178a1.075,1.075,0,0,1,.778.244A.933.933,0,0,1,3579.17,3463.391Zm-2.142-4.067c-.018.175-.385.357-.719.357h-.007q-3.471-.019-6.94-.01h-2.312l-2.385,0c-2.245,0-4.493-.007-6.741.015-.364-.02-.915-.121-.947-.409-.4-3.579-.059-8.689,3.875-12.714a8.37,8.37,0,0,1,6.073-2.5c.116,0,.233,0,.35.007a9.2,9.2,0,0,1,6.7,3.23,14.417,14.417,0,0,1,3.16,8.224A18.715,18.715,0,0,1,3577.028,3459.324Z"/><path class="b" d="M3562.746,3434.688c-.024.4-.085.806-.146,1.209l-.069.475a1.385,1.385,0,0,0,1.1,1.583,1.328,1.328,0,0,0,.288.03,1.415,1.415,0,0,0,.791-.242,1.361,1.361,0,0,0,.577-.946,14.2,14.2,0,0,0,.265-2.109,5.729,5.729,0,0,0-1.69-4.234,3.076,3.076,0,0,1-.793-1.478,4.1,4.1,0,0,1,.027-1.592l.047-.286c.039-.23.077-.459.094-.69a1.374,1.374,0,0,0-1.165-1.468,1.346,1.346,0,0,0-1.576,1.073l-.02.111a13.913,13.913,0,0,0-.266,1.97,5.793,5.793,0,0,0,1.691,4.362A2.883,2.883,0,0,1,3562.746,3434.688Z"/><path class="b" d="M3568.053,3435.5c-.025.405-.086.81-.147,1.213l-.066.451a1.4,1.4,0,0,0,1.382,1.631,1.417,1.417,0,0,0,.788-.241,1.324,1.324,0,0,0,.572-.872l.018-.1a14.26,14.26,0,0,0,.258-2.066,5.738,5.738,0,0,0-1.692-4.256,3.1,3.1,0,0,1-.692-1.13,3.584,3.584,0,0,1-.076-1.909l.049-.3a7.1,7.1,0,0,0,.1-.711,1.389,1.389,0,0,0-2.757-.31,13.946,13.946,0,0,0-.272,1.986,5.838,5.838,0,0,0,1.709,4.4A2.85,2.85,0,0,1,3568.053,3435.5Z"/></g></g></svg>