<svg xmlns="http://www.w3.org/2000/svg" width="166.738" height="205.26" viewBox="0 0 166.738 205.26"><defs><style>.a{fill:#00bedb;}</style></defs><g transform="translate(-2665.431 -675.734)"><path class="a" d="M2725.477,880.994c-8.3,0-16.6-2.864-24.321-8.446-17.322-12.519-30-37.3-34.755-67.987-2.856-18.382.622-34.41,10.066-46.353,8.415-10.635,20.858-17.111,35.04-18.221,14.369-1.128,25.1,2.142,31.6,5.083a13.844,13.844,0,0,0,11.383,0c6.495-2.941,17.2-6.234,31.611-5.083,14.178,1.11,26.616,7.586,35.036,18.228,9.44,11.94,12.922,27.972,10.066,46.35-4.765,30.682-17.438,55.464-34.76,67.991-9.547,6.895-19.99,9.64-30.233,7.95-6.607-1.1-11.233-2.142-13.951-2.825a14.336,14.336,0,0,0-6.914,0c-2.73.687-7.364,1.731-13.952,2.825a36.041,36.041,0,0,1-5.912.488m-8.2-134.776c-1.685,0-3.44.065-5.256.207-12.373.972-23.192,6.585-30.482,15.794-8.3,10.5-11.326,24.8-8.75,41.348,4.5,28.993,16.225,52.227,32.161,63.752,8.119,5.874,16.915,8.231,25.376,6.818,6.385-1.055,10.838-2.065,13.445-2.722a20.764,20.764,0,0,1,10.062,0c2.607.657,7.045,1.659,13.441,2.722,8.507,1.409,17.268-.948,25.38-6.818,15.936-11.517,27.665-34.755,32.168-63.752,2.572-16.551-.457-30.851-8.753-41.348-7.287-9.209-18.109-14.822-30.479-15.794-13.018-1.005-22.635,1.9-28.432,4.527a20.26,20.26,0,0,1-16.72,0,56.042,56.042,0,0,0-23.161-4.734"/><path class="a" d="M2749.654,752.037a3.233,3.233,0,0,1-3.233-3.229,47.644,47.644,0,0,1,47.586-47.586,3.229,3.229,0,1,1,0,6.458,41.172,41.172,0,0,0-41.124,41.128,3.232,3.232,0,0,1-3.229,3.229"/><path class="a" d="M2745.459,723.914c-3.95,0-21.614-.645-34.9-11.609-14.735-12.155-18.025-31.992-18.159-32.832a3.228,3.228,0,0,1,3.079-3.736c.844,0,20.958-.553,35.677,11.6s18.032,31.995,18.166,32.832a3.238,3.238,0,0,1-3.086,3.736c-.081,0-.353.011-.78.011m-45.777-41.57c1.639,5.951,5.805,17.4,14.988,24.974,9.217,7.613,21.238,9.517,27.369,9.985-1.636-5.943-5.805-17.406-14.988-24.985s-21.215-9.5-27.369-9.974"/><path class="a" d="M2686.354,808.273a3.223,3.223,0,0,1-3.164-2.629c-2.794-14.662-.706-27.327,6.036-36.637,5.858-8.081,15.045-13.31,25.856-14.711a3.228,3.228,0,1,1,.833,6.4c-9.029,1.171-16.65,5.471-21.457,12.105-5.67,7.824-7.375,18.762-4.929,31.638a3.219,3.219,0,0,1-2.572,3.77,2.935,2.935,0,0,1-.6.061"/></g></svg>