<svg xmlns="http://www.w3.org/2000/svg" width="131.077" height="82.914" viewBox="0 0 131.077 82.914"><defs><style>.a{fill:#183b8d;}</style></defs><g transform="translate(-2723.417 -6214.589)"><path class="a" d="M2790.641,6236.535a11.93,11.93,0,0,0-2.6.287l1.974-7.331H2785.1a3.646,3.646,0,0,0-3.517,2.683l-1.521,5.5a15.308,15.308,0,0,0,2.144-.2,11.794,11.794,0,0,1-6.292,1.808,11.951,11.951,0,0,1-1.462-.093,11.786,11.786,0,0,1-3.4-.846l-2.126,7.679a11.9,11.9,0,0,0,8.54,1.062l-2,7.468h4.988a3.561,3.561,0,0,0,3.436-2.625l1.444-5.3a11.771,11.771,0,0,0-3.314.854,11.842,11.842,0,0,1,3.646-2.072v0l.143-.047c.087-.029.175-.059.263-.086.07-.022.141-.043.212-.063.09-.027.181-.053.272-.077.071-.019.144-.037.216-.054.091-.023.182-.045.274-.066l.228-.046c.09-.018.179-.036.27-.052s.164-.027.247-.039.171-.028.258-.039.184-.021.276-.031.157-.018.236-.025c.109-.01.219-.016.328-.022.064,0,.128-.01.192-.013.174-.007.35-.011.526-.011h.012c.205,0,.408,0,.61.016.063,0,.124.01.186.014.144.01.287.019.429.034.069.007.138.018.207.026.133.016.267.032.4.053.069.01.136.024.205.036.131.023.263.046.393.073l.2.045c.131.03.262.06.391.094l.188.053c.13.037.259.074.388.115.06.019.12.04.18.061.128.043.256.086.382.134.06.022.118.046.177.07.125.049.249.1.371.152l.052.021,2.12-7.654A11.808,11.808,0,0,0,2790.641,6236.535Z"/><path class="a" d="M2852.363,6252.866a9.037,9.037,0,0,0-5.353-3.074l-1-13.586a2.051,2.051,0,0,0,2-1.695l.386-2.189a7.74,7.74,0,0,0-1.584-6.355,7.469,7.469,0,0,0-5.847-2.621H2825.9l.733-4.159a3.939,3.939,0,0,0-.827-3.235,3.886,3.886,0,0,0-3-1.363H2748.64a4.8,4.8,0,0,0-4.6,3.885l-6.562,37.216a2.051,2.051,0,0,0,1.665,2.377,1.992,1.992,0,0,0,.359.032,2.052,2.052,0,0,0,2.018-1.7l6.562-37.215a.7.7,0,0,1,.554-.493h73.911l-6.523,37a2.052,2.052,0,1,0,4.042.712l.473-2.682h24.548a5.253,5.253,0,0,1,4.128,1.784,5.083,5.083,0,0,1,1.145,2.868h-6.818a2.052,2.052,0,0,0-2.021,1.7l-.772,4.378a5.845,5.845,0,0,0,1.205,4.8,5.731,5.731,0,0,0,4.423,1.992h1.932l-1.592,9.03H2841.3a10.783,10.783,0,0,0-2.321-4.877,11.1,11.1,0,0,0-8.7-3.88,15.8,15.8,0,0,0-13.6,8.757h-.825l2.663-15.1a2.052,2.052,0,1,0-4.042-.713l-2.789,15.817H2773.7a10.774,10.774,0,0,0-2.32-4.877,11.106,11.106,0,0,0-8.7-3.879,15.8,15.8,0,0,0-13.6,8.756h-11.771l.82-4.651h9.224a2.052,2.052,0,0,0,0-4.1h-21.892a2.052,2.052,0,0,0,0,4.1h8.5l-.733,4.158a3.946,3.946,0,0,0,.827,3.236,3.89,3.89,0,0,0,3,1.362h10.695a11.345,11.345,0,0,0,2.373,9.255,11.1,11.1,0,0,0,8.7,3.88c6.985,0,13.668-5.671,14.9-12.642.029-.165.052-.329.075-.493h41.558a11.346,11.346,0,0,0,2.373,9.255,11.1,11.1,0,0,0,8.7,3.88c6.985,0,13.668-5.671,14.9-12.642.029-.165.052-.329.075-.493h7.047a2.053,2.053,0,0,0,2.021-1.7l3.86-21.892A9.513,9.513,0,0,0,2852.363,6252.866Zm-28.732-16.659h18.263l.988,13.409h-21.615Zm17.335-8.756a3.436,3.436,0,0,1,2.7,1.155,3.6,3.6,0,0,1,.685,3l-.087.493h-19.912l.82-4.652Zm-71.287,56.7a11.511,11.511,0,0,1-10.854,9.25,7.072,7.072,0,0,1-5.553-2.413,7.354,7.354,0,0,1-1.442-6.124,11.513,11.513,0,0,1,10.855-9.25,7.071,7.071,0,0,1,5.553,2.414A7.354,7.354,0,0,1,2769.679,6284.149Zm67.6,0a11.511,11.511,0,0,1-10.854,9.25,7.069,7.069,0,0,1-5.553-2.414,7.352,7.352,0,0,1-1.442-6.123,11.513,11.513,0,0,1,10.855-9.25,7.071,7.071,0,0,1,5.553,2.414A7.351,7.351,0,0,1,2837.279,6284.149Zm9.1-17.02a1.6,1.6,0,0,1-1.278-.525,1.737,1.737,0,0,1-.307-1.444l.473-2.683h4.588l-.82,4.652Z"/></g></svg>