<svg xmlns="http://www.w3.org/2000/svg" width="161.003" height="161.003" viewBox="0 0 161.003 161.003"><defs><style>.a{fill:none;stroke:#00bedb;stroke-linecap:round;stroke-miterlimit:10;stroke-width:3px;}.b{fill:#183b8d;}</style></defs><g transform="translate(-336.5 -1577.892)"><circle class="a" cx="79.001" cy="79.001" r="79.001" transform="translate(338 1579.392)"/><g transform="translate(-2304.055)"><path class="b" d="M2739.927,1611.618a1.782,1.782,0,0,0-1.983.681c-.789,1.13-19.254,27.868-15.031,45.927a17.987,17.987,0,0,0,9.231,12.1,1.774,1.774,0,1,0,1.71-3.109,14.579,14.579,0,0,1-7.483-9.794c-2.834-12.114,6.263-29.612,11.252-37.986v84.038a1.776,1.776,0,0,0,3.551,0v-90.159A1.775,1.775,0,0,0,2739.927,1611.618Z"/><path class="b" d="M2715.22,1615.362a1.776,1.776,0,0,0-1.774,1.774v26.612c0,3.527-3.407,6.4-7.594,6.4s-7.6-2.869-7.6-6.4v-26.612a1.774,1.774,0,0,0-3.549,0v26.612c0,4.943,4.068,9.044,9.37,9.807v49.917a1.776,1.776,0,0,0,3.551,0v-49.917c5.3-.762,9.369-4.863,9.369-9.807v-26.612A1.777,1.777,0,0,0,2715.22,1615.362Z"/><path class="b" d="M2705.852,1647.961a1.776,1.776,0,0,0,1.774-1.773v-29.051a1.776,1.776,0,0,0-3.551,0v29.051A1.777,1.777,0,0,0,2705.852,1647.961Z"/></g></g></svg>