<svg xmlns="http://www.w3.org/2000/svg" width="321.394" height="41" viewBox="0 0 321.394 41"><defs><style>.a{fill:#fff;}.b{fill:#00bedb;font-size:29.116px;font-family:Poppins-Bold, Poppins;font-weight:700;}.c{font-family:Foco-Regular, Foco;font-weight:400;}</style></defs><g transform="translate(-3103.403 -5324.203)"><path class="a" d="M3111.459,5330.047c5.821,0,11.457-.171,17.078.052,4.737.189,8.147,3.259,8.577,7.376a11.561,11.561,0,0,1-4.819,11.123,17.975,17.975,0,0,1-9.727,3.13c-2.2.156-4.419.164-6.628.146a1.119,1.119,0,0,0-1.318,1.046c-.311,1.412-.727,2.8-1.093,4.2a3.209,3.209,0,0,1-2.955,2.65c-2.363.148-4.742.039-7.171.039C3106.082,5349.912,3108.789,5339.912,3111.459,5330.047Zm5.328,15.014c2.37-.123,4.583-.091,6.749-.4a5.925,5.925,0,0,0,4.2-2.937c1.578-2.545.448-5.118-2.518-5.506-1.6-.208-3.236-.075-4.851-.177-.883-.055-1.373.221-1.464,1.12a3.281,3.281,0,0,1-.133.5Z"/><path class="a" d="M3189.324,5330.207c3.1,0,6.028-.019,8.957.038.23,0,.572.511.656.838,1.07,4.134,2.1,8.278,3.146,12.419.115.457.247.911.416,1.531.343-.375.574-.611.787-.862,3.24-3.816,6.494-7.62,9.709-11.457a6.6,6.6,0,0,1,5.515-2.531c2.681.065,5.366.015,8.335.015l-28.758,32.641Z"/><path class="a" d="M3186.041,5359.976h-8.571c.725-2.741,1.447-5.454,2.159-8.169.41-1.566.849-3.126,1.194-4.706.422-1.929-.58-3.154-2.554-3.237-2.747-.116-4.325.938-5.053,3.591-1.067,3.886-2.052,7.795-3.018,11.707-.165.668-.411.886-1.093.875-2.519-.038-5.039-.015-7.746-.015,1.958-7.531,3.885-14.944,5.853-22.516,2.419,1.337,4.743.527,7.142.022a25.746,25.746,0,0,1,6.252-.563,11.545,11.545,0,0,1,4.44,1.218,7.62,7.62,0,0,1,4.3,8.879C3188.407,5351.4,3187.158,5355.66,3186.041,5359.976Z"/><path class="a" d="M3239.2,5354.7c-.371,1.348-.708,2.753-1.166,4.117a1.589,1.589,0,0,1-.949.771,24.453,24.453,0,0,1-9.005.951,13.862,13.862,0,0,1-6.9-1.9c-6.124-3.868-5.566-11.724-1.788-15.9a19.4,19.4,0,0,1,19.67-5.008c3.256,1.2,5.042,3.737,4.729,6.833a7,7,0,0,1-2.968,4.908,14.4,14.4,0,0,1-9.264,2.72c-2.051-.029-4.1-.318-6.229-.5-.543,1.09.124,2.625,1.724,3.391a9.714,9.714,0,0,0,5.572.729C3234.8,5355.522,3236.956,5355.087,3239.2,5354.7Zm-13.087-8.017c.663.176,1.245.364,1.841.483a9.592,9.592,0,0,0,6.266-.408,2.506,2.506,0,0,0,1.71-2.468c-.1-1.183-1.055-1.607-2.043-1.906C3230.886,5341.475,3227.389,5343.356,3226.111,5346.684Z"/><path class="a" d="M3141.082,5342.683c.438-1.533.8-2.894,1.232-4.234a1.1,1.1,0,0,1,.664-.657c4.113-.821,8.251-1.392,12.421-.452,4.474,1.009,6.431,4,5.4,8.508-1.071,4.693-2.355,9.338-3.57,14.1-2.211-1.228-4.339-.874-6.566-.215a17.887,17.887,0,0,1-11.69-.087c-5.253-2-6.2-7.734-1.9-11.375a13.18,13.18,0,0,1,7.2-2.868,20.907,20.907,0,0,1,7.608.355c.63.159.872-.089,1.018-.649a1.993,1.993,0,0,0-1.345-2.646,12.581,12.581,0,0,0-3.948-.583c-1.817.053-3.624.425-5.435.661C3141.869,5342.576,3141.57,5342.617,3141.082,5342.683Zm4.591,12.73a6.2,6.2,0,0,0,5.721-3.961c.192-.537.158-.864-.464-.96a25.156,25.156,0,0,0-3.559-.515,6.014,6.014,0,0,0-4.241,1.326,1.97,1.97,0,0,0,.488,3.495A15.039,15.039,0,0,0,3145.673,5355.413Z"/><path class="a" d="M3242.616,5360.022c.625-2.3,1.226-4.512,1.833-6.727q2.893-10.557,5.793-21.114c.5-1.831,1.187-2.329,3.114-2.33h6.623c-.88,3.234-1.735,6.384-2.6,9.533-1.781,6.508-3.58,13.011-5.331,19.527-.222.827-.528,1.162-1.445,1.136C3247.986,5359.975,3245.361,5360.022,3242.616,5360.022Z"/><text class="b" transform="translate(3267.797 5355.203)"><tspan x="0" y="0"> </tspan><tspan class="c" y="0">|</tspan><tspan y="0" xml:space="preserve">  DNHygia</tspan></text></g></svg>