<svg xmlns="http://www.w3.org/2000/svg" width="123.232" height="123.232" viewBox="0 0 123.232 123.232"><defs><style>.a{fill:none;stroke:#00bedb;stroke-linecap:round;stroke-miterlimit:10;stroke-width:3px;}.b{fill:#183b8d;}</style></defs><g transform="translate(-352.564 -1381.319)"><g transform="translate(-4643.172)"><circle class="a" cx="60.116" cy="60.116" r="60.116" transform="translate(4997.237 1382.819)"/><path class="b" d="M5082.761,1425.117a44.847,44.847,0,0,0-11.85-14.348,19.985,19.985,0,0,0-12.8-4.735l-.289,0-.323,0a20,20,0,0,0-12.814,4.735,44.823,44.823,0,0,0-11.851,14.348c-5.888,11.562-7.748,22.4-5.689,33.128,2.9,15.158,14.949,25.265,30.682,25.749h.01c15.691-.484,27.708-10.592,30.613-25.749C5090.51,1447.515,5088.65,1436.679,5082.761,1425.117Zm3.3,32.669c-2.684,13.995-13.766,23.327-28.224,23.774-14.509-.446-25.618-9.778-28.3-23.774-1.953-10.176-.165-20.5,5.466-31.565a42.47,42.47,0,0,1,11.229-13.573,17.594,17.594,0,0,1,11.248-4.18l.342,0c.12,0,.239,0,.359,0a17.481,17.481,0,0,1,11.183,4.181,42.435,42.435,0,0,1,11.228,13.573C5086.223,1437.281,5088.012,1447.6,5086.061,1457.786Z"/></g><path class="b" d="M5057.3,1439.021a14.908,14.908,0,1,0,14.907,14.907A14.924,14.924,0,0,0,5057.3,1439.021Zm12.471,14.907a12.471,12.471,0,1,1-12.471-12.472A12.487,12.487,0,0,1,5069.767,1453.928Z" transform="translate(-4643.172)"/><path class="b" d="M5050.372,1417.926h.033a1.252,1.252,0,0,0,1.248-1.217,1.248,1.248,0,0,0-1.217-1.279,1.188,1.188,0,0,0-.892.343,1.248,1.248,0,0,0,.828,2.152Z" transform="translate(-4643.172)"/><path class="b" d="M5048.164,1418.332a1.222,1.222,0,0,0-1.721.009,32.786,32.786,0,0,0-7.468,11.765,1.215,1.215,0,0,0,.728,1.561,1.22,1.22,0,0,0,1.559-.729,30.411,30.411,0,0,1,6.91-10.884A1.22,1.22,0,0,0,5048.164,1418.332Z" transform="translate(-4643.172)"/></g></svg>