<svg xmlns="http://www.w3.org/2000/svg" width="162" height="162" viewBox="0 0 162 162"><defs><style>.a{fill:none;stroke:#00bedb;stroke-linecap:round;stroke-miterlimit:10;stroke-width:3px;}.b{fill:#183b8d;}</style></defs><g transform="translate(-336.5 -1806.403)"><circle class="a" cx="79.5" cy="79.5" r="79.5" transform="translate(338 1807.903)"/><g transform="translate(-2304.055)"><path class="b" d="M2762.618,1871.759c-1.179-20.606-14.419-32.425-36.325-32.425-14.76,0-25.448,3.507-31.769,10.423-5.507,6.022-7.687,14.473-6.666,25.837.7,7.757-5.948,18.633-8.835,22.948a3.3,3.3,0,0,0,2.356,5.122l4.732.644c.128.821.35,1.9.621,3.224l.043.21c.811,3.921,2.035,9.845,1.772,13.785a6.652,6.652,0,0,0,2.393,6.084c1.6,1.251,3.933,1.859,7.118,1.859,5.031,0,12.243-1.556,22.05-4.756,9.235-3.017,11.5-19.524,11.595-20.227a1.647,1.647,0,0,0-2.638-1.516,1.635,1.635,0,0,0-.63,1.1c-.019.151-2.123,15.154-9.351,17.514-17.773,5.8-24.015,5.067-26.122,3.428a3.524,3.524,0,0,1-1.128-3.263c.292-4.394-.936-10.333-1.832-14.67-.336-1.623-.582-2.829-.682-3.575a2.906,2.906,0,0,0-2.549-2.519l-5.013-.606c3.83-5.722,10.141-16.59,9.382-25.076-.935-10.394.967-18.023,5.813-23.322,5.676-6.2,15.547-9.351,29.34-9.351,27.282,0,32.409,18.369,33.038,29.319.313,5.508-2.2,11.139-4.625,16.585-2.317,5.192-4.712,10.562-4.712,15.938,0,8.915,3.817,22.783,3.979,23.369a1.633,1.633,0,0,0,.783,1,1.611,1.611,0,0,0,1.246.149,1.65,1.65,0,0,0,1.145-2.027c-.158-.572-3.857-14.109-3.857-22.49,0-4.67,2.144-9.484,4.422-14.6C2760.3,1884.071,2762.979,1878.071,2762.618,1871.759Z"/><path class="b" d="M2722.058,1879.578a8.375,8.375,0,1,0-4.563-4.5A8.351,8.351,0,0,0,2722.058,1879.578Zm-1.556-9.672a5.079,5.079,0,1,1,.026,3.892A5.04,5.04,0,0,1,2720.5,1869.906Z"/><path class="b" d="M2714.744,1871.686l-1.041.145a4.919,4.919,0,1,0,.213,4.126,5.089,5.089,0,0,0,.254-.866l1.027-.142a1.649,1.649,0,0,0,1.4-1.858A1.63,1.63,0,0,0,2714.744,1871.686Zm-3.878,3.031a1.654,1.654,0,0,1-3.057.021,1.653,1.653,0,0,1,1.521-2.3,1.685,1.685,0,0,1,.627.123A1.66,1.66,0,0,1,2710.866,1874.717Z"/><path class="b" d="M2743.643,1853.087a6.366,6.366,0,0,0-8.206,8.519l-2.705,2.208a1.646,1.646,0,0,0,1.039,2.924,1.663,1.663,0,0,0,1.042-.369l2.706-2.209a6.372,6.372,0,1,0,6.124-11.073Zm-5.257,4.744a3.083,3.083,0,1,1,1.7,4.018A3.09,3.09,0,0,1,2738.386,1857.831Z"/><path class="b" d="M2717.725,1861.546l.969,1.677a1.647,1.647,0,0,0,2.853-1.647l-.881-1.524a5.43,5.43,0,1,0-2.941,1.494Zm.882-4.262a1.654,1.654,0,0,1-3.056.02,1.653,1.653,0,0,1,2.143-2.175A1.659,1.659,0,0,1,2718.607,1857.284Z"/><path class="b" d="M2739,1882a5.36,5.36,0,0,0-4.244-.292l-1.726-2.285a1.648,1.648,0,0,0-2.628,1.989l1.731,2.29a5.244,5.244,0,0,0-.387.588A5.378,5.378,0,1,0,2739,1882Zm-4.33,3.81a2.082,2.082,0,0,1,1.853-1.123,2.081,2.081,0,0,1,1.842,3.047,2.083,2.083,0,1,1-3.7-1.924Z"/></g></g></svg>