<svg xmlns="http://www.w3.org/2000/svg" width="131.078" height="82.914" viewBox="0 0 131.078 82.914"><defs><style>.a{fill:#183b8d;}</style></defs><g transform="translate(-7505.027 -5854.703)"><path class="a" d="M7572.251,5876.649a11.921,11.921,0,0,0-2.6.287l1.973-7.331h-4.915a3.647,3.647,0,0,0-3.517,2.683l-1.521,5.5a15.255,15.255,0,0,0,2.144-.2,11.8,11.8,0,0,1-6.292,1.808,11.947,11.947,0,0,1-1.462-.093,11.8,11.8,0,0,1-3.4-.846l-2.126,7.679a11.894,11.894,0,0,0,8.54,1.062l-2,7.467h4.988a3.561,3.561,0,0,0,3.436-2.625l1.444-5.3a11.758,11.758,0,0,0-3.313.854,11.854,11.854,0,0,1,3.645-2.072v0c.047-.017.1-.031.143-.047.087-.03.175-.059.263-.087.07-.022.141-.042.212-.062.091-.027.181-.053.272-.078.072-.019.144-.036.216-.054.092-.022.182-.045.275-.065l.227-.046c.09-.018.18-.037.27-.053s.165-.026.247-.038.171-.028.258-.039.184-.021.276-.031.157-.019.236-.026c.109-.009.219-.015.328-.022.064,0,.128-.009.192-.012.175-.008.35-.012.527-.012h.011q.308,0,.61.016c.063,0,.124.01.187.014.143.009.286.019.428.034.069.007.138.018.207.026.134.016.267.032.4.053.068.01.136.024.2.036.131.023.263.046.393.073.066.014.13.03.2.045.131.03.262.06.391.094.063.016.125.035.188.053.13.037.26.074.388.114l.18.061c.128.043.256.087.382.135.06.022.118.046.177.069.125.049.249.1.372.152l.052.022,2.119-7.654A11.809,11.809,0,0,0,7572.251,5876.649Z"/><path class="a" d="M7633.973,5892.98a9.035,9.035,0,0,0-5.353-3.074l-1-13.586a2.051,2.051,0,0,0,2-1.695l.386-2.189a7.736,7.736,0,0,0-1.583-6.355,7.469,7.469,0,0,0-5.848-2.621h-15.067l.733-4.159a3.943,3.943,0,0,0-.827-3.236,3.89,3.89,0,0,0-3-1.362h-74.167a4.8,4.8,0,0,0-4.6,3.885l-6.562,37.216a2.053,2.053,0,0,0,1.665,2.377,2.087,2.087,0,0,0,.359.032,2.052,2.052,0,0,0,2.018-1.7l6.562-37.215a.7.7,0,0,1,.554-.494h73.911l-6.523,37a2.052,2.052,0,0,0,4.042.712l.473-2.683H7626.7a5.256,5.256,0,0,1,4.128,1.785,5.078,5.078,0,0,1,1.145,2.867h-6.817a2.055,2.055,0,0,0-2.022,1.7l-.771,4.378a5.839,5.839,0,0,0,1.205,4.795,5.728,5.728,0,0,0,4.422,1.992h1.933l-1.593,9.03h-5.418a10.784,10.784,0,0,0-2.32-4.877,11.106,11.106,0,0,0-8.7-3.88,15.8,15.8,0,0,0-13.6,8.757h-.825l2.664-15.1a2.053,2.053,0,1,0-4.043-.713l-2.789,15.817h-37.993a10.778,10.778,0,0,0-2.32-4.877,11.1,11.1,0,0,0-8.7-3.879,15.794,15.794,0,0,0-13.6,8.756h-11.771l.82-4.652h9.224a2.052,2.052,0,0,0,0-4.1H7507.08a2.052,2.052,0,1,0,0,4.1h8.5l-.733,4.159a3.944,3.944,0,0,0,.827,3.235,3.89,3.89,0,0,0,3,1.363h10.7a11.346,11.346,0,0,0,2.373,9.255,11.105,11.105,0,0,0,8.7,3.88c6.985,0,13.668-5.671,14.9-12.642.029-.165.052-.329.075-.493h41.558a11.348,11.348,0,0,0,2.373,9.255,11.107,11.107,0,0,0,8.7,3.88c6.985,0,13.667-5.671,14.9-12.642.029-.165.051-.329.074-.493h7.047a2.053,2.053,0,0,0,2.021-1.7l3.86-21.892A9.51,9.51,0,0,0,7633.973,5892.98Zm-28.732-16.659H7623.5l.988,13.409h-21.615Zm17.336-8.757a3.436,3.436,0,0,1,2.7,1.155,3.6,3.6,0,0,1,.685,3l-.087.494h-19.912l.82-4.653Zm-71.287,56.7a11.514,11.514,0,0,1-10.855,9.25,7.075,7.075,0,0,1-5.553-2.414,7.352,7.352,0,0,1-1.442-6.123,11.513,11.513,0,0,1,10.855-9.25,7.07,7.07,0,0,1,5.553,2.414A7.351,7.351,0,0,1,7551.29,5924.263Zm67.6,0a11.514,11.514,0,0,1-10.855,9.25,7.074,7.074,0,0,1-5.553-2.414,7.353,7.353,0,0,1-1.442-6.124,11.513,11.513,0,0,1,10.855-9.249,7.073,7.073,0,0,1,5.553,2.413A7.354,7.354,0,0,1,7618.89,5924.263Zm9.1-17.02a1.6,1.6,0,0,1-1.278-.526,1.74,1.74,0,0,1-.307-1.444l.473-2.682h4.588l-.82,4.652Z"/></g></svg>