<svg xmlns="http://www.w3.org/2000/svg" width="161.003" height="161.003" viewBox="0 0 161.003 161.003"><defs><style>.a{fill:#183b8d;}.b{fill:none;stroke:#00bedb;stroke-linecap:round;stroke-width:3px;}</style></defs><g transform="translate(-356.751 -1605.677)"><g transform="translate(-7087.819)"><path class="a" d="M7579.865,1705.568c-2.253-4.005-6.043-4.884-9.707-5.736a24.091,24.091,0,0,1-6.654-2.258c-14.31-8.119-21.49-27.076-25.347-37.261-1.92-5.068-2.521-6.55-3.609-7.015-4.579-1.964-10.511,1.409-16.739,9.556-.022.019-2.446,1.316-11.847-5.321s-11.365-8.018-14.586-6.479c-2.129,1.015-3.443,4.657-5.073,9.693-.428,1.331-.836,2.587-1.173,3.379-.875,2.038-5.163,5.832-6.779,7.261-.5.444-.825.732-1.04.964-2.211,1.852-5.585,6.68-3.077,12.264,3.371,7.5,21.046,13.064,21.222,13.114.748.219,1.829.457,3.1.736a50,50,0,0,1,10.62,3.181c1.031.5,3.055,1.6,5.681,3.015,9.628,5.2,25.743,13.914,33.039,15.547a66.158,66.158,0,0,0,14.11,1.664,26.254,26.254,0,0,0,6.83-.713c3.851-1.116,9.548-7.468,9.985-8.157a1.2,1.2,0,0,0,.078-.2C7581.611,1709.488,7580.422,1706.56,7579.865,1705.568Zm-99.8-32.24c3.295-2.913,6.474-5.919,7.443-8.18.387-.9.791-2.154,1.262-3.606.849-2.633,2.436-7.537,3.721-8.15,1.733-.823,3.115.006,11.972,6.257,10.765,7.6,14.251,6.267,15.452,4.713,5.23-6.838,10.124-10.009,13.462-8.742a41.179,41.179,0,0,1,2.354,5.611c3.973,10.492,11.37,30.017,26.494,38.6a26.461,26.461,0,0,0,7.345,2.53c3.544.821,6.34,1.471,8.035,4.481.565,1,1.34,3.673-3.659,6.793-7.432,4.644-26.551-1.751-30.6-4.216-1.028-.627-3.448-2.152-6.6-4.137-14.636-9.215-29.131-18.281-31.558-19.09-.439-.148-1.235-.369-2.29-.662-14.838-4.132-22.682-8.083-23.34-11.752Zm88.05,45.343c-3.188.928-10.7,1.008-19.654-.991-6.945-1.554-23.487-10.494-32.372-15.3-2.668-1.444-4.728-2.555-5.776-3.067a51.773,51.773,0,0,0-11.2-3.383c-1.2-.263-2.224-.485-2.929-.691-4.229-1.232-17.258-6.5-19.585-11.689a7.416,7.416,0,0,1,.986-7.682c2.755,5.371,13.791,9.134,24.621,12.151,1,.276,1.752.485,2.167.623,2.338.778,21.692,12.97,31,18.827,3.168,1.994,5.6,3.525,6.634,4.155,2.954,1.8,14.825,6.228,24.414,6.228a25.016,25.016,0,0,0,3.78-.269A7.978,7.978,0,0,1,7568.117,1718.671Z"/><path class="a" d="M7528.508,1672.194a1.276,1.276,0,0,0,.7-.2c1.527-.98,5.845-4.118,6.028-4.252a1.3,1.3,0,1,0-1.522-2.1c-.046.032-4.444,3.228-5.9,4.168a1.3,1.3,0,0,0,.7,2.385Z"/><path class="a" d="M7533.13,1679.732a1.3,1.3,0,0,0,1.791.39c1.541-.99,4.425-3.208,4.546-3.3a1.3,1.3,0,0,0-1.581-2.052c-.029.022-2.916,2.243-4.365,3.174A1.3,1.3,0,0,0,7533.13,1679.732Z"/><path class="a" d="M7538.851,1688.125a1.293,1.293,0,0,0,1.091.594,1.308,1.308,0,0,0,.7-.2c1.538-.991,3.727-2.668,3.82-2.74a1.3,1.3,0,1,0-1.578-2.057c-.021.018-2.195,1.684-3.642,2.614A1.3,1.3,0,0,0,7538.851,1688.125Z"/><path class="a" d="M7466.173,1650.061h17.735a1.3,1.3,0,1,0,0-2.591h-17.735a1.3,1.3,0,0,0,0,2.591Z"/><path class="a" d="M7479.59,1656.54a1.3,1.3,0,0,0-1.3-1.3H7460.56a1.295,1.295,0,0,0,0,2.59h17.734A1.3,1.3,0,0,0,7479.59,1656.54Z"/><path class="a" d="M7515.457,1715.073h-17.735a1.3,1.3,0,1,0,0,2.591h17.735a1.3,1.3,0,0,0,0-2.591Z"/><path class="a" d="M7510.273,1721.665H7492.54a1.3,1.3,0,0,0,0,2.592h17.733a1.3,1.3,0,0,0,0-2.592Z"/></g><path class="b" d="M79,0A79,79,0,1,1,0,79,79,79,0,0,1,79,0Z" transform="translate(358.251 1607.177)"/></g></svg>