<svg xmlns="http://www.w3.org/2000/svg" width="89.726" height="89.724" viewBox="0 0 89.726 89.724"><defs><style>.a{fill:none;stroke:#00bedb;stroke-linecap:round;stroke-miterlimit:10;stroke-width:3px;}.b{fill:#183b8d;}</style></defs><g transform="translate(-763.643 -3417.397)"><path class="a" d="M3155.924,3462.258a43.363,43.363,0,1,1-43.363-43.361A43.363,43.363,0,0,1,3155.924,3462.258Z" transform="translate(-2304.055)"/><g transform="translate(-2304.055)"><path class="b" d="M3141.7,3465.129a12.331,12.331,0,0,1,0-5.738l1.786-7.331a1.18,1.18,0,0,0-1.964-1.129c-.233.224-23.459,22.412-38.483,22.412-11.733,0-17.61-8.851-18.9-11.084,1.292-2.239,7.146-11.085,18.9-11.085,7.777,0,17.942,6.226,23.307,9.936a1.162,1.162,0,0,0,.878.193,1.18,1.18,0,0,0,.466-2.132c-6.827-4.725-16.646-10.356-24.651-10.356-14.97,0-21.249,12.807-21.309,12.933-.01.02-.008.042-.017.063s-.026.035-.033.056a1.222,1.222,0,0,0-.023.16,1.084,1.084,0,0,0-.034.234,135.013,135.013,0,0,0,.055.388c.008.023.026.038.035.06s.007.044.017.065c.258.528,6.483,12.928,21.309,12.928,12.955,0,30.523-14.441,37.232-20.416l-.864,3.548a14.529,14.529,0,0,0,0,6.851l.882,3.614c-1.8-1.58-4.207-3.635-6.923-5.78a1.181,1.181,0,0,0-1.654.2,1.179,1.179,0,0,0,.2,1.657c4.78,3.776,8.547,7.223,9.623,8.221a1.179,1.179,0,0,0,1.956-1.135Z"/><path class="b" d="M3098.525,3471.84a1.192,1.192,0,0,0,.468.095,1.18,1.18,0,0,0,1.082-.709c2.148-4.942,2.148-12.986,0-17.93a1.18,1.18,0,0,0-2.164.942,23.021,23.021,0,0,1,0,16.047A1.188,1.188,0,0,0,3098.525,3471.84Z"/><path class="b" d="M3089.766,3460.566a1.8,1.8,0,1,0,1.8-1.8A1.806,1.806,0,0,0,3089.766,3460.566Z"/></g></g></svg>