<svg xmlns="http://www.w3.org/2000/svg" width="376" height="376" viewBox="0 0 376 376"><defs><style>.a{fill:#00bedb;}.b{fill:#183b8d;}</style></defs><g transform="translate(-402 -4407)"><circle class="a" cx="188" cy="188" r="188" transform="translate(402 4407)"/><g transform="translate(-2304.055)"><path class="b" d="M2826.562,4710.043a2,2,0,0,0,1.414-3.414l-48.739-48.739a2,2,0,0,0-2.828,2.828l48.739,48.739A1.992,1.992,0,0,0,2826.562,4710.043Z"/><path class="b" d="M2830.131,4690.269a2,2,0,0,0,1.414-3.414l-32.752-32.752a2,2,0,1,0-2.828,2.828l32.751,32.752A1.993,1.993,0,0,0,2830.131,4690.269Z"/><path class="b" d="M2954.733,4479.566a2,2,0,0,0,0,2.828l48.739,48.739a2,2,0,1,0,2.828-2.828l-48.739-48.739A2,2,0,0,0,2954.733,4479.566Z"/><path class="b" d="M2951.165,4499.339a2,2,0,0,0,0,2.828l32.752,32.753a2,2,0,0,0,2.828-2.828l-32.752-32.753A2,2,0,0,0,2951.165,4499.339Z"/><path class="b" d="M2900.181,4550.787a2,2,0,1,0-2.828,2.829L2933,4589.258a2,2,0,1,0,2.828-2.828Z"/><path class="b" d="M2882.2,4554.914a2,2,0,0,0-2.817,2.842l48.563,48.126a2,2,0,1,0,2.816-2.842Z"/><path class="b" d="M2867.287,4564.229a2,2,0,0,0-2.828,2.828l54.531,54.531a2,2,0,0,0,2.828-2.828Z"/><path class="b" d="M2856.421,4576.6a2,2,0,1,0-2.829,2.828l53.159,53.157a2,2,0,1,0,2.828-2.828Z"/><path class="b" d="M2851.774,4595.34a2,2,0,1,0-2.828,2.828l39.5,39.5a2,2,0,0,0,2.828-2.828Z"/><path class="b" d="M3034.458,4526.025a7.163,7.163,0,0,0-10.53-.43c-11.25,11.24-24.75,16.47-42.49,16.47-10.27,0-21.01-1.72-32.26-3.79-.35-.06-.7-.12-1.06-.19-.06-.35-.12-.7-.19-1.05-5.08-27.72-8.29-53.76,12.69-74.75a7.163,7.163,0,0,0-10.13-10.13c-12.55,12.55-19.23,27.64-20.43,46.13-.8,12.32.86,24.55,2.83,35.99.06.35.12.7.18,1.04-.34-.06-.69-.12-1.04-.18a174.71,174.71,0,0,0-29.52-3.03c-2.19,0-4.37.07-6.47.2-18.49,1.2-33.58,7.89-46.13,20.43s-19.23,27.64-20.43,46.13c-.8,12.32.85,24.55,2.83,35.99.06.35.12.7.18,1.04l-1.04-.18a175.91,175.91,0,0,0-29.55-3.03c-2.2,0-4.37.07-6.44.2-18.49,1.2-33.58,7.89-46.13,20.43a7.158,7.158,0,0,0,0,10.13,7.158,7.158,0,0,0,10.13,0c11.22-11.22,24.73-16.45,42.5-16.45,10.37,0,21.06,1.72,32.25,3.77.35.06.7.12,1.05.19.06.35.13.7.19,1.05a233.38,233.38,0,0,1,3.46,24.12c1.14,14.81.36,33.92-15.87,50.35a7.459,7.459,0,0,0-.45,10.22,7.165,7.165,0,0,0,10.3.19c12.55-12.55,19.4-27.63,20.43-46.13a146.134,146.134,0,0,0-2.67-35.96c-.071-.35-.13-.7-.2-1.05l1.05.18a174.073,174.073,0,0,0,29.4,3.01c2.19,0,4.36-.07,6.45-.2,18.49-1.2,33.58-7.89,46.12-20.43s19.23-27.64,20.43-46.13c.2-2.94.25-5.93.17-9.15a183.317,183.317,0,0,0-3-26.84c-.06-.35-.11-.7-.18-1.05.35.07.7.12,1.05.18a174.728,174.728,0,0,0,29.52,3.04c2.2,0,4.38-.07,6.47-.2,18.37-1.2,33.38-7.8,45.88-20.19A7.362,7.362,0,0,0,3034.458,4526.025Zm-111.12,100.15c-11.22,11.22-24.73,16.45-42.5,16.45-10.37,0-21.05-1.71-32.24-3.77-.36-.06-.7-.12-1.06-.19-.06-.35-.13-.7-.19-1.05-5.08-27.72-8.31-53.75,12.69-74.75,11.24-11.24,24.74-16.48,42.49-16.48,10.26,0,20.99,1.73,32.26,3.79.35.07.7.13,1.05.19.07.36.13.71.19,1.06a233.069,233.069,0,0,1,3.46,24.12C2940.638,4590.455,2939.828,4609.685,2923.338,4626.175Z"/></g></g></svg>