<svg xmlns="http://www.w3.org/2000/svg" xmlns:xlink="http://www.w3.org/1999/xlink" width="148.876" height="148.876" viewBox="0 0 148.876 148.876"><defs><style>.a{fill:none;}.b{clip-path:url(#a);}.c{clip-path:url(#b);}.d{fill:#183b8d;}</style><clipPath id="a"><rect class="a" width="148.876" height="148.876" transform="translate(7447.699 3490.043)"/></clipPath><clipPath id="b"><rect class="a" width="148.876" height="148.876" transform="translate(7447.699 3490.042)"/></clipPath></defs><g transform="translate(-7447.699 -3490.043)"><g class="b"><g class="c"><path class="d" d="M7489.671,3554.394a1.268,1.268,0,0,1-1.218-.922,75.376,75.376,0,0,0-3.252-9.752,1.265,1.265,0,0,1,1.45-2.054c.486.267,1.293.713,4.239,11.119a1.269,1.269,0,0,1-.875,1.562,1.292,1.292,0,0,1-.344.047"/><path class="d" d="M7516,3589.135l-.492-.721c-1.136-1.949-.448-6.02.739-12,.508-2.572,1.259-6.364,1.066-7.563-.287-.028-.723-.033-1.018-.036a4.225,4.225,0,0,1-2.528-.492c-1.369-1.038-.624-3.109,1.193-7.693a42.8,42.8,0,0,0,1.643-4.613c-.138.014-.276.028-.389.042-1.028.118-2.093.233-2.771-.473-.311-.324-.884-.923-.758-5.144,0-.088.285-8.9,1.99-10.486,2.074-1.925,11.266-2.24,14.735-2.045,2.716.152,3.582.539,4.044,1.078h0c1.054,1.228,0,2.975-3.218,7.841a49.815,49.815,0,0,0-3.894,6.544c.385-.051.829-.117,1.185-.174,2.307-.351,3.7-.568,4.352.493.87,1.41-.351,3.5-3.8,8.692-.744,1.12-1.675,2.517-2.24,3.494,1.114-.125,2.277-.251,2.953.6.63.795.661,1.994-1.043,5.766-1.072,2.377-8.519,16.723-10.978,16.853Zm-.158-22.854h.477c1.138.011,2.215.02,2.865.727,1.182,1.283.657,4.275-.455,9.891a63.191,63.191,0,0,0-1.278,8.288c2.792-3.912,8.342-13.8,9.111-16.845-.163.015-.327.034-.457.046-1.166.134-2.374.269-3.028-.678-.776-1.113.021-2.41,2.9-6.729a56.253,56.253,0,0,0,3.37-5.484c-.476.054-1.023.138-1.429.2-2.039.317-2.9.423-3.554-.094-1.843-1.469.024-4.5,3.769-10.168a54.761,54.761,0,0,0,2.983-4.836c-2.959-.6-13.311-.031-14.718,1.209-.736,1.125-1.5,9.479-1.1,11.8.211-.018.459-.045.637-.065,1.1-.128,2.341-.267,2.971.712.739,1.143.15,2.911-1.59,7.3a39.29,39.29,0,0,0-1.663,4.724Z"/><path class="d" d="M7523.7,3603.9c-.156,0-.308,0-.465,0a1.265,1.265,0,0,1,.015-2.529c.094,0,.3,0,.448,0a38.377,38.377,0,0,0,38.325-37.905,1.266,1.266,0,0,1,1.265-1.249h.015a1.266,1.266,0,0,1,1.25,1.28,40.911,40.911,0,0,1-40.853,40.4"/><path class="d" d="M7523.251,3603.882h0a1.265,1.265,0,0,1-1.263-1.267c0-.6,0-1.428,7.725-8.964a1.3,1.3,0,0,1,1.742-.071,1.24,1.24,0,0,1,.2,1.687c-.039.051-.131.146-.177.193a68.811,68.811,0,0,0-7,7.446,1.267,1.267,0,0,1-1.233.976"/><path class="d" d="M7501.389,3597.862a1.271,1.271,0,0,1-.611-.158,40.908,40.908,0,0,1-15.948-55.543,1.263,1.263,0,0,1,2.209,1.226A38.382,38.382,0,0,0,7502,3595.493a1.264,1.264,0,0,1-.615,2.369"/><path class="d" d="M7558.2,3542.7a1.261,1.261,0,0,1-1.121-.674,38.337,38.337,0,0,0-51.8-15.989,1.263,1.263,0,1,1-1.179-2.235,40.865,40.865,0,0,1,55.216,17.043,1.261,1.261,0,0,1-.528,1.708,1.246,1.246,0,0,1-.588.147"/><path class="d" d="M7557.974,3542.9c-1.081,0-3.674-.483-10.806-2.714a1.265,1.265,0,1,1,.756-2.415,75.139,75.139,0,0,0,9.942,2.614,1.265,1.265,0,0,1,.924,2.339,1.476,1.476,0,0,1-.816.176"/></g></g></g></svg>