<svg xmlns="http://www.w3.org/2000/svg" width="28.791" height="90.951" viewBox="0 0 28.791 90.951"><defs><style>.a{fill:#183b8d;}</style></defs><g transform="translate(-3720.901 -5744.839)"><path class="a" d="M3727.077,5758.307a1.191,1.191,0,0,1-1.19-1.191v-7.646a1.191,1.191,0,0,1,2.381,0v7.646A1.191,1.191,0,0,1,3727.077,5758.307Z"/><path class="a" d="M3732.557,5758.307a1.191,1.191,0,0,1-1.19-1.191v-7.646a1.191,1.191,0,0,1,2.381,0v7.646A1.191,1.191,0,0,1,3732.557,5758.307Z"/><path class="a" d="M3738.037,5758.307a1.191,1.191,0,0,1-1.19-1.191v-7.646a1.191,1.191,0,0,1,2.381,0v7.646A1.191,1.191,0,0,1,3738.037,5758.307Z"/><path class="a" d="M3743.517,5758.307a1.191,1.191,0,0,1-1.191-1.191v-7.646a1.191,1.191,0,0,1,2.381,0v7.646A1.191,1.191,0,0,1,3743.517,5758.307Z"/><path class="a" d="M3748.5,5744.839h-26.41a1.191,1.191,0,0,0-1.191,1.19v15.293a1.191,1.191,0,0,0,1.191,1.191h2.676v62.749a10.529,10.529,0,0,0,21.058,0v-62.749h2.676a1.191,1.191,0,0,0,1.19-1.191v-15.293a1.19,1.19,0,0,0-1.19-1.19Zm-5.056,80.423a8.148,8.148,0,1,1-16.3,0v-62.749h16.3Zm3.866-65.13h-24.03V5747.22h24.029Z"/><path class="a" d="M3735.3,5830.757a5.682,5.682,0,0,1-5.677-5.677v-33.172a1.19,1.19,0,0,1,1.19-1.19h8.974a1.191,1.191,0,0,1,1.191,1.19v33.172a5.684,5.684,0,0,1-5.678,5.677ZM3732,5793.1v31.981a3.3,3.3,0,0,0,6.594,0V5793.1Z"/></g></svg>