<svg xmlns="http://www.w3.org/2000/svg" width="65.447" height="82.978" viewBox="0 0 65.447 82.978"><defs><style>.a{fill:#183b8d;}</style></defs><g transform="translate(-8012.942 -5852.225)"><path class="a" d="M8068.4,5912.366l3.861-3.86a20.92,20.92,0,0,0,0-29.585l-3.861-3.86,2.858-2.858a20.779,20.779,0,0,0,6.128-14.792,5.187,5.187,0,0,0-10.373,0,10.629,10.629,0,0,1-.21,2.107H8055.33a10.666,10.666,0,0,1-.21-2.107,5.186,5.186,0,0,0-10.372,0,20.781,20.781,0,0,0,6.127,14.792l2.858,2.858-3.86,3.86a20.942,20.942,0,0,0,0,29.585l3.859,3.86-2.857,2.858a20.783,20.783,0,0,0-6.127,14.793,5.186,5.186,0,0,0,10.372,0,10.665,10.665,0,0,1,.21-2.108H8066.8a10.628,10.628,0,0,1,.21,2.108,5.187,5.187,0,0,0,10.373,0,20.78,20.78,0,0,0-6.128-14.793Zm3.8-56.9a1.946,1.946,0,0,1,1.945,1.944,17.569,17.569,0,0,1-5.177,12.5l-2.858,2.857-2.751-2.75,2.858-2.858a13.7,13.7,0,0,0,4.039-9.75,1.946,1.946,0,0,1,1.944-1.944Zm-6.639,7.292a10.586,10.586,0,0,1-1.636,2.11l-2.858,2.858-2.857-2.858a10.6,10.6,0,0,1-1.636-2.11Zm-17.572-5.348a1.945,1.945,0,0,1,3.89,0,13.7,13.7,0,0,0,4.038,9.75l14.053,14.052a17.681,17.681,0,0,1,0,25l-3.86,3.86-2.751-2.75,3.86-3.86a13.789,13.789,0,0,0,0-19.5l-14.052-14.052a17.572,17.572,0,0,1-5.178-12.5Zm9.218,43.761a10.5,10.5,0,0,1-1.52-1.927h10.765a10.661,10.661,0,0,1-1.524,1.927l-3.861,3.861Zm7.721-14.916a10.681,10.681,0,0,1,1.55,1.968H8055.66a10.576,10.576,0,0,1,1.547-1.968l3.861-3.86Zm-10.562,5.21h13.409a10.559,10.559,0,0,1-.009,4.537h-13.391a10.625,10.625,0,0,1-.009-4.537Zm-4.432,40.5a1.948,1.948,0,0,1-1.945-1.945,17.564,17.564,0,0,1,5.178-12.5l2.858-2.857,2.75,2.75-2.858,2.858a13.7,13.7,0,0,0-4.038,9.75,1.947,1.947,0,0,1-1.945,1.945Zm6.64-7.294a10.613,10.613,0,0,1,1.636-2.11l2.857-2.858,2.858,2.858a10.633,10.633,0,0,1,1.636,2.11Zm15.626,7.294a1.947,1.947,0,0,1-1.944-1.945,13.694,13.694,0,0,0-4.039-9.75l-14.052-14.053a17.7,17.7,0,0,1,0-25l3.86-3.86,2.75,2.75-3.86,3.861a13.8,13.8,0,0,0,0,19.5l14.053,14.053a17.56,17.56,0,0,1,5.177,12.5,1.947,1.947,0,0,1-1.945,1.945Zm0,0"/><path class="a" d="M8035.307,5852.225h-20.745a1.621,1.621,0,0,0-1.62,1.621v20.744a1.621,1.621,0,0,0,1.62,1.621h1.3v49.916a9.075,9.075,0,1,0,18.151,0v-7.347a1.62,1.62,0,0,0-3.241,0v7.347a5.834,5.834,0,1,1-11.669,0v-30.772h11.669v8.839a1.62,1.62,0,1,0,3.241,0v-27.983h1.3a1.62,1.62,0,0,0,1.62-1.621v-20.744a1.62,1.62,0,0,0-1.62-1.621Zm-1.621,20.745h-3.673v-17.5h3.673Zm-10.588,0v-17.5h3.673v17.5Zm-6.915-17.5h3.673v17.5h-3.673Zm14.586,36.647H8019.1v-15.9h11.669Zm0,0"/><path class="a" d="M8032.39,5909.868a1.618,1.618,0,1,0,1.147.474,1.629,1.629,0,0,0-1.147-.474Zm0,0"/></g></svg>