<svg xmlns="http://www.w3.org/2000/svg" width="376" height="376" viewBox="0 0 376 376"><defs><style>.a{fill:#00bedb;}.b{fill:#183b8d;}</style></defs><g transform="translate(-7485.322 -2406.897)"><circle class="a" cx="188" cy="188" r="188" transform="translate(7485.322 2406.897)"/><path class="b" d="M7793.924,2689.625a7.068,7.068,0,0,0-9.285-3.593c-1.36.59-33.824,14.5-77.238,17.647-57.482,4.17-104.707-12.1-140.352-48.339-2.714-2.76,2.1-16.5,4.688-23.882l.076-.216c1.368-3.912,2.783-7.958,3.9-11.853,3.685-12.873,23.136-66.477,31.328-88.926.209-.572.354-.97.429-1.176a12.056,12.056,0,0,1,3.941-3.76c7.047-4.764,46.815-35.786,51.459-39.469.882-.386,2.551-.84,3.423-.24,3.347,2.289,17.428,14.937,25.548,22.4a2.444,2.444,0,0,1,.634,1.065c0,.005-.042.5-.976,1.475-5.624,5.868-13.255,12.637-14.841,14.033-.587.427-2.648,1.725-4.342.341-.854-.7-.235-4.416,1.235-7.412a7.065,7.065,0,0,0-12.55-6.495c-.854,1.645-8.047,16.327,2.363,24.84,7.376,6.04,16.68,4.075,22.2-.306l.131-.108c.061-.054,4.555-3.967,9.6-8.771.551.519,1.086,1.029,1.575,1.505-5.49,5.638-16.622,15.6-20.633,18.123-2.148.236-10.725-.719-21.931-3.653a7,7,0,0,0-3.061-.1l-.013,0c-.205.039-.407.086-.607.142-.045.012-.089.027-.134.04-.159.048-.315.1-.469.159-.084.031-.167.067-.25.1-.115.049-.229.1-.342.153s-.217.111-.324.171c-.085.047-.169.094-.252.145-.121.073-.238.15-.355.231-.069.048-.137.1-.2.146-.12.089-.237.183-.352.28-.06.052-.119.1-.177.157s-.131.11-.193.17c-.689.676-16.787,16.805-10.093,39.427l.492,1.665c5.527,18.628,5.6,20.965.742,25.012-.085.071-.161.149-.242.223-.047.043-.094.085-.14.129-.138.134-.269.272-.394.415l-.048.053a6.992,6.992,0,0,0-1.328,2.314l-.007.021c-.065.192-.122.388-.17.586-.01.042-.02.083-.03.124-.037.167-.069.334-.094.5-.012.075-.022.151-.031.226s-.023.141-.029.212-.005.155-.01.232-.009.18-.011.27c0,.146,0,.29.006.435,0,.089.009.178.016.268.012.146.029.29.05.434.008.056.01.111.019.167.006.035.017.07.024.1.029.159.066.316.106.472.014.056.027.112.043.167.057.2.124.4.2.594l.007.02a7.068,7.068,0,0,0,6.587,4.518c.09,0,.177-.02.267-.023a7.23,7.23,0,0,0,.915-.072c5.439-.927,14.48-.757,17.3,1.97.049.047.1.087.152.133.075.069.152.136.23.2.1.079.192.155.291.229.081.062.164.121.248.179.107.073.216.142.326.209.077.047.154.093.233.136.129.072.259.138.392.2.062.03.124.059.187.086.157.07.317.132.479.189l.124.044c.189.063.38.117.574.164l.055.013q.322.077.653.121h.009a7.187,7.187,0,0,0,.955.072c.2,0,.393-.014.588-.031l.073,0c.137-.013.272-.037.409-.058.088-.013.177-.024.264-.04.13-.026.258-.059.386-.091.086-.022.172-.042.257-.067.14-.041.277-.089.414-.138.062-.023.125-.044.187-.069.158-.062.312-.13.465-.2l.089-.043a6.915,6.915,0,0,0,1.941-1.409,7,7,0,0,0,1.8-3.307l.019-.081c.037-.17.068-.341.093-.515,0-.031.013-.061.017-.093.125-.953,3.347-23.355,27.527-25.509,30.4-2.732,34.5,16.684,34.66,17.485a7.044,7.044,0,0,0,13.285,1.82c2.628-3.5,14.874-12.371,25.388-6.569a7.091,7.091,0,0,0,9.588-2.778,7.059,7.059,0,0,0-2.772-9.6c-13.623-7.52-27.47-2.621-36.278,3.71a38.023,38.023,0,0,0-4.252-5.452c-6.45-6.867-18.785-14.641-40.881-12.7-22.515,2.009-33.376,17.109-37.813,28.492a36.445,36.445,0,0,0-6.108-1.115c1.383-7.29-1.13-15.791-4.456-27.013l-.49-1.651c-2.972-10.05,1.222-18.288,4.12-22.443,5.954,1.405,13.893,2.964,19.845,2.964,3.425,0,5.989-.514,7.835-1.568a195.094,195.094,0,0,0,15.853-12.854c13.151-11.728,15.111-16.516,14.012-20.087-.484-1.583-1.576-3.776-7.921-9.705a14.59,14.59,0,0,0,1.811-7.73,16.182,16.182,0,0,0-5.25-10.892c-1.055-.971-21.619-19.872-27.069-23.607-8.926-6.093-18.638-.237-19.046.016l-.369.258c-.43.337-44.392,34.688-51.358,39.392-7.04,4.748-8.921,9.393-9.338,10.73-1.616,4.41-27.483,75.062-32.036,90.951-1.031,3.6-2.4,7.509-3.731,11.306-5.294,15.127-10.295,29.414-1.419,38.449,34.694,35.27,79.619,53.153,133.526,53.153,55.376,0,99.4-19.248,99.831-19.439A7.079,7.079,0,0,0,7793.924,2689.625Z"/></g></svg>