<svg xmlns="http://www.w3.org/2000/svg" width="28.791" height="90.951" viewBox="0 0 28.791 90.951"><defs><style>.a{fill:#183b8d;}</style></defs><g transform="translate(-8502.512 -5384.953)"><path class="a" d="M8508.687,5398.421a1.19,1.19,0,0,1-1.189-1.191v-7.646a1.19,1.19,0,0,1,2.381,0v7.646A1.191,1.191,0,0,1,8508.687,5398.421Z"/><path class="a" d="M8514.167,5398.421a1.191,1.191,0,0,1-1.19-1.191v-7.646a1.191,1.191,0,0,1,2.382,0v7.646A1.191,1.191,0,0,1,8514.167,5398.421Z"/><path class="a" d="M8519.647,5398.421a1.191,1.191,0,0,1-1.19-1.191v-7.646a1.19,1.19,0,0,1,2.381,0v7.646A1.191,1.191,0,0,1,8519.647,5398.421Z"/><path class="a" d="M8525.127,5398.421a1.191,1.191,0,0,1-1.191-1.191v-7.646a1.191,1.191,0,0,1,2.382,0v7.646A1.191,1.191,0,0,1,8525.127,5398.421Z"/><path class="a" d="M8530.112,5384.953H8503.7a1.19,1.19,0,0,0-1.19,1.19v15.293a1.191,1.191,0,0,0,1.19,1.19h2.676v62.75a10.529,10.529,0,0,0,21.058,0v-62.75h2.677a1.191,1.191,0,0,0,1.19-1.19v-15.293a1.19,1.19,0,0,0-1.19-1.19Zm-5.057,80.423a8.148,8.148,0,1,1-16.3,0v-62.75h16.3Zm3.867-65.131h-24.03v-12.912h24.029Z"/><path class="a" d="M8516.907,5470.871a5.683,5.683,0,0,1-5.677-5.678v-33.171a1.19,1.19,0,0,1,1.189-1.19h8.975a1.191,1.191,0,0,1,1.19,1.19v33.171a5.684,5.684,0,0,1-5.678,5.678Zm-3.3-37.658v31.98a3.3,3.3,0,1,0,6.593,0v-31.98Z"/></g></svg>