<svg xmlns="http://www.w3.org/2000/svg" width="95.58" height="95.58" viewBox="0 0 95.58 95.58"><defs><style>.a{fill:none;stroke:#00bedb;stroke-linecap:round;stroke-miterlimit:10;stroke-width:3px;}.b{fill:#183b8d;}</style></defs><g transform="translate(-746.667 -3010.693)"><circle class="a" cx="46.29" cy="46.29" r="46.29" transform="translate(748.167 3012.193)"/><g transform="translate(-2304.055)"><path class="b" d="M3130.751,3035.538a3.885,3.885,0,0,0-3.553-2.254l-22.672,0a6.294,6.294,0,0,0-4.208,1.471,2.779,2.779,0,0,0-.221.223c-.03.034-.07.078-.108.116-2.668-1.914-15.761-1.7-20.312.9-9,4.736-13.685,12.261-13.908,22.364-.076,3.43-.059,6.915-.043,10.287.01,2.093.021,4.187.01,6.28a4.143,4.143,0,0,0,2.266,4.065,5.019,5.019,0,0,0,4.6-.633c1.2-.917,2.334-1.924,3.427-2.9s2.234-1.99,3.43-2.9c.276-.209.934-.69,1.279-.633.066.011.167.048.286.237a5.855,5.855,0,0,0,4.489,2.522,5.129,5.129,0,0,0,3.113-.687c.048-.015.09-.026.125-.033l-.009.047-.022.138a15.317,15.317,0,0,1-1.468,4.907c-.16.371-.324.755-.492,1.163a1.934,1.934,0,0,0-.076,1.669,1.72,1.72,0,0,0,1.354.753c2.138.324,3.11.511,5.047.885l.457.088a3.206,3.206,0,0,0,.593.063,1.444,1.444,0,0,0,.933-.293,1.687,1.687,0,0,0,.52-1.37,26.439,26.439,0,0,1,.529-4.713l.094-.539a58.289,58.289,0,0,1,4.512-13.964c.4-.89.769-1.367,1.128-1.457a1.321,1.321,0,0,1,1.036.387,2.587,2.587,0,0,1,.359.373c.061.072.121.143.182.21,1.775,1.959,3.036,4.958,3.957,7.149a1.319,1.319,0,0,0,2.268.653c1.78-1.272,3.733-2.613,5.97-4.1a1.678,1.678,0,0,0,.9-1.175,1.635,1.635,0,0,0-.681-1.249,19.367,19.367,0,0,1-2.672-2.932l-.119-.16c-.372-.5-.882-1.187-.836-1.36,0,0,.07-.165.827-.379a10.936,10.936,0,0,0,7.954-7.625,17.563,17.563,0,0,1,6.255-8.739c.335-.254.665-.517.995-.78.65-.517,1.32-1.051,2.016-1.507C3131.308,3039.434,3131.762,3037.388,3130.751,3035.538Zm-29.616,9.483c-.007-1.836-.014-3.67-.01-5.5.006-2.276,1.239-3.64,3.3-3.649q2.175-.007,4.352-.007l3.421,0,6.664.009q4.172,0,8.339-.005h0c.575,0,1.211.616,1.481,1.434.165.5-.052.706-.717,1.151l-.121.081a24.464,24.464,0,0,0-9.956,13.215,5.89,5.89,0,0,1-4.081,4.045c-1.969.643-3.946,1.359-5.857,2.053-.85.307-1.7.616-2.55.919a3.554,3.554,0,0,1-3.247-.262,2.772,2.772,0,0,1-1.064-2.435C3101.165,3052.386,3101.15,3048.642,3101.135,3045.021Zm10.1,17.421c.4.531.821,1.048,1.222,1.544l.556.693a5.155,5.155,0,0,1-.547.4c-.7.464-1.387.955-2.07,1.448l-.722.517c-.049.035-.084.053-.095.063a.6.6,0,0,1-.087-.128,36.838,36.838,0,0,0-3.125-4.808c-.234-.3-.313-.589-.265-.66.053-.016.4-.14.457-.167a6.65,6.65,0,0,1,2.393-.862C3109.7,3060.477,3110.187,3061.067,3111.232,3062.442Zm-26.995,7c1.644-.825,4.761-2.388,6.79-2.388a2.8,2.8,0,0,1,.813.107,20.319,20.319,0,0,1-4.973,4.647,3.423,3.423,0,0,1-2.672-.064,1.38,1.38,0,0,1-.842-1.058A1.7,1.7,0,0,1,3084.237,3069.438Zm6.08,8.683a29.23,29.23,0,0,0,1.2-6.065,1.721,1.721,0,0,1,.521-1.147,12.015,12.015,0,0,0,3.133-4.689c.1-.322.316-.418.854-.536l-.07.276c-.219.87-.425,1.682-.637,2.493a84.987,84.987,0,0,0-2.176,11.663.83.83,0,0,1-.24.583c-.168.122-.5.133-1.12.01a4.678,4.678,0,0,1-1.9-.558A4.97,4.97,0,0,1,3090.317,3078.121Zm8.212-26.592q.006,3.928,0,7.857c-.006,1.393-.587,2.1-2.218,2.718-4.506,1.7-8.183,3.058-11.573,4.288a19.608,19.608,0,0,0-5.175,2.73c-1.437,1.077-2.779,2.275-4.076,3.433s-2.632,2.347-4.05,3.406a3.365,3.365,0,0,1-2.572.558c-.209-.113-.559-.524-.557-2.019,0-5.194.06-10.32.144-16.419.159-11.63,10.342-21.459,22.237-21.463l1.4,0c.493,0,.986-.006,1.478-.006.692,0,1.382.005,2.073.024,1.067.026,2.859.39,2.88,2.515.024,2.386.019,4.774.013,7.161l0,3.021Z"/><path class="b" d="M3094.479,3038.376l-.216,0c-.934-.022-.991-.021-1.323-.017l-.891.005a20.444,20.444,0,0,0-11.077,2.911,20.226,20.226,0,0,0-10.143,17.183l-.007.143a2.028,2.028,0,0,0,.329,1.554,1.143,1.143,0,0,0,.864.331,1.105,1.105,0,0,0,1.088-.567,2.08,2.08,0,0,0,.144-.952c0-.124,0-.256.008-.392a19.218,19.218,0,0,1,3.571-10.187,18.6,18.6,0,0,1,15.771-7.363h.934l.744,0h.256a1.987,1.987,0,0,0,1.509-.374,1.241,1.241,0,0,0,.337-.919C3096.377,3038.392,3095.142,3038.382,3094.479,3038.376Z"/></g></g></svg>