<svg xmlns="http://www.w3.org/2000/svg" xmlns:xlink="http://www.w3.org/1999/xlink" width="171.644" height="171.644" viewBox="0 0 171.644 171.644"><defs><style>.a,.b{fill:none;}.b{stroke:#00bedb;stroke-linecap:round;stroke-miterlimit:10;stroke-width:3px;}.c{clip-path:url(#a);}.d{clip-path:url(#b);}.e{fill:#183b8d;}</style><clipPath id="a"><rect class="a" width="148.876" height="148.876" transform="translate(7447.699 3034.905)"/></clipPath><clipPath id="b"><rect class="a" width="148.876" height="148.876" transform="translate(7447.699 3034.904)"/></clipPath></defs><g transform="translate(-354.5 -3028.955)"><path class="b" d="M7528.141,3199.1a84.066,84.066,0,1,1,32.822-6.627,83.785,83.785,0,0,1-32.822,6.627m0-165.569a80.985,80.985,0,1,0,31.624,6.384,80.742,80.742,0,0,0-31.624-6.384" transform="translate(-7087.819)"/><g transform="translate(-7087.819)"><g class="c"><g class="d"><path class="e" d="M7493.974,3157.2c-6.853,0-8.975-.477-10.847-.9-.672-.15-1.321-.3-2.19-.413a5,5,0,0,0-1.706.138,23.068,23.068,0,0,1-5.582.392,9.172,9.172,0,0,1-9.042-7.533,5.712,5.712,0,0,1,4.171-6.46,82.057,82.057,0,0,1,11.517-2.631c2.3-.4,5.161-.891,9.263-1.745,10.582-2.2,21.437-11.332,28.327-23.845,6.547-11.9,12.124-51.235,12.178-51.631a1.265,1.265,0,1,1,2.5.353c-.23,1.634-5.7,40.188-12.47,52.494-7.233,13.145-18.738,22.766-30.028,25.109-4.142.859-7.027,1.357-9.344,1.758a79.78,79.78,0,0,0-11.218,2.563,3.185,3.185,0,0,0-2.392,3.706,6.622,6.622,0,0,0,6.614,5.333,20.826,20.826,0,0,0,5.045-.35,7.384,7.384,0,0,1,2.5-.16c.954.127,1.669.288,2.407.455,1.831.411,3.721.836,10.295.836a68.716,68.716,0,0,0,13.7-1.9c4.907-1.019,9.971-2.079,14.919-1.865a48.494,48.494,0,0,1,11.17,1.647,31,31,0,0,0,9.176,1.168,11.428,11.428,0,0,0,8.648-3.584c2.321-2.6,3.358-6.491,2.917-10.952a45.683,45.683,0,0,0-2.284-10.183,42.783,42.783,0,0,1-2.464-14.41c-.093-19.155,14.245-44.405,14.856-45.471a1.265,1.265,0,1,1,2.2,1.258c-.147.253-14.612,25.727-14.521,44.2a40.042,40.042,0,0,0,2.346,13.658,47.772,47.772,0,0,1,2.388,10.7c.514,5.176-.747,9.751-3.548,12.887a13.869,13.869,0,0,1-10.5,4.428,33.825,33.825,0,0,1-9.826-1.242,45.981,45.981,0,0,0-10.66-1.578c-4.624-.19-9.318.784-14.3,1.818a70.528,70.528,0,0,1-14.212,1.956"/><path class="e" d="M7512.627,3106.527a1.266,1.266,0,0,1-1.259-1.153l-.966-10.867a1.267,1.267,0,0,1,1.147-1.373,1.292,1.292,0,0,1,1.372,1.15l.968,10.865a1.266,1.266,0,0,1-1.148,1.373c-.037,0-.076.005-.114.005"/><path class="e" d="M7494.5,3124.183a1.264,1.264,0,0,1-.465-2.439l9.392-3.719a1.265,1.265,0,0,1,.929,2.353l-9.39,3.717a1.255,1.255,0,0,1-.466.088"/><path class="e" d="M7507.282,3112.514a1.268,1.268,0,0,1-.673-.195l-13.469-8.484a1.265,1.265,0,0,1,1.351-2.14l13.467,8.486a1.264,1.264,0,0,1-.676,2.333"/><path class="e" d="M7570.835,3136.984a1.263,1.263,0,0,1-.859-.338l-8.007-7.411a1.265,1.265,0,0,1,1.719-1.855l8.007,7.411a1.266,1.266,0,0,1-.86,2.193"/><path class="e" d="M7559.96,3113.375a1.247,1.247,0,0,1-.56-.132,1.262,1.262,0,0,1-.573-1.693l4.473-9.055a1.264,1.264,0,1,1,2.266,1.12l-4.473,9.054a1.265,1.265,0,0,1-1.133.706"/><path class="e" d="M7562.776,3121.544a1.264,1.264,0,0,1-.216-2.51l15.686-2.737a1.264,1.264,0,0,1,.432,2.491L7563,3121.525a1.25,1.25,0,0,1-.22.019"/><path class="e" d="M7532.624,3136.924a1.265,1.265,0,0,1-.082-2.527c3.017-.2,5.216-1.21,6.532-2.99,2.363-3.2,1.283-7.972,1.272-8.02a1.265,1.265,0,0,1,2.463-.582c.057.24,1.367,5.939-1.69,10.091-1.775,2.413-4.6,3.767-8.406,4.026-.029,0-.057,0-.089,0"/></g></g></g></g></svg>