<svg xmlns="http://www.w3.org/2000/svg" width="46.859" height="46.776" viewBox="0 0 46.859 46.776"><defs><style>.a{fill:#f99d1c;}</style></defs><path class="a" d="M644.762,116.636l18-18.123L655.9,91.374,661,86.253l4.7,4.682,3.309-3.309L656.268,74.94l-3.309,3.309,4.682,4.682L652.588,88l-6.865-7.139-18.782,18.59.165,14.073-4.956,4.86,3.281,3.336,5-4.9Zm.837-29.12L656.2,98.5l-3.446,3.474-5.4-5.492-3.322,3.254,5.368,5.492-3.734,3.762-5.3-5.492-3.323,3.226L642.071,112l-10.3.124-.124-10.75Z" transform="translate(-622.15 -74.94)"/></svg>