<svg xmlns="http://www.w3.org/2000/svg" width="34.338" height="34.278" viewBox="0 0 34.338 34.278"><defs><style>.a{fill:#f99d1c;}</style></defs><path class="a" d="M638.721,105.5l13.19-13.281-5.031-5.232,3.743-3.753,3.441,3.431,2.425-2.425-9.337-9.3-2.425,2.425,3.431,3.431-3.7,3.713-5.031-5.232L625.661,92.9l.121,10.313-3.632,3.562,2.4,2.445,3.662-3.592Zm.614-21.339L647.1,92.2l-2.525,2.545-3.954-4.024-2.435,2.384,3.934,4.024-2.737,2.757L635.5,95.867l-2.435,2.364,3.682,3.863-7.546.091-.091-7.878Z" transform="translate(-622.15 -74.94)"/></svg>