<svg xmlns="http://www.w3.org/2000/svg" width="30.645" height="23.937" viewBox="0 0 30.645 23.937"><defs><style>.a,.b{fill:#f99d1c;}.b{stroke:#fff;stroke-miterlimit:10;stroke-width:0.1px;}</style></defs><g transform="translate(-44.313 -75.618)"><path class="a" d="M72.185,80.822c-1.038-1.179-1.993-2.494-3.119-3.614-2.046-2.028-3.915-2.594-7.122-.9A12.416,12.416,0,0,0,59.951,77.9c-1.032-.631-2.028-1.344-3.113-1.875a3.661,3.661,0,0,0-4.068.324,38.561,38.561,0,0,0-3.355,3.084c-1.557,1.586-2.736,3.538-4.593,4.829-.371.265-.153.448.1.684.973.914,1.952,1.822,2.86,2.8s1.7,2.075,2.612,3.066A10.506,10.506,0,0,0,55.3,93.645a17.93,17.93,0,0,0,7.623.59,10.556,10.556,0,0,0,5.271-1.769c2.789-2.459,4.752-5.306,7.075-8.036C74.16,83.109,73.146,81.972,72.185,80.822ZM47.947,85.149c1.574-.778,4.316-3.213,5.937-3.968a5.078,5.078,0,0,1,3.343,0,3.838,3.838,0,0,1,.778.236,6.032,6.032,0,0,0,4.717.071,6.173,6.173,0,0,1,5.259.348c1.132.59,2.411,2.176,3.538,3.089C64.155,92.773,56.985,93.262,47.947,85.149Z" transform="translate(-0.31 0.31)"/><path class="b" d="M52.271,108.7l-.531-.383L59.694,98.07l.525.383Z" transform="translate(-3.048 -9.214)"/><path class="a" d="M65.985,95.484a.66.66,0,0,1-.507-.1c-.843-.59.59-3.184.932-3.685a1.957,1.957,0,0,1,1.067-.808,1.327,1.327,0,0,1,1.651,1.179,1.981,1.981,0,0,1-.436,1.268,8.667,8.667,0,0,1-1.474,1.468A3.019,3.019,0,0,1,65.985,95.484Z" transform="translate(-8.761 -6.068)"/></g></svg>