<svg xmlns="http://www.w3.org/2000/svg" width="28.56" height="35.837" viewBox="0 0 28.56 35.837"><defs><style>.a{fill:#f99d1c;}</style></defs><g transform="translate(-277.229 -74.46)"><path class="a" d="M300.143,81.175l-1.5-6.984h-3.21l2.144,10h1.268a4.026,4.026,0,1,1,0,8.051,4.076,4.076,0,0,1-1.3-.211l-1.54-.533-.473,1.57a4.026,4.026,0,0,1-7.669,0l-.463-1.5-1.5.463a4.166,4.166,0,0,1-1.177.171,4.026,4.026,0,0,1,0-8.051h1.328l1.681-10h-3.18l-1.177,7.045a7.145,7.145,0,0,0,1.349,14.17h.694a7.145,7.145,0,0,0,12.55,0,8.506,8.506,0,0,0,.876,0,7.145,7.145,0,0,0,1.3-14.19Z" transform="translate(-0.31 0.31)"/><path class="a" d="M293.72,105.79h3.2v4.338h2.969V105.79h3.19l-4.68-4.68Z" transform="translate(0.105 0.17)"/><path class="a" d="M279.78,105.79h3.2v4.338h2.969V105.79h3.19l-4.68-4.68Z" transform="translate(0.016 0.17)"/></g></svg>