<svg xmlns="http://www.w3.org/2000/svg" width="44.058" height="34.383" viewBox="0 0 44.058 34.383"><defs><style>.a,.b{fill:#fa9d1a;}.b{stroke:#fff;stroke-miterlimit:10;stroke-width:0.1px;}</style></defs><g transform="translate(-44.313 -75.618)"><path class="a" d="M84.248,83.235c-1.492-1.7-2.865-3.586-4.484-5.2-2.941-2.916-5.628-3.73-10.24-1.3a17.851,17.851,0,0,0-2.865,2.289c-1.483-.907-2.916-1.933-4.476-2.7a5.264,5.264,0,0,0-5.849.466,55.436,55.436,0,0,0-4.823,4.433c-2.238,2.28-3.933,5.086-6.6,6.942-.534.381-.22.644.144.983,1.4,1.314,2.806,2.619,4.111,4.026s2.45,2.984,3.755,4.408c1.975,2.162,4.179,3.119,7.052,4.077a25.777,25.777,0,0,0,10.96.848c2.78-.288,5.934-1.136,7.578-2.543,4.009-3.535,6.832-7.629,10.172-11.554C87.088,86.524,85.63,84.888,84.248,83.235ZM49.4,89.457c2.263-1.119,6.2-4.62,8.536-5.7,1.568-.729,3.2-.356,4.806,0a5.518,5.518,0,0,1,1.119.339,8.671,8.671,0,0,0,6.781.1,8.875,8.875,0,0,1,7.561.5c1.627.848,3.467,3.128,5.086,4.442C72.7,100.417,62.4,101.121,49.4,89.457Z" transform="translate(-0.31 0.31)"/><path class="b" d="M52.5,113.353l-.763-.551L63.175,98.07l.754.551Z" transform="translate(-1.131 -3.42)"/><path class="a" d="M66.321,97.513a.949.949,0,0,1-.729-.144c-1.212-.848.848-4.577,1.339-5.3a2.814,2.814,0,0,1,1.534-1.161,1.907,1.907,0,0,1,2.373,1.7,2.848,2.848,0,0,1-.627,1.822,12.46,12.46,0,0,1-2.119,2.111A4.34,4.34,0,0,1,66.321,97.513Z" transform="translate(-3.447 -2.058)"/></g></svg>