<svg xmlns="http://www.w3.org/2000/svg" width="38.408" height="48.195" viewBox="0 0 38.408 48.195"><defs><style>.a{fill:#f99d1c;}</style></defs><g transform="translate(-277.229 -74.46)"><path class="a" d="M307.938,83.6,305.921,74.2H301.6l2.883,13.453h1.705a5.414,5.414,0,0,1,0,10.827,5.481,5.481,0,0,1-1.746-.284l-2.071-.717-.636,2.111a5.414,5.414,0,0,1-10.313,0l-.623-2.017-2.017.623a5.6,5.6,0,0,1-1.583.23,5.414,5.414,0,0,1,0-10.827h1.786l2.26-13.453h-4.277l-1.583,9.474A9.609,9.609,0,0,0,287.2,102.68h.934a9.609,9.609,0,0,0,16.877,0,11.446,11.446,0,0,0,1.177,0A9.609,9.609,0,0,0,307.938,83.6Z" transform="translate(-0.31 0.31)"/><path class="a" d="M293.72,107.4h4.3v5.833h3.993V107.4h4.29l-6.293-6.293Z" transform="translate(5.828 9.418)"/><path class="a" d="M279.78,107.4h4.3v5.833h3.993V107.4h4.29l-6.293-6.293Z" transform="translate(0.902 9.418)"/></g></svg>