<svg xmlns="http://www.w3.org/2000/svg" width="255.01" height="231.706" viewBox="0 0 255.01 231.706"><defs><style>.a{fill:#21b8dd;opacity:0.56;}</style></defs><path class="a" d="M-216.417-208.272a182.132,182.132,0,0,0-24.505,2.229l17.819-67.948h-45.671a32.481,32.481,0,0,0-32.3,24.5l-14.436,51.238a86.194,86.194,0,0,0,20.048-2.228,103.7,103.7,0,0,1-57.924,16.709,54.23,54.23,0,0,1-13.371-1.11,98.759,98.759,0,0,1-31.191-7.8L-418-121.4a104.66,104.66,0,0,0,52.33,13.371,109.945,109.945,0,0,0,26.734-3.339L-357.88-42.3H-311.1a34.439,34.439,0,0,0,32.3-24.5l13.371-49.01a98.764,98.764,0,0,0-31.19,7.8,123.5,123.5,0,0,1,33.383-18.948h1.119c1.11,0,1.11,0,2.229-1.119,1.118,0,1.118,0,2.229-1.11,1.11,0,2.229,0,2.229-1.11h2.229c1.11,0,2.229,0,2.229-1.11h43.443a4.1,4.1,0,0,1,3.338,1.11h2.229c1.109,0,2.229,1.11,3.338,1.11h2.229c1.119,0,2.228,1.11,3.338,1.11s1.11,0,2.228,1.119c1.119,0,2.229,1.109,3.338,1.109a1.092,1.092,0,0,1,.8.316,1.091,1.091,0,0,1,.323.794c1.11,0,2.229,1.119,3.338,1.119h0l20.048-71.277a118.624,118.624,0,0,0-53.467-13.371" transform="translate(417.996 274.001)"/></svg>