<svg xmlns="http://www.w3.org/2000/svg" width="15.847" height="13.591" viewBox="0 0 15.847 13.591"><defs><style>.a{fill:#fff;}</style></defs><g transform="translate(15.847 45.432) rotate(180)"><g transform="translate(0 31.842)"><path class="a" d="M14.895,37.525a1.133,1.133,0,0,0-.2-.015H3.518l.244-.113a2.268,2.268,0,0,0,.641-.454l3.135-3.135a1.174,1.174,0,0,0,.164-1.5A1.134,1.134,0,0,0,6,32.158L.332,37.828a1.134,1.134,0,0,0,0,1.6h0L6,45.1a1.134,1.134,0,0,0,1.7-.113,1.174,1.174,0,0,0-.164-1.5L4.409,40.345a2.268,2.268,0,0,0-.567-.414l-.34-.153H14.636a1.174,1.174,0,0,0,1.2-.952A1.134,1.134,0,0,0,14.895,37.525Z" transform="translate(0 -31.842)"/></g></g></svg>