<svg xmlns="http://www.w3.org/2000/svg" width="21.081" height="22.867" viewBox="0 0 21.081 22.867"><defs><style>.a{fill:#21b8dd;}</style></defs><g transform="translate(-20)"><g transform="translate(20)"><g transform="translate(0)"><path class="a" d="M384.969,15.089l2.425,2.023a.893.893,0,1,0,1.144-1.372l-2.425-2.023a.893.893,0,1,0-1.144,1.372Z" transform="translate(-368.361 -12.906)"/><path class="a" d="M33.939,17.319a.89.89,0,0,0,.572-.207l2.425-2.023a.893.893,0,1,0-1.144-1.372L33.366,15.74a.893.893,0,0,0,.573,1.579Z" transform="translate(-32.462 -12.907)"/><path class="a" d="M37.994,4.874a10.461,10.461,0,0,0-6.56-3.049V.893a.893.893,0,1,0-1.787,0v.931a10.54,10.54,0,0,0-6.56,17.956,10.542,10.542,0,0,0,13.7,1.037.893.893,0,1,0-1.06-1.438,8.742,8.742,0,1,1,2.488-2.838.893.893,0,1,0,1.565.861A10.546,10.546,0,0,0,37.994,4.874Z" transform="translate(-20 0)"/><path class="a" d="M222.138,151.346a.893.893,0,0,0-1.256.132l-2.816,3.48a1.788,1.788,0,1,0,1.388,1.124l2.817-3.481A.893.893,0,0,0,222.138,151.346Z" transform="translate(-207.246 -144.397)"/></g></g></g></svg>