<svg xmlns="http://www.w3.org/2000/svg" width="341.366" height="195.1" viewBox="0 0 341.366 195.1"><defs><style>.a{fill:#00bedb;}</style></defs><g transform="translate(-7418.722 -700.623)"><path class="a" d="M7481.336,707.207h-45.06a3.292,3.292,0,0,1,0-6.584h45.06a3.292,3.292,0,0,1,0,6.584"/><path class="a" d="M7467.074,726.961h-45.06a3.292,3.292,0,0,1,0-6.584h45.06a3.292,3.292,0,0,1,0,6.584"/><path class="a" d="M7569.119,878.97h-45.064a3.291,3.291,0,1,1,0-6.583h45.064a3.291,3.291,0,1,1,0,6.583"/><path class="a" d="M7555.947,895.723h-45.056a3.292,3.292,0,0,1,0-6.584h45.056a3.292,3.292,0,0,1,0,6.584"/><path class="a" d="M7724,879.458c-24.363,0-54.525-11.246-62.031-15.822-2.62-1.6-8.806-5.491-16.854-10.56-23.641-14.882-72.817-45.856-78.756-47.832-1.055-.352-2.972-.883-5.506-1.586-31.756-8.845-64.226-20.212-64.226-37.472,0-1.594.48-2.019,3.62-4.8,4.1-3.628,15-13.269,17.221-18.447.859-2.011,1.894-5.205,2.983-8.587,4.14-12.793,7.478-22.048,12.887-24.629,8.185-3.909,13.156-.4,37.058,16.464s30.046,13.569,30.1,13.519c15.823-20.7,30.9-29.269,42.53-24.278,2.764,1.179,4.291,4.944,9.169,17.823,9.8,25.878,28.042,74.043,64.4,94.669,5.428,3.077,11.262,4.432,16.9,5.74,9.31,2.164,18.94,4.4,24.664,14.574,1.84,3.272,6.459,14.831-11.547,26.074-5.928,3.7-13.9,5.146-22.622,5.146m-220.68-112c1.671,9.321,21.6,19.357,59.3,29.858,2.678.745,4.7,1.308,5.818,1.683,6.166,2.057,42.994,25.089,80.182,48.5,8,5.041,14.155,8.919,16.768,10.512,10.286,6.264,58.864,22.509,77.745,10.712,12.7-7.931,10.735-14.711,9.3-17.261-4.307-7.65-11.411-9.3-20.416-11.386-5.814-1.352-12.41-2.879-18.662-6.428-38.425-21.8-57.22-71.411-67.314-98.067-2.359-6.24-4.8-12.688-5.983-14.257-8.482-3.218-20.915,4.838-34.2,22.211-3.05,3.952-11.906,7.338-39.257-11.972-22.5-15.882-26.015-17.991-30.42-15.9-3.265,1.562-7.3,14.019-9.454,20.713-1.2,3.686-2.222,6.869-3.206,9.161-2.464,5.744-10.54,13.382-18.912,20.782-.5.438-.93.824-1.285,1.137m137.113-45.982.012,0-.012,0"/><path class="a" d="M7712.8,889.662a167.978,167.978,0,0,1-35.852-4.23c-18.537-4.147-59.481-26.276-83.946-39.5-6.67-3.6-11.813-6.385-14.433-7.662-8.13-3.967-19.025-6.345-26.984-8.083-3.233-.707-5.978-1.312-7.88-1.866-.445-.129-45.357-14.257-53.921-33.322-6.462-14.382,2.445-26.808,8.057-31.365a3.29,3.29,0,0,1,4.158,5.1c-.5.414-12.191,10.25-6.209,23.567,5.912,13.179,39.019,26.569,49.762,29.7,1.792.524,4.389,1.086,7.443,1.754,8.283,1.808,19.627,4.28,28.464,8.6,2.663,1.3,7.9,4.124,14.675,7.791,22.575,12.2,64.6,34.915,82.251,38.863,22.759,5.08,41.835,4.877,49.938,2.519,7.255-2.109,20.321-16,21.661-17.956a3.331,3.331,0,0,1,4.553-.921,3.254,3.254,0,0,1,.988,4.475c-1.113,1.749-15.589,17.889-25.371,20.724-3.843,1.117-9.845,1.812-17.354,1.812"/><path class="a" d="M7627.687,763.442a3.292,3.292,0,0,1-1.785-6.06c3.71-2.39,14.886-10.509,15-10.591a3.291,3.291,0,1,1,3.866,5.327c-.464.34-11.437,8.314-15.315,10.8a3.236,3.236,0,0,1-1.769.523"/><path class="a" d="M7642.208,784.106a3.291,3.291,0,0,1-1.784-6.061c3.682-2.366,11.016-8.009,11.09-8.064a3.291,3.291,0,0,1,4.018,5.214c-.308.238-7.634,5.873-11.551,8.388a3.273,3.273,0,0,1-1.773.523"/><path class="a" d="M7656.738,805.429a3.292,3.292,0,0,1-1.785-6.061c3.679-2.366,9.2-6.6,9.255-6.642a3.292,3.292,0,1,1,4.007,5.225c-.235.179-5.795,4.444-9.7,6.958a3.291,3.291,0,0,1-1.773.52"/></g></svg>